SplineFontDB: 3.0
FontName: KacstPen
FullName: KacstPen
FamilyName: KacstPen
Weight: Medium
Copyright: KACST holds the copyright of the included Arabic font which is donated under GPL by KACST.
Version: 2.01
ItalicAngle: 0
UnderlinePosition: -900
UnderlineWidth: 100
Ascent: 1638
Descent: 410
InvalidEm: 0
sfntRevision: 0x0002028f
LayerCount: 2
Layer: 0 1 "Back" 1
Layer: 1 1 "Fore" 0
XUID: [1021 737 955873890 10509175]
StyleMap: 0x0000
FSType: 0
OS2Version: 2
OS2_WeightWidthSlopeOnly: 0
OS2_UseTypoMetrics: 0
CreationTime: 1163511077
ModificationTime: 1251639910
PfmFamily: 17
TTFWeight: 500
TTFWidth: 5
LineGap: 59
VLineGap: 0
Panose: 2 0 0 0 0 0 0 0 0 0
OS2TypoAscent: 1600
OS2TypoAOffset: 0
OS2TypoDescent: -600
OS2TypoDOffset: 0
OS2TypoLinegap: 59
OS2WinAscent: 2163
OS2WinAOffset: 0
OS2WinDescent: 1000
OS2WinDOffset: 0
HheadAscent: 1600
HheadAOffset: 0
HheadDescent: -600
HheadDOffset: 0
OS2SubXSize: 1434
OS2SubYSize: 1331
OS2SubXOff: 0
OS2SubYOff: 293
OS2SupXSize: 1434
OS2SupYSize: 1331
OS2SupXOff: 0
OS2SupYOff: 928
OS2StrikeYSize: 102
OS2StrikeYPos: 530
OS2Vendor: 'kcst'
OS2CodePages: 00000040.00000000
OS2UnicodeRanges: 00002000.00000000.00000000.00000000
Lookup: 1 1 0 "'isol' Isolated Forms in Arabic lookup 2" { "'isol' Isolated Forms in Arabic lookup 2 subtable"  } ['isol' ('arab' <'dflt' > ) ]
Lookup: 1 1 0 "'init' Initial Forms in Arabic lookup 3" { "'init' Initial Forms in Arabic lookup 3 subtable"  } ['init' ('arab' <'dflt' > ) ]
Lookup: 1 1 0 "'medi' Medial Forms in Arabic lookup 4" { "'medi' Medial Forms in Arabic lookup 4 subtable"  } ['medi' ('arab' <'dflt' > ) ]
Lookup: 1 1 0 "'fina' Terminal Forms in Arabic lookup 5" { "'fina' Terminal Forms in Arabic lookup 5 subtable"  } ['fina' ('arab' <'dflt' > ) ]
Lookup: 4 1 1 "'liga' Standard Ligatures in Arabic lookup 6" { "'liga' Standard Ligatures in Arabic lookup 6 subtable"  } ['liga' ('arab' <'dflt' > ) ]

StartChar: .notdef
Encoding: 65536 -1 0
Width: 748
Flags: W
LayerCount: 2
Fore
SplineSet
68 0 m 1,0,-1
 68 1365 l 1,1,-1
 612 1365 l 1,2,-1
 612 0 l 1,3,-1
 68 0 l 1,0,-1
136 68 m 1,4,-1
 544 68 l 1,5,-1
 544 1297 l 1,6,-1
 136 1297 l 1,7,-1
 136 68 l 1,4,-1
EndSplineSet
EndChar

StartChar: arabiccomma
Encoding: 1548 1548 4
Width: 403
GlyphClass: 2
Flags: W
LayerCount: 2
Fore
SplineSet
277 379 m 1,0,1
 239 351 239 351 207 314 c 128,-1,2
 175 277 175 277 158.5 241 c 128,-1,3
 142 205 142 205 144 174.5 c 128,-1,4
 146 144 146 144 175 130 c 1,5,-1
 177 131 l 2,6,7
 185 138 185 138 192.5 142.5 c 128,-1,8
 200 147 200 147 207 151 c 2,9,-1
 209 153 l 2,10,11
 213 155 213 155 214 156 c 0,12,13
 219 158 219 158 222.5 159.5 c 128,-1,14
 226 161 226 161 229 163 c 2,15,-1
 234 164 l 1,16,-1
 235 164 l 2,17,18
 237 165 237 165 247 165 c 0,19,20
 254 165 254 165 260 164 c 128,-1,21
 266 163 266 163 271 161 c 0,22,23
 274 160 274 160 278 158 c 0,24,25
 279 157 279 157 280 157 c 0,26,27
 283 155 283 155 285.5 153 c 128,-1,28
 288 151 288 151 291 149 c 0,29,30
 295 145 295 145 296 143 c 0,31,32
 297 142 297 142 297.5 141 c 128,-1,33
 298 140 298 140 299 139 c 256,34,35
 300 138 300 138 302 134 c 0,36,37
 305 130 305 130 309 120 c 2,38,-1
 317 82 l 1,39,-1
 317 79 l 2,40,41
 317 74 317 74 316.5 70.5 c 128,-1,42
 316 67 316 67 315 63 c 0,43,44
 315 59 315 59 313 51 c 0,45,46
 312 49 312 49 312 48 c 2,47,-1
 311 46 l 2,48,49
 311 44 311 44 310 43 c 0,50,51
 310 41 310 41 308 37 c 0,52,53
 307 35 307 35 306.5 33.5 c 128,-1,54
 306 32 306 32 305 30 c 0,55,56
 303 26 303 26 299 20 c 0,57,58
 296 14 296 14 291 9 c 2,59,60
 291 9 291 9 285 3 c 0,61,62
 282 0 282 0 279 -2 c 0,63,64
 277 -3 277 -3 276.5 -3.5 c 128,-1,65
 276 -4 276 -4 274 -5 c 0,66,67
 272 -7 272 -7 269.5 -8.5 c 128,-1,68
 267 -10 267 -10 264 -11 c 0,69,70
 263 -12 263 -12 263 -22 c 256,71,72
 263 -32 263 -32 262 -32 c 2,73,-1
 262 -12 l 2,74,75
 260 -14 260 -14 257 -14.5 c 128,-1,76
 254 -15 254 -15 252 -16 c 0,77,78
 251 -17 251 -17 249 -17 c 2,79,-1
 244 -19 l 1,80,-1
 241 -19 l 2,81,82
 239 -20 239 -20 236 -20 c 0,83,84
 231 -21 231 -21 221 -21 c 2,85,-1
 208 -21 l 1,86,-1
 199 -19 l 2,87,88
 188 -17 188 -17 179 -13 c 2,89,-1
 173 -10 l 2,90,91
 172 -9 172 -9 168 -7 c 0,92,93
 167 -6 167 -6 163 -4 c 0,94,95
 162 -3 162 -3 161 -2.5 c 128,-1,96
 160 -2 160 -2 158 0 c 0,97,98
 140 15 140 15 128 39 c 2,99,-1
 124 50 l 1,100,-1
 124 49 l 1,101,-1
 122 52 l 2,102,103
 120 60 120 60 119 63 c 2,104,-1
 112 88 l 1,105,-1
 111 98 l 2,106,107
 110 100 110 100 110 106 c 0,108,109
 110 107 110 107 109.5 107.5 c 128,-1,110
 109 108 109 108 109 110 c 2,111,-1
 109 143 l 2,112,113
 109 148 109 148 110 151 c 2,114,-1
 110 156 l 1,115,116
 116 193 116 193 132 230 c 128,-1,117
 148 267 148 267 170 300 c 128,-1,118
 192 333 192 333 219.5 360 c 128,-1,119
 247 387 247 387 276 405 c 1,120,-1
 277 379 l 1,0,1
EndSplineSet
EndChar

StartChar: arabicsemicolon
Encoding: 1563 1563 5
Width: 852
GlyphClass: 2
Flags: W
LayerCount: 2
Fore
SplineSet
580 371 m 0,0,1
 580 350 580 350 572.5 330.5 c 128,-1,2
 565 311 565 311 550.5 296.5 c 128,-1,3
 536 282 536 282 515 273 c 128,-1,4
 494 264 494 264 467 264 c 0,5,6
 405 264 405 264 349 335 c 256,7,8
 293 406 293 406 293 500 c 0,9,10
 293 597 293 597 346 668 c 0,11,12
 384 721 384 721 438 749 c 1,13,-1
 469 758 l 1,14,15
 429 732 429 732 398 674 c 1,16,17
 373 618 373 618 373 561 c 0,18,19
 373 506 373 506 406 451 c 1,20,-1
 438 471 l 2,21,22
 448 475 448 475 457.5 477.5 c 128,-1,23
 467 480 467 480 475 481 c 0,24,25
 497 481 497 481 516.5 472 c 128,-1,26
 536 463 536 463 550 448 c 128,-1,27
 564 433 564 433 572 413 c 128,-1,28
 580 393 580 393 580 371 c 0,0,1
539 74 m 0,29,30
 539 56 539 56 532 40.5 c 128,-1,31
 525 25 525 25 513.5 13.5 c 128,-1,32
 502 2 502 2 486.5 -5 c 128,-1,33
 471 -12 471 -12 453 -12 c 0,34,35
 421 -12 421 -12 396 15 c 0,36,37
 371 40 371 40 371 74 c 0,38,39
 371 106 371 106 396 131 c 0,40,41
 421 158 421 158 453 158 c 0,42,43
 486 158 486 158 512 132 c 0,44,45
 539 108 539 108 539 74 c 0,29,30
EndSplineSet
EndChar

StartChar: arabicquestionmark
Encoding: 1567 1567 6
Width: 757
GlyphClass: 2
Flags: W
LayerCount: 2
Fore
SplineSet
404 263 m 1,0,1
 398 364 398 364 371 421 c 0,2,3
 343 479 343 479 223 616 c 0,4,5
 145 705 145 705 119 767 c 0,6,7
 92 831 92 831 92 892 c 0,8,9
 92 982 92 982 152 1056 c 0,10,11
 233 1156 233 1156 406 1156 c 0,12,13
 546 1156 546 1156 626 1083 c 0,14,15
 707 1009 707 1009 707 916 c 0,16,17
 707 885 707 885 699 860.5 c 128,-1,18
 691 836 691 836 678 819.5 c 128,-1,19
 665 803 665 803 648.5 794 c 128,-1,20
 632 785 632 785 614 785 c 0,21,22
 587 785 587 785 567.5 805.5 c 128,-1,23
 548 826 548 826 548 856 c 0,24,25
 548 880 548 880 573 924 c 256,26,27
 598 968 598 968 598 1000 c 0,28,29
 598 1040 598 1040 556 1075 c 0,30,31
 516 1109 516 1109 442 1109 c 0,32,33
 360 1109 360 1109 303 1046 c 0,34,35
 247 984 247 984 247 877 c 0,36,37
 247 826 247 826 262 775 c 0,38,39
 270 749 270 749 286 713.5 c 128,-1,40
 302 678 302 678 327 630 c 0,41,42
 359 568 359 568 380.5 520.5 c 128,-1,43
 402 473 402 473 412 438 c 0,44,45
 434 367 434 367 438 263 c 1,46,-1
 404 263 l 1,0,1
416 160 m 0,47,48
 435 160 435 160 452 152.5 c 128,-1,49
 469 145 469 145 481.5 132.5 c 128,-1,50
 494 120 494 120 501.5 102.5 c 128,-1,51
 509 85 509 85 509 66 c 0,52,53
 509 46 509 46 501.5 29.5 c 128,-1,54
 494 13 494 13 481.5 0 c 128,-1,55
 469 -13 469 -13 452 -20 c 128,-1,56
 435 -27 435 -27 416 -27 c 0,57,58
 377 -27 377 -27 349.5 0 c 128,-1,59
 322 27 322 27 322 66 c 256,60,61
 322 105 322 105 349 132.5 c 128,-1,62
 376 160 376 160 416 160 c 0,47,48
EndSplineSet
EndChar

StartChar: hamza
Encoding: 1569 1569 7
Width: 767
GlyphClass: 2
Flags: W
AnchorPoint: "ArabicBelow" 383 -385 basechar 0
AnchorPoint: "ArabicAbove" 383 694 basechar 0
LayerCount: 2
Fore
SplineSet
561 40 m 1,0,1
 516 44 516 44 426.5 26 c 128,-1,2
 337 8 337 8 272.5 -24.5 c 128,-1,3
 208 -57 208 -57 104 -127 c 1,4,-1
 91 -135 l 1,5,6
 91 -126 91 -126 121 -86.5 c 128,-1,7
 151 -47 151 -47 183.5 -22 c 128,-1,8
 216 3 216 3 282 41 c 1,9,-1
 278 53 l 1,10,11
 157 67 157 67 144 73 c 0,12,13
 77 93 77 93 70 136 c 0,14,15
 55 227 55 227 145 340 c 1,16,17
 235 444 235 444 398 444 c 0,18,19
 433 444 433 444 468 417 c 1,20,21
 504 382 504 382 504 350 c 1,22,-1
 445 273 l 1,23,-1
 413 297 l 2,24,25
 384 316 384 316 352.5 326.5 c 128,-1,26
 321 337 321 337 305 337 c 0,27,28
 265 340 265 340 220.5 317.5 c 128,-1,29
 176 295 176 295 168 245 c 1,30,31
 168 198 168 198 308 172 c 1,32,-1
 459 156 l 1,33,-1
 554 151 l 1,34,-1
 634 151 l 1,35,-1
 561 40 l 1,0,1
EndSplineSet
Substitution2: "'isol' Isolated Forms in Arabic lookup 2 subtable" hamzaisolated
EndChar

StartChar: alefwithmaddaabove
Encoding: 1570 1570 8
Width: 330
GlyphClass: 2
Flags: W
AnchorPoint: "ArabicBelow" 165 -283 basechar 0
AnchorPoint: "ArabicAbove" 165 1468 basechar 0
LayerCount: 2
Fore
SplineSet
343 1215 m 2,0,1
 344 1216 344 1216 351 1218 c 1,2,-1
 315 1176 l 1,3,4
 232 1116 232 1116 183 1116 c 0,5,6
 133 1116 133 1116 96 1126 c 1,7,-1
 71 1136 l 1,8,-1
 34 1158 l 1,9,-1
 17 1153 l 1,10,11
 12 1143 12 1143 6 1132 c 128,-1,12
 0 1121 0 1121 -10 1107 c 1,13,-1
 -10 1106 l 1,14,15
 -23 1088 -23 1088 -28 1083 c 2,16,-1
 16 1176 l 1,17,-1
 37 1213 l 1,18,19
 45 1208 45 1208 59.5 1201.5 c 128,-1,20
 74 1195 74 1195 91 1187 c 2,21,-1
 143 1169 l 2,22,23
 167 1163 167 1163 190 1163 c 0,24,25
 237 1163 237 1163 342 1215 c 1,26,-1
 343 1215 l 2,0,1
243 297 m 0,27,28
 243 231 243 231 234.5 174.5 c 128,-1,29
 226 118 226 118 209 67 c 1,30,31
 195 5 195 5 172 -33 c 1,32,-1
 84 883 l 2,33,34
 84 889 84 889 96.5 914.5 c 128,-1,35
 109 940 109 940 137 985 c 1,36,-1
 192 1094 l 1,37,-1
 212 932 l 2,38,39
 223 856 223 856 234 625 c 128,-1,40
 245 394 245 394 243 297 c 0,27,28
EndSplineSet
Substitution2: "'fina' Terminal Forms in Arabic lookup 5 subtable" alefwithmaddaabovefinal
Substitution2: "'isol' Isolated Forms in Arabic lookup 2 subtable" alefwithmaddaaboveisolated
EndChar

StartChar: alefwithhamzaabove
Encoding: 1571 1571 9
Width: 329
GlyphClass: 2
Flags: W
AnchorPoint: "ArabicBelow" 164 -283 basechar 0
AnchorPoint: "ArabicAbove" 164 1555 basechar 0
LayerCount: 2
Fore
SplineSet
259 1120 m 1,0,-1
 209 1115 l 2,1,2
 171 1111 171 1111 109 1072 c 2,3,-1
 56 1037 l 2,4,5
 55 1039 55 1039 55 1043 c 0,6,7
 55 1062 55 1062 87 1088 c 2,8,-1
 126 1120 l 1,9,-1
 93 1123 l 1,10,-1
 77 1126 l 1,11,-1
 59 1132 l 2,12,13
 30 1140 30 1140 30 1155 c 0,14,15
 30 1196 30 1196 71 1247 c 0,16,17
 117 1305 117 1305 178 1305 c 0,18,19
 194 1305 194 1305 204 1295.5 c 128,-1,20
 214 1286 214 1286 218 1271 c 1,21,-1
 213 1257 l 2,22,23
 210 1248 210 1248 207 1245 c 0,24,25
 202 1234 202 1234 195 1226 c 1,26,27
 180 1256 180 1256 143 1256 c 0,28,29
 116 1256 116 1256 97 1246.5 c 128,-1,30
 78 1237 78 1237 69 1217 c 1,31,-1
 68 1209 l 2,32,33
 68 1193 68 1193 99 1186 c 2,34,-1
 144 1176 l 1,35,-1
 288 1176 l 1,36,-1
 259 1120 l 1,0,-1
233 297 m 0,37,38
 233 231 233 231 224.5 174.5 c 128,-1,39
 216 118 216 118 199 67 c 1,40,41
 185 5 185 5 162 -33 c 1,42,-1
 74 883 l 2,43,44
 74 889 74 889 86.5 914.5 c 128,-1,45
 99 940 99 940 127 985 c 1,46,-1
 182 1094 l 1,47,-1
 202 932 l 2,48,49
 213 856 213 856 224 625 c 128,-1,50
 235 394 235 394 233 297 c 0,37,38
EndSplineSet
Substitution2: "'fina' Terminal Forms in Arabic lookup 5 subtable" alefwithhamzaabovefinal
Substitution2: "'isol' Isolated Forms in Arabic lookup 2 subtable" alefwithhamzaaboveisolated
EndChar

StartChar: wawwithhamzaabove
Encoding: 1572 1572 10
Width: 842
GlyphClass: 2
Flags: W
AnchorPoint: "ArabicBelow" 421 -678 basechar 0
AnchorPoint: "ArabicAbove" 421 1163 basechar 0
LayerCount: 2
Fore
SplineSet
673 256 m 0,0,1
 673 309 673 309 635 347 c 0,2,3
 595 385 595 385 553 385 c 0,4,5
 514 385 514 385 471 357 c 0,6,7
 451 343 451 343 439 325.5 c 128,-1,8
 427 308 427 308 423 298 c 0,9,10
 421 290 421 290 421 285 c 2,11,-1
 422 275 l 2,12,13
 425 264 425 264 457 238 c 1,14,15
 480 225 480 225 497.5 218.5 c 128,-1,16
 515 212 515 212 527.5 210 c 128,-1,17
 540 208 540 208 548 207.5 c 128,-1,18
 556 207 556 207 559 206 c 2,19,-1
 562 206 l 2,20,21
 569 206 569 206 581 206.5 c 128,-1,22
 593 207 593 207 609 212 c 0,23,24
 625 219 625 219 636.5 222.5 c 128,-1,25
 648 226 648 226 655.5 230 c 128,-1,26
 663 234 663 234 667 239.5 c 128,-1,27
 671 245 671 245 673 256 c 0,0,1
818 217 m 0,28,29
 818 114 818 114 795 9 c 128,-1,30
 772 -96 772 -96 724 -197 c 0,31,32
 616 -428 616 -428 468 -428 c 0,33,34
 438 -428 438 -428 407 -425 c 128,-1,35
 376 -422 376 -422 344 -417 c 0,36,37
 314 -412 314 -412 276.5 -402.5 c 128,-1,38
 239 -393 239 -393 191 -379 c 0,39,40
 11 -336 11 -336 11 -309 c 1,41,-1
 27 -309 l 1,42,-1
 54 -312 l 1,43,-1
 206 -342 l 1,44,-1
 256 -346 l 2,45,46
 284 -346 284 -346 309 -341 c 128,-1,47
 334 -336 334 -336 357 -325 c 0,48,49
 429 -295 429 -295 497.5 -244.5 c 128,-1,50
 566 -194 566 -194 626 -128 c 256,51,52
 686 -62 686 -62 720 1.5 c 128,-1,53
 754 65 754 65 754 119 c 0,54,55
 754 143 754 143 747 177 c 0,56,57
 745 182 745 182 741.5 192 c 128,-1,58
 738 202 738 202 733 216 c 1,59,-1
 711 216 l 1,60,-1
 702 188 l 1,61,62
 682 146 682 146 668 120.5 c 128,-1,63
 654 95 654 95 646 81 c 0,64,65
 607 27 607 27 502 27 c 0,66,67
 437 27 437 27 396 83 c 0,68,69
 391 91 391 91 386.5 102.5 c 128,-1,70
 382 114 382 114 380 122 c 0,71,72
 378 131 378 131 374.5 163 c 128,-1,73
 371 195 371 195 371 237 c 0,74,75
 371 299 371 299 468 440 c 0,76,77
 516 509 516 509 556 544 c 128,-1,78
 596 579 596 579 631 579 c 0,79,80
 680 579 680 579 748 459 c 0,81,82
 781 399 781 399 799.5 339.5 c 128,-1,83
 818 280 818 280 818 217 c 0,28,29
604 711 m 1,84,-1
 550 705 l 2,85,86
 507 701 507 701 440 658 c 2,87,-1
 382 620 l 2,88,89
 381 622 381 622 381 626 c 0,90,91
 381 644 381 644 416 676 c 2,92,-1
 459 711 l 1,93,-1
 423 714 l 1,94,-1
 405 717 l 1,95,-1
 386 724 l 2,96,97
 354 732 354 732 354 749 c 0,98,99
 354 791 354 791 398 850 c 0,100,101
 450 913 450 913 516 913 c 0,102,103
 533 913 533 913 544 902.5 c 128,-1,104
 555 892 555 892 559 876 c 1,105,-1
 554 861 l 2,106,107
 551 851 551 851 547 847 c 0,108,109
 541 834 541 834 534 827 c 1,110,111
 517 859 517 859 477 859 c 0,112,113
 416 859 416 859 397 817 c 1,114,-1
 395 808 l 2,115,116
 395 790 395 790 429 783 c 2,117,-1
 479 772 l 1,118,-1
 636 772 l 1,119,-1
 604 711 l 1,84,-1
EndSplineSet
Substitution2: "'fina' Terminal Forms in Arabic lookup 5 subtable" wawwithhamzaabovefinal
Substitution2: "'isol' Isolated Forms in Arabic lookup 2 subtable" wawwithhamzaaboveisolated
EndChar

StartChar: alefwithhamzabelow
Encoding: 1573 1573 11
Width: 434
GlyphClass: 2
Flags: W
AnchorPoint: "ArabicBelow" 217 -543 basechar 0
AnchorPoint: "ArabicAbove" 217 1344 basechar 0
LayerCount: 2
Fore
SplineSet
329 -170 m 1,0,-1
 202 -170 l 1,1,-1
 161 -161 l 2,2,3
 133 -154 133 -154 133 -140 c 2,4,-1
 135 -133 l 1,5,6
 151 -99 151 -99 200 -99 c 0,7,8
 232 -99 232 -99 246 -125 c 1,9,10
 253 -118 253 -118 257 -109 c 0,11,12
 261 -103 261 -103 262 -97 c 2,13,-1
 266 -85 l 1,14,15
 263 -72 263 -72 254 -63.5 c 128,-1,16
 245 -55 245 -55 232 -55 c 0,17,18
 178 -55 178 -55 136 -106 c 0,19,20
 100 -153 100 -153 100 -188 c 0,21,22
 100 -203 100 -203 126 -209 c 2,23,-1
 141 -214 l 1,24,-1
 156 -217 l 1,25,-1
 185 -219 l 1,26,-1
 150 -248 l 2,27,28
 122 -272 122 -272 122 -287 c 0,29,30
 122 -291 122 -291 123 -293 c 2,31,-1
 170 -262 l 2,32,33
 221 -229 221 -229 259 -224 c 2,34,-1
 303 -219 l 1,35,-1
 329 -170 l 1,0,-1
303 297 m 0,36,37
 303 231 303 231 294.5 174.5 c 128,-1,38
 286 118 286 118 269 67 c 1,39,40
 255 5 255 5 232 -33 c 1,41,-1
 144 883 l 2,42,43
 144 889 144 889 156.5 914.5 c 128,-1,44
 169 940 169 940 197 985 c 1,45,-1
 252 1094 l 1,46,-1
 272 932 l 2,47,48
 283 856 283 856 294 625 c 128,-1,49
 305 394 305 394 303 297 c 0,36,37
EndSplineSet
Substitution2: "'fina' Terminal Forms in Arabic lookup 5 subtable" alefwithhamzabelowfinal
Substitution2: "'isol' Isolated Forms in Arabic lookup 2 subtable" alefwithhamzabelowisolated
EndChar

StartChar: yehwithhamzaabove
Encoding: 1574 1574 12
Width: 1098
GlyphClass: 2
Flags: W
AnchorPoint: "ArabicBelow" 549 -595 basechar 0
AnchorPoint: "ArabicAbove" 549 1139 basechar 0
LayerCount: 2
Fore
SplineSet
398 687 m 1,0,-1
 344 681 l 2,1,2
 301 677 301 677 234 634 c 2,3,-1
 176 596 l 2,4,5
 175 598 175 598 175 602 c 0,6,7
 175 620 175 620 210 652 c 2,8,-1
 253 687 l 1,9,-1
 217 690 l 1,10,-1
 199 693 l 1,11,-1
 180 700 l 2,12,13
 148 708 148 708 148 725 c 0,14,15
 148 767 148 767 192 826 c 0,16,17
 244 889 244 889 310 889 c 0,18,19
 327 889 327 889 338 878.5 c 128,-1,20
 349 868 349 868 353 852 c 1,21,-1
 348 837 l 2,22,23
 345 827 345 827 341 823 c 0,24,25
 335 810 335 810 328 803 c 1,26,27
 311 835 311 835 271 835 c 0,28,29
 210 835 210 835 191 793 c 1,30,-1
 189 784 l 2,31,32
 189 766 189 766 223 759 c 2,33,-1
 273 748 l 1,34,-1
 430 748 l 1,35,-1
 398 687 l 1,0,-1
1052 426 m 1,36,-1
 1046 455 l 2,37,38
 1028 527 1028 527 945 527 c 0,39,40
 855 527 855 527 743 443 c 0,41,42
 628 359 628 359 628 293 c 0,43,44
 624 211 624 211 829 187 c 1,45,46
 1015 171 1015 171 1015 99 c 0,47,48
 1012 67 1012 67 1005 39 c 128,-1,49
 998 11 998 11 989 -12 c 2,50,-1
 943 -127 l 2,51,52
 930 -156 930 -156 846 -206 c 128,-1,53
 762 -256 762 -256 656 -295.5 c 128,-1,54
 550 -335 550 -335 387 -345 c 1,55,56
 13 -345 13 -345 13 -96 c 0,57,58
 13 -15 13 -15 27 66.5 c 128,-1,59
 41 148 41 148 70 229 c 1,60,61
 133 370 133 370 147 370 c 1,62,63
 146 370 146 370 146 348 c 0,64,65
 146 334 146 334 136.5 299.5 c 128,-1,66
 127 265 127 265 110 208 c 0,67,68
 91 148 91 148 81.5 106.5 c 128,-1,69
 72 65 72 65 72 37 c 0,70,71
 72 -70 72 -70 194 -135 c 1,72,73
 297 -179 297 -179 426 -179 c 0,74,75
 467 -176 467 -176 504 -171.5 c 128,-1,76
 541 -167 541 -167 575.5 -160 c 128,-1,77
 610 -153 610 -153 643.5 -145 c 128,-1,78
 677 -137 677 -137 712 -127 c 0,79,80
 781 -107 781 -107 830.5 -88.5 c 128,-1,81
 880 -70 880 -70 909 -48 c 1,82,-1
 914 -38 l 1,83,84
 914 24 914 24 710 47 c 0,85,86
 529 68 529 68 529 138 c 0,87,88
 529 278 529 278 662 471 c 1,89,90
 821 692 821 692 993 692 c 0,91,92
 1011 692 1011 692 1023 691 c 128,-1,93
 1035 690 1035 690 1043.5 688 c 128,-1,94
 1052 686 1052 686 1058.5 682.5 c 128,-1,95
 1065 679 1065 679 1073 674 c 0,96,97
 1097 660 1097 660 1097 623 c 1,98,-1
 1059 454 l 1,99,-1
 1052 426 l 1,36,-1
EndSplineSet
Substitution2: "'fina' Terminal Forms in Arabic lookup 5 subtable" yehwithhamzaabovefinal
Substitution2: "'medi' Medial Forms in Arabic lookup 4 subtable" yehwithhamzaabovemedial
Substitution2: "'init' Initial Forms in Arabic lookup 3 subtable" yehwithhamzaaboveinitial
Substitution2: "'isol' Isolated Forms in Arabic lookup 2 subtable" yehwithhamzaaboveisolated
EndChar

StartChar: arabicalef
Encoding: 1575 1575 13
Width: 442
GlyphClass: 2
Flags: W
AnchorPoint: "ArabicBelow" 221 -283 basechar 0
AnchorPoint: "ArabicAbove" 221 1344 basechar 0
LayerCount: 2
Fore
SplineSet
363 297 m 0,0,1
 363 231 363 231 354.5 174.5 c 128,-1,2
 346 118 346 118 329 67 c 1,3,4
 315 5 315 5 292 -33 c 1,5,-1
 204 883 l 2,6,7
 204 889 204 889 216.5 914.5 c 128,-1,8
 229 940 229 940 257 985 c 1,9,-1
 312 1094 l 1,10,-1
 332 932 l 2,11,12
 343 856 343 856 354 625 c 128,-1,13
 365 394 365 394 363 297 c 0,0,1
EndSplineSet
Substitution2: "'fina' Terminal Forms in Arabic lookup 5 subtable" aleffinal
Substitution2: "'isol' Isolated Forms in Arabic lookup 2 subtable" alefisolated
EndChar

StartChar: beh
Encoding: 1576 1576 14
Width: 1159
GlyphClass: 2
Flags: W
AnchorPoint: "ArabicBelow" 579 -699 basechar 0
AnchorPoint: "ArabicAbove" 579 830 basechar 0
LayerCount: 2
Fore
SplineSet
587 -226 m 1,0,-1
 495 -354 l 1,1,-1
 627 -449 l 1,2,-1
 722 -321 l 1,3,-1
 587 -226 l 1,0,-1
1054 131 m 0,4,5
 1012 13 1012 13 1000 0 c 1,6,7
 808 0 808 0 663 0 c 256,8,9
 518 0 518 0 416 0 c 0,10,11
 313 0 313 0 256 0 c 0,12,13
 200 0 200 0 187 1 c 0,14,15
 135 4 135 4 96 31 c 0,16,17
 76 45 76 45 60.5 59 c 128,-1,18
 45 73 45 73 32 87 c 0,19,20
 7 115 7 115 7 197 c 0,21,22
 7 220 7 220 9.5 247 c 128,-1,23
 12 274 12 274 17 303 c 0,24,25
 28 364 28 364 56 466 c 0,26,27
 85 570 85 570 105 570 c 0,28,29
 106 568 106 568 106 560 c 0,30,31
 106 537 106 537 97 476 c 0,32,33
 92 434 92 434 89 408 c 128,-1,34
 86 382 86 382 86 369 c 0,35,36
 86 344 86 344 92 281 c 0,37,38
 95 269 95 269 98.5 259 c 128,-1,39
 102 249 102 249 106 241 c 0,40,41
 112 228 112 228 150 186 c 0,42,43
 186 146 186 146 317 146 c 2,44,-1
 976 146 l 2,45,46
 983 149 983 149 992.5 156 c 128,-1,47
 1002 163 1002 163 1002 177 c 256,48,49
 1002 191 1002 191 996 271 c 0,50,51
 992 309 992 309 943 381 c 2,52,-1
 918 418 l 1,53,-1
 1011 580 l 1,54,-1
 1061 502 l 1,55,56
 1083 459 1083 459 1092 428 c 0,57,58
 1101 401 1101 401 1101 356 c 2,59,-1
 1101 343 l 2,60,61
 1100 317 1100 317 1097.5 292.5 c 128,-1,62
 1095 268 1095 268 1090 245 c 0,63,64
 1081 200 1081 200 1054 131 c 0,4,5
EndSplineSet
Substitution2: "'fina' Terminal Forms in Arabic lookup 5 subtable" behfinal
Substitution2: "'medi' Medial Forms in Arabic lookup 4 subtable" behmedial
Substitution2: "'init' Initial Forms in Arabic lookup 3 subtable" behinitial
Substitution2: "'isol' Isolated Forms in Arabic lookup 2 subtable" behisolated
EndChar

StartChar: tehmarbuta
Encoding: 1577 1577 15
Width: 582
GlyphClass: 2
Flags: W
AnchorPoint: "ArabicBelow" 291 -268 basechar 0
AnchorPoint: "ArabicAbove" 291 1221 basechar 0
LayerCount: 2
Fore
SplineSet
285 884 m 1,0,-1
 198 766 l 1,1,-1
 76 853 l 1,2,-1
 161 971 l 1,3,-1
 285 884 l 1,0,-1
465 884 m 1,4,-1
 378 766 l 1,5,-1
 256 853 l 1,6,-1
 341 971 l 1,7,-1
 465 884 l 1,4,-1
436 179 m 1,8,9
 436 219 436 219 360 309 c 0,10,11
 281 399 281 399 263 399 c 1,12,-1
 201 318 l 1,13,14
 165 260 165 260 159 233 c 1,15,16
 159 187 159 187 190 165 c 0,17,18
 210 150 210 150 256 150 c 0,19,20
 291 150 291 150 318.5 152.5 c 128,-1,21
 346 155 346 155 369 159 c 2,22,-1
 428 169 l 1,23,-1
 436 179 l 1,8,9
482 134 m 1,24,25
 452 82 452 82 426 58 c 128,-1,26
 400 34 400 34 319.5 7 c 128,-1,27
 239 -20 239 -20 181.5 -18.5 c 128,-1,28
 124 -17 124 -17 77.5 -3 c 128,-1,29
 31 11 31 11 27.5 59 c 128,-1,30
 24 107 24 107 42 162.5 c 128,-1,31
 60 218 60 218 98 278 c 0,32,33
 217 471 217 471 249.5 516 c 128,-1,34
 282 561 282 561 300 594 c 1,35,-1
 478 447 l 1,36,-1
 499 417 l 1,37,-1
 519 380 l 1,38,39
 532 346 532 346 532 302 c 1,40,-1
 529 274 l 1,41,-1
 521 245 l 1,42,-1
 482 134 l 1,24,25
EndSplineSet
Substitution2: "'fina' Terminal Forms in Arabic lookup 5 subtable" tehmarbutafinal
Substitution2: "'isol' Isolated Forms in Arabic lookup 2 subtable" tehmarbutaisolated
EndChar

StartChar: teh
Encoding: 1578 1578 16
Width: 1132
GlyphClass: 2
Flags: W
AnchorPoint: "ArabicBelow" 566 -250 basechar 0
AnchorPoint: "ArabicAbove" 566 1160 basechar 0
LayerCount: 2
Fore
SplineSet
734 823 m 1,0,-1
 647 705 l 1,1,-1
 525 792 l 1,2,-1
 610 910 l 1,3,-1
 734 823 l 1,0,-1
554 823 m 1,4,-1
 467 705 l 1,5,-1
 345 792 l 1,6,-1
 430 910 l 1,7,-1
 554 823 l 1,4,-1
1054 131 m 0,8,9
 1012 13 1012 13 1000 0 c 1,10,11
 808 0 808 0 663 0 c 256,12,13
 518 0 518 0 416 0 c 0,14,15
 313 0 313 0 256 0 c 0,16,17
 200 0 200 0 187 1 c 0,18,19
 135 4 135 4 96 31 c 0,20,21
 76 45 76 45 60.5 59 c 128,-1,22
 45 73 45 73 32 87 c 0,23,24
 7 115 7 115 7 197 c 0,25,26
 7 220 7 220 9.5 247 c 128,-1,27
 12 274 12 274 17 303 c 0,28,29
 28 364 28 364 56 466 c 0,30,31
 85 570 85 570 105 570 c 0,32,33
 106 568 106 568 106 560 c 0,34,35
 106 537 106 537 97 476 c 0,36,37
 92 434 92 434 89 408 c 128,-1,38
 86 382 86 382 86 369 c 0,39,40
 86 344 86 344 92 281 c 0,41,42
 95 269 95 269 98.5 259 c 128,-1,43
 102 249 102 249 106 241 c 0,44,45
 112 228 112 228 150 186 c 0,46,47
 186 146 186 146 317 146 c 2,48,-1
 976 146 l 2,49,50
 983 149 983 149 992.5 156 c 128,-1,51
 1002 163 1002 163 1002 177 c 256,52,53
 1002 191 1002 191 996 271 c 0,54,55
 992 309 992 309 943 381 c 2,56,-1
 918 418 l 1,57,-1
 1011 580 l 1,58,-1
 1061 502 l 1,59,60
 1083 459 1083 459 1092 428 c 0,61,62
 1101 401 1101 401 1101 356 c 2,63,-1
 1101 343 l 2,64,65
 1100 317 1100 317 1097.5 292.5 c 128,-1,66
 1095 268 1095 268 1090 245 c 0,67,68
 1081 200 1081 200 1054 131 c 0,8,9
EndSplineSet
Substitution2: "'fina' Terminal Forms in Arabic lookup 5 subtable" tehfinal
Substitution2: "'medi' Medial Forms in Arabic lookup 4 subtable" tehmedial
Substitution2: "'init' Initial Forms in Arabic lookup 3 subtable" tehinitial
Substitution2: "'isol' Isolated Forms in Arabic lookup 2 subtable" tehisolated
EndChar

StartChar: theh
Encoding: 1579 1579 17
Width: 1132
GlyphClass: 2
Flags: W
AnchorPoint: "ArabicBelow" 566 -250 basechar 0
AnchorPoint: "ArabicAbove" 566 1168 basechar 0
LayerCount: 2
Fore
SplineSet
633 845 m 1,0,-1
 560 746 l 1,1,-1
 457 819 l 1,2,-1
 529 918 l 1,3,-1
 633 845 l 1,0,-1
572 636 m 1,4,-1
 485 518 l 1,5,-1
 363 605 l 1,6,-1
 448 723 l 1,7,-1
 572 636 l 1,4,-1
752 636 m 1,8,-1
 665 518 l 1,9,-1
 543 605 l 1,10,-1
 628 723 l 1,11,-1
 752 636 l 1,8,-1
1054 131 m 0,12,13
 1012 13 1012 13 1000 1 c 1,14,15
 808 0 808 0 663 0 c 256,16,17
 518 0 518 0 416 0 c 0,18,19
 313 0 313 0 256 0 c 0,20,21
 200 0 200 0 187 1 c 0,22,23
 135 4 135 4 96 31 c 0,24,25
 76 45 76 45 60.5 59 c 128,-1,26
 45 73 45 73 32 87 c 0,27,28
 7 115 7 115 7 197 c 0,29,30
 7 220 7 220 9.5 247 c 128,-1,31
 12 274 12 274 17 303 c 0,32,33
 28 364 28 364 56 466 c 0,34,35
 85 570 85 570 105 570 c 0,36,37
 106 568 106 568 106 560 c 0,38,39
 106 537 106 537 97 476 c 0,40,41
 92 434 92 434 89 408 c 128,-1,42
 86 382 86 382 86 369 c 0,43,44
 86 344 86 344 89 320 c 2,45,-1
 99 280 l 2,46,47
 112 228 112 228 150 186 c 0,48,49
 186 146 186 146 317 146 c 2,50,-1
 976 146 l 2,51,52
 983 149 983 149 992.5 156 c 128,-1,53
 1002 163 1002 163 1002 216 c 0,54,55
 1002 230 1002 230 996 271 c 0,56,57
 992 309 992 309 943 381 c 2,58,-1
 918 418 l 1,59,-1
 1011 580 l 1,60,-1
 1061 502 l 1,61,62
 1083 459 1083 459 1092 428 c 0,63,64
 1101 401 1101 401 1101 356 c 2,65,-1
 1101 343 l 2,66,67
 1100 317 1100 317 1097.5 292.5 c 128,-1,68
 1095 268 1095 268 1090 245 c 0,69,70
 1081 200 1081 200 1054 131 c 0,12,13
EndSplineSet
Substitution2: "'fina' Terminal Forms in Arabic lookup 5 subtable" thehfinal
Substitution2: "'medi' Medial Forms in Arabic lookup 4 subtable" thehmedial
Substitution2: "'init' Initial Forms in Arabic lookup 3 subtable" thehinitial
Substitution2: "'isol' Isolated Forms in Arabic lookup 2 subtable" thehisolated
EndChar

StartChar: jeem
Encoding: 1580 1580 18
Width: 901
GlyphClass: 2
Flags: W
AnchorPoint: "ArabicBelow" 450 -892 basechar 0
AnchorPoint: "ArabicAbove" 450 794 basechar 0
LayerCount: 2
Fore
SplineSet
651 -151 m 2,0,1
 652 -150 652 -150 652 -148 c 2,2,-1
 654 -154 l 1,3,-1
 651 -151 l 2,0,1
656 -149 m 1,4,-1
 561 -277 l 1,5,-1
 429 -182 l 1,6,-1
 521 -54 l 1,7,-1
 656 -149 l 1,4,-1
651 -151 m 2,8,9
 652 -150 652 -150 652 -148 c 2,10,-1
 654 -154 l 1,11,-1
 651 -151 l 2,8,9
936 -535 m 1,12,13
 921 -552 921 -552 895 -570 c 128,-1,14
 869 -588 869 -588 830 -604 c 1,15,16
 703 -642 703 -642 521 -642 c 0,17,18
 313 -642 313 -642 189 -536 c 256,19,20
 65 -430 65 -430 65 -271 c 0,21,22
 65 -195 65 -195 83.5 -106.5 c 128,-1,23
 102 -18 102 -18 141 62 c 0,24,25
 207 198 207 198 348 325 c 1,26,-1
 348 346 l 1,27,28
 325 352 325 352 307.5 358 c 128,-1,29
 290 364 290 364 272 366 c 2,30,-1
 224 372 l 1,31,-1
 167 372 l 2,32,33
 121 372 121 372 78 340 c 0,34,35
 52 317 52 317 41 316 c 1,36,-1
 73 428 l 2,37,38
 100 536 100 536 197.5 543.5 c 128,-1,39
 295 551 295 551 424 506 c 1,40,41
 491 487 491 487 551.5 475 c 128,-1,42
 612 463 612 463 663.5 456.5 c 128,-1,43
 715 450 715 450 757 447 c 128,-1,44
 799 444 799 444 830 442 c 1,45,-1
 774 326 l 1,46,47
 747 325 747 325 715.5 321 c 128,-1,48
 684 317 684 317 631 306 c 0,49,50
 605 301 605 301 578 295 c 128,-1,51
 551 289 551 289 523 281 c 1,52,-1
 522 282 l 1,53,-1
 434 250 l 2,54,55
 373 226 373 226 321.5 184 c 128,-1,56
 270 142 270 142 224 73 c 0,57,58
 134 -61 134 -61 134 -171 c 0,59,60
 134 -303 134 -303 247 -395 c 0,61,62
 286 -429 286 -429 352 -456 c 0,63,64
 384 -470 384 -470 410.5 -479.5 c 128,-1,65
 437 -489 437 -489 457 -494 c 0,66,67
 478 -499 478 -499 511.5 -504.5 c 128,-1,68
 545 -510 545 -510 592 -516 c 0,69,70
 640 -522 640 -522 687.5 -526 c 128,-1,71
 735 -530 735 -530 785 -535 c 1,72,-1
 936 -535 l 1,12,13
EndSplineSet
Substitution2: "'fina' Terminal Forms in Arabic lookup 5 subtable" jeemfinal
Substitution2: "'medi' Medial Forms in Arabic lookup 4 subtable" jeemmedial
Substitution2: "'init' Initial Forms in Arabic lookup 3 subtable" jeeminitial
Substitution2: "'isol' Isolated Forms in Arabic lookup 2 subtable" jeemisolated
EndChar

StartChar: hah
Encoding: 1581 1581 19
Width: 901
GlyphClass: 2
Flags: W
AnchorPoint: "ArabicBelow" 450 -892 basechar 0
AnchorPoint: "ArabicAbove" 450 794 basechar 0
LayerCount: 2
Fore
SplineSet
936 -535 m 1,0,1
 921 -552 921 -552 895 -570 c 128,-1,2
 869 -588 869 -588 830 -604 c 1,3,4
 703 -642 703 -642 521 -642 c 0,5,6
 313 -642 313 -642 189 -536 c 256,7,8
 65 -430 65 -430 65 -271 c 0,9,10
 65 -195 65 -195 83.5 -106.5 c 128,-1,11
 102 -18 102 -18 141 62 c 0,12,13
 207 198 207 198 348 325 c 1,14,-1
 348 346 l 1,15,16
 325 352 325 352 307.5 358 c 128,-1,17
 290 364 290 364 272 366 c 2,18,-1
 224 372 l 1,19,-1
 167 372 l 2,20,21
 121 372 121 372 78 340 c 0,22,23
 52 317 52 317 41 316 c 1,24,-1
 73 428 l 2,25,26
 100 536 100 536 197.5 543.5 c 128,-1,27
 295 551 295 551 424 506 c 1,28,29
 491 487 491 487 551.5 475 c 128,-1,30
 612 463 612 463 663.5 456.5 c 128,-1,31
 715 450 715 450 757 447 c 128,-1,32
 799 444 799 444 830 442 c 1,33,-1
 774 326 l 1,34,35
 747 325 747 325 715.5 321 c 128,-1,36
 684 317 684 317 631 306 c 0,37,38
 605 301 605 301 578 295 c 128,-1,39
 551 289 551 289 523 281 c 1,40,-1
 522 282 l 1,41,-1
 434 250 l 2,42,43
 373 226 373 226 321.5 184 c 128,-1,44
 270 142 270 142 224 73 c 0,45,46
 134 -61 134 -61 134 -171 c 0,47,48
 134 -303 134 -303 247 -395 c 0,49,50
 286 -429 286 -429 352 -456 c 0,51,52
 384 -470 384 -470 410.5 -479.5 c 128,-1,53
 437 -489 437 -489 457 -494 c 0,54,55
 478 -499 478 -499 511.5 -504.5 c 128,-1,56
 545 -510 545 -510 592 -516 c 0,57,58
 640 -522 640 -522 687.5 -526 c 128,-1,59
 735 -530 735 -530 785 -535 c 1,60,-1
 936 -535 l 1,0,1
EndSplineSet
Substitution2: "'fina' Terminal Forms in Arabic lookup 5 subtable" hahfinal
Substitution2: "'medi' Medial Forms in Arabic lookup 4 subtable" hahmedial
Substitution2: "'init' Initial Forms in Arabic lookup 3 subtable" hahinitial
Substitution2: "'isol' Isolated Forms in Arabic lookup 2 subtable" hahisolated
EndChar

StartChar: khah
Encoding: 1582 1582 20
Width: 901
GlyphClass: 2
Flags: W
AnchorPoint: "ArabicBelow" 450 -922 basechar 0
AnchorPoint: "ArabicAbove" 450 1207 basechar 0
LayerCount: 2
Fore
SplineSet
936 -535 m 1,0,1
 921 -552 921 -552 895 -570 c 128,-1,2
 869 -588 869 -588 830 -608 c 0,3,4
 703 -672 703 -672 521 -672 c 0,5,6
 313 -672 313 -672 189 -566 c 256,7,8
 65 -460 65 -460 65 -301 c 0,9,10
 65 -195 65 -195 83.5 -106.5 c 128,-1,11
 102 -18 102 -18 141 62 c 0,12,13
 207 198 207 198 348 325 c 1,14,-1
 348 346 l 1,15,16
 325 352 325 352 307.5 358 c 128,-1,17
 290 364 290 364 272 366 c 2,18,-1
 224 372 l 1,19,-1
 167 372 l 2,20,21
 121 372 121 372 78 340 c 0,22,23
 52 317 52 317 41 316 c 1,24,-1
 73 428 l 1,25,26
 130 549 130 549 210 549 c 2,27,-1
 253 549 l 1,28,29
 284 545 284 545 317 543 c 1,30,-1
 432 514 l 1,31,-1
 597 489 l 1,32,-1
 846 489 l 1,33,-1
 774 326 l 1,34,35
 747 325 747 325 715.5 321 c 128,-1,36
 684 317 684 317 631 306 c 0,37,38
 605 301 605 301 578 295 c 128,-1,39
 551 289 551 289 523 281 c 1,40,-1
 522 282 l 1,41,-1
 434 250 l 2,42,43
 373 226 373 226 321.5 184 c 128,-1,44
 270 142 270 142 224 73 c 0,45,46
 134 -61 134 -61 134 -171 c 0,47,48
 134 -303 134 -303 247 -395 c 0,49,50
 286 -429 286 -429 352 -456 c 0,51,52
 384 -470 384 -470 410.5 -479.5 c 128,-1,53
 437 -489 437 -489 457 -494 c 0,54,55
 478 -499 478 -499 511.5 -504.5 c 128,-1,56
 545 -510 545 -510 592 -516 c 0,57,58
 640 -522 640 -522 687.5 -526 c 128,-1,59
 735 -530 735 -530 785 -535 c 1,60,-1
 936 -535 l 1,0,1
450 862 m 1,61,-1
 355 734 l 1,62,-1
 223 829 l 1,63,-1
 315 957 l 1,64,-1
 450 862 l 1,61,-1
EndSplineSet
Substitution2: "'fina' Terminal Forms in Arabic lookup 5 subtable" khahfinal
Substitution2: "'medi' Medial Forms in Arabic lookup 4 subtable" khahmedial
Substitution2: "'init' Initial Forms in Arabic lookup 3 subtable" khahinitial
Substitution2: "'isol' Isolated Forms in Arabic lookup 2 subtable" khahisolated
EndChar

StartChar: dal
Encoding: 1583 1583 21
Width: 672
GlyphClass: 2
Flags: W
AnchorPoint: "ArabicBelow" 336 -265 basechar 0
AnchorPoint: "ArabicAbove" 336 917 basechar 0
LayerCount: 2
Fore
SplineSet
50 149 m 1,0,1
 159 141 159 141 258.5 138 c 128,-1,2
 358 135 358 135 461 146 c 1,3,4
 463 226 463 226 423 298 c 0,5,6
 356 426 356 426 231 492 c 1,7,-1
 258 667 l 1,8,9
 415 590 415 590 477 457 c 128,-1,10
 539 324 539 324 546 242.5 c 128,-1,11
 553 161 553 161 539 80 c 0,12,13
 524 0 524 0 491 0 c 0,14,15
 437 -6 437 -6 377 -10 c 128,-1,16
 317 -14 317 -14 255 -15 c 128,-1,17
 193 -16 193 -16 131.5 -12.5 c 128,-1,18
 70 -9 70 -9 14 0 c 1,19,-1
 50 149 l 1,0,1
EndSplineSet
Substitution2: "'fina' Terminal Forms in Arabic lookup 5 subtable" dalfinal
Substitution2: "'isol' Isolated Forms in Arabic lookup 2 subtable" dalisolated
EndChar

StartChar: thal
Encoding: 1584 1584 22
Width: 672
GlyphClass: 2
Flags: W
AnchorPoint: "ArabicBelow" 336 -265 basechar 0
AnchorPoint: "ArabicAbove" 336 1249 basechar 0
LayerCount: 2
Fore
SplineSet
329 912 m 1,0,-1
 242 794 l 1,1,-1
 120 881 l 1,2,-1
 205 999 l 1,3,-1
 329 912 l 1,0,-1
50 149 m 1,4,5
 159 141 159 141 258.5 138 c 128,-1,6
 358 135 358 135 461 146 c 1,7,8
 463 226 463 226 423 298 c 0,9,10
 356 426 356 426 231 492 c 1,11,-1
 258 667 l 1,12,13
 415 590 415 590 477 457 c 128,-1,14
 539 324 539 324 546 242.5 c 128,-1,15
 553 161 553 161 539 80 c 0,16,17
 524 0 524 0 491 0 c 0,18,19
 437 -6 437 -6 377 -10 c 128,-1,20
 317 -14 317 -14 255 -15 c 128,-1,21
 193 -16 193 -16 131.5 -12.5 c 128,-1,22
 70 -9 70 -9 14 0 c 1,23,-1
 50 149 l 1,4,5
EndSplineSet
Substitution2: "'fina' Terminal Forms in Arabic lookup 5 subtable" thalfinal
Substitution2: "'isol' Isolated Forms in Arabic lookup 2 subtable" thalisolated
EndChar

StartChar: reh
Encoding: 1585 1585 23
Width: 831
GlyphClass: 2
Flags: W
AnchorPoint: "ArabicBelow" 415 -646 basechar 0
AnchorPoint: "ArabicAbove" 415 755 basechar 0
LayerCount: 2
Fore
SplineSet
779 3 m 1,0,1
 745 -101 745 -101 634.5 -248.5 c 128,-1,2
 524 -396 524 -396 400 -396 c 0,3,4
 333 -396 333 -396 161 -332 c 1,5,6
 18 -284 18 -284 18 -258 c 1,7,-1
 152 -298 l 2,8,9
 227 -318 227 -318 264 -318 c 0,10,11
 367 -318 367 -318 545 -164 c 0,12,13
 722 -11 722 -11 725 88 c 0,14,15
 729 157 729 157 652 236 c 0,16,17
 625 262 625 262 598.5 287 c 128,-1,18
 572 312 572 312 548 332 c 1,19,-1
 588 505 l 1,20,21
 646 474 646 474 707 391 c 0,22,23
 793 269 793 269 793 124 c 0,24,25
 793 99 793 99 789.5 69 c 128,-1,26
 786 39 786 39 779 3 c 1,0,1
EndSplineSet
Substitution2: "'fina' Terminal Forms in Arabic lookup 5 subtable" rehfinal
Substitution2: "'isol' Isolated Forms in Arabic lookup 2 subtable" rehisolated
EndChar

StartChar: zain
Encoding: 1586 1586 24
Width: 831
GlyphClass: 2
Flags: W
AnchorPoint: "ArabicBelow" 415 -646 basechar 0
AnchorPoint: "ArabicAbove" 415 1149 basechar 0
LayerCount: 2
Fore
SplineSet
613 812 m 1,0,-1
 526 694 l 1,1,-1
 404 781 l 1,2,-1
 489 899 l 1,3,-1
 613 812 l 1,0,-1
779 3 m 1,4,5
 745 -101 745 -101 634.5 -248.5 c 128,-1,6
 524 -396 524 -396 400 -396 c 0,7,8
 333 -396 333 -396 161 -332 c 1,9,10
 18 -284 18 -284 18 -258 c 1,11,-1
 152 -298 l 2,12,13
 227 -318 227 -318 264 -318 c 0,14,15
 367 -318 367 -318 545 -164 c 0,16,17
 722 -11 722 -11 725 88 c 0,18,19
 729 157 729 157 652 236 c 0,20,21
 625 262 625 262 598.5 287 c 128,-1,22
 572 312 572 312 548 332 c 1,23,-1
 588 505 l 1,24,25
 646 474 646 474 707 391 c 0,26,27
 793 269 793 269 793 124 c 0,28,29
 793 99 793 99 789.5 69 c 128,-1,30
 786 39 786 39 779 3 c 1,4,5
EndSplineSet
Substitution2: "'fina' Terminal Forms in Arabic lookup 5 subtable" zainfinal
Substitution2: "'isol' Isolated Forms in Arabic lookup 2 subtable" zainisolated
EndChar

StartChar: seen
Encoding: 1587 1587 25
Width: 1630
GlyphClass: 2
Flags: W
AnchorPoint: "ArabicBelow" 815 -634 basechar 0
AnchorPoint: "ArabicAbove" 815 682 basechar 0
LayerCount: 2
Fore
SplineSet
1217 41 m 1,0,-1
 1163 0 l 1,1,-1
 864 0 l 1,2,-1
 864 -25 l 1,3,4
 854 -89 854 -89 828 -137.5 c 128,-1,5
 802 -186 802 -186 783.5 -216 c 128,-1,6
 765 -246 765 -246 746 -263 c 0,7,8
 693 -310 693 -310 560 -357 c 1,9,10
 447 -385 447 -385 373 -384 c 0,11,12
 226 -384 226 -384 133 -327 c 0,13,14
 30 -264 30 -264 30 -157 c 0,15,16
 30 -94 30 -94 42.5 -23.5 c 128,-1,17
 55 47 55 47 91 133 c 0,18,19
 157 293 157 293 187 293 c 1,20,-1
 104 72 l 2,21,22
 102 58 102 58 100.5 44.5 c 128,-1,23
 99 31 99 31 99 17 c 0,24,25
 99 -118 99 -118 230 -190 c 0,26,27
 252 -202 252 -202 273 -210 c 128,-1,28
 294 -218 294 -218 316 -223 c 2,29,-1
 362 -231 l 1,30,-1
 410 -234 l 1,31,-1
 453 -232 l 1,32,-1
 496 -224 l 1,33,-1
 552 -210 l 2,34,35
 569 -205 569 -205 586 -200.5 c 128,-1,36
 603 -196 603 -196 620 -188 c 0,37,38
 766 -141 766 -141 794 -91 c 1,39,-1
 796 -84 l 1,40,41
 796 -28 796 -28 783 46 c 128,-1,42
 770 120 770 120 693 211 c 1,43,-1
 773 365 l 1,44,-1
 842 221 l 2,45,46
 876 156 876 156 940 146 c 1,47,-1
 1215 146 l 1,48,-1
 1228 158 l 1,49,-1
 1238 289 l 1,50,-1
 1334 391 l 1,51,-1
 1322 345 l 1,52,53
 1298 211 1298 211 1298 177 c 1,54,-1
 1301 155 l 1,55,-1
 1313 146 l 1,56,-1
 1514 146 l 1,57,-1
 1527 158 l 1,58,-1
 1527 175 l 1,59,-1
 1523 212 l 1,60,-1
 1501 297 l 1,61,-1
 1602 432 l 1,62,-1
 1602 238 l 2,63,64
 1603 229 1603 229 1603 220 c 0,65,66
 1604 211 1604 211 1604 202 c 0,67,68
 1604 169 1604 169 1580 110 c 0,69,70
 1557 52 1557 52 1530 0 c 1,71,-1
 1258 0 l 1,72,-1
 1217 41 l 1,0,-1
EndSplineSet
Substitution2: "'fina' Terminal Forms in Arabic lookup 5 subtable" seenfinal
Substitution2: "'medi' Medial Forms in Arabic lookup 4 subtable" seenmedial
Substitution2: "'init' Initial Forms in Arabic lookup 3 subtable" seeninitial
Substitution2: "'isol' Isolated Forms in Arabic lookup 2 subtable" seenisolated
EndChar

StartChar: sheen
Encoding: 1588 1588 26
Width: 1630
GlyphClass: 2
Flags: W
AnchorPoint: "ArabicBelow" 815 -634 basechar 0
AnchorPoint: "ArabicAbove" 815 1232 basechar 0
LayerCount: 2
Fore
SplineSet
1258 0 m 1,0,-1
 1530 0 l 1,1,2
 1557 52 1557 52 1580 110 c 0,3,4
 1604 169 1604 169 1604 202 c 0,5,6
 1604 211 1604 211 1603 220 c 0,7,8
 1603 229 1603 229 1602 238 c 2,9,-1
 1602 432 l 1,10,-1
 1501 297 l 1,11,-1
 1523 212 l 1,12,-1
 1527 175 l 1,13,-1
 1527 158 l 1,14,-1
 1514 146 l 1,15,-1
 1313 146 l 1,16,-1
 1301 155 l 1,17,-1
 1298 177 l 1,18,19
 1298 211 1298 211 1322 345 c 1,20,-1
 1334 391 l 1,21,-1
 1238 289 l 1,22,-1
 1228 158 l 1,23,-1
 1215 146 l 1,24,-1
 940 146 l 1,25,26
 876 156 876 156 842 221 c 2,27,-1
 773 365 l 1,28,-1
 693 211 l 1,29,30
 770 120 770 120 783 46 c 128,-1,31
 796 -28 796 -28 796 -84 c 1,32,-1
 794 -91 l 1,33,34
 766 -141 766 -141 620 -188 c 0,35,36
 603 -196 603 -196 586 -200.5 c 128,-1,37
 569 -205 569 -205 552 -210 c 2,38,-1
 496 -224 l 1,39,-1
 453 -232 l 1,40,-1
 410 -234 l 1,41,-1
 362 -231 l 1,42,-1
 316 -223 l 2,43,44
 294 -218 294 -218 273 -210 c 128,-1,45
 252 -202 252 -202 230 -190 c 0,46,47
 99 -118 99 -118 99 17 c 0,48,49
 99 31 99 31 100.5 44.5 c 128,-1,50
 102 58 102 58 104 72 c 2,51,-1
 187 293 l 1,52,53
 157 293 157 293 91 133 c 0,54,55
 55 47 55 47 42.5 -23.5 c 128,-1,56
 30 -94 30 -94 30 -157 c 0,57,58
 30 -264 30 -264 133 -327 c 0,59,60
 226 -384 226 -384 373 -384 c 0,61,62
 447 -385 447 -385 560 -357 c 1,63,64
 693 -310 693 -310 746 -263 c 0,65,66
 765 -246 765 -246 783.5 -216 c 128,-1,67
 802 -186 802 -186 828 -137.5 c 128,-1,68
 854 -89 854 -89 864 -25 c 1,69,-1
 864 0 l 1,70,-1
 1163 0 l 1,71,-1
 1217 41 l 1,72,-1
 1258 0 l 1,0,-1
1298 907 m 1,73,-1
 1223 807 l 1,74,-1
 1119 882 l 1,75,-1
 1192 982 l 1,76,-1
 1298 907 l 1,73,-1
1234 697 m 1,77,-1
 1147 579 l 1,78,-1
 1025 666 l 1,79,-1
 1110 784 l 1,80,-1
 1234 697 l 1,77,-1
1414 697 m 1,81,-1
 1327 579 l 1,82,-1
 1205 666 l 1,83,-1
 1290 784 l 1,84,-1
 1414 697 l 1,81,-1
EndSplineSet
Substitution2: "'fina' Terminal Forms in Arabic lookup 5 subtable" sheenfinal
Substitution2: "'medi' Medial Forms in Arabic lookup 4 subtable" sheenmedial
Substitution2: "'init' Initial Forms in Arabic lookup 3 subtable" sheeninitial
Substitution2: "'isol' Isolated Forms in Arabic lookup 2 subtable" sheenisolated
EndChar

StartChar: sad
Encoding: 1589 1589 27
Width: 2022
GlyphClass: 2
Flags: W
AnchorPoint: "ArabicBelow" 1011 -634 basechar 0
AnchorPoint: "ArabicAbove" 1011 804 basechar 0
LayerCount: 2
Fore
SplineSet
986 124 m 1,0,1
 1060 126 1060 126 1307 313 c 128,-1,2
 1554 500 1554 500 1613.5 527 c 128,-1,3
 1673 554 1673 554 1700 554 c 0,4,5
 1771 554 1771 554 1895 460.5 c 128,-1,6
 2019 367 2019 367 1990 272 c 0,7,8
 1979 230 1979 230 1967 202 c 128,-1,9
 1955 174 1955 174 1942 139 c 0,10,11
 1932 119 1932 119 1921 98.5 c 128,-1,12
 1910 78 1910 78 1895.5 61.5 c 128,-1,13
 1881 45 1881 45 1862.5 34 c 128,-1,14
 1844 23 1844 23 1820 22 c 0,15,16
 1756 17 1756 17 1658 13 c 128,-1,17
 1560 9 1560 9 1441 7 c 2,18,-1
 1148 2 l 1,19,-1
 1117 0 l 1,20,-1
 870 0 l 1,21,-1
 870 -25 l 1,22,23
 860 -89 860 -89 834 -137.5 c 128,-1,24
 808 -186 808 -186 789.5 -216 c 128,-1,25
 771 -246 771 -246 752 -263 c 0,26,27
 699 -310 699 -310 566 -357 c 1,28,29
 453 -385 453 -385 379 -384 c 0,30,31
 232 -384 232 -384 139 -327 c 0,32,33
 36 -264 36 -264 36 -157 c 0,34,35
 36 -94 36 -94 48.5 -23.5 c 128,-1,36
 61 47 61 47 97 133 c 0,37,38
 163 293 163 293 193 293 c 1,39,-1
 110 72 l 2,40,41
 108 58 108 58 106.5 44.5 c 128,-1,42
 105 31 105 31 105 17 c 0,43,44
 105 -118 105 -118 236 -190 c 0,45,46
 258 -202 258 -202 279 -210 c 128,-1,47
 300 -218 300 -218 322 -223 c 2,48,-1
 368 -231 l 1,49,-1
 416 -234 l 1,50,-1
 459 -232 l 1,51,-1
 502 -224 l 1,52,-1
 558 -210 l 2,53,54
 575 -205 575 -205 592 -200.5 c 128,-1,55
 609 -196 609 -196 626 -188 c 0,56,57
 772 -141 772 -141 800 -91 c 1,58,-1
 802 -84 l 1,59,60
 802 -28 802 -28 789 46 c 128,-1,61
 776 120 776 120 699 211 c 1,62,-1
 779 365 l 1,63,-1
 848 221 l 1,64,65
 892 116 892 116 986 124 c 1,0,1
1743 145 m 1,66,67
 1875 140 1875 140 1861 250 c 0,68,69
 1856 286 1856 286 1775 346 c 1,70,-1
 1772 348 l 2,71,72
 1753 360 1753 360 1736 370 c 128,-1,73
 1719 380 1719 380 1695 388 c 0,74,75
 1671 397 1671 397 1661.5 398.5 c 128,-1,76
 1652 400 1652 400 1637 401 c 0,77,78
 1606 401 1606 401 1572.5 393 c 128,-1,79
 1539 385 1539 385 1507 368 c 2,80,-1
 1237 203 l 1,81,-1
 1146 145 l 1,82,-1
 1152 145 l 1,83,-1
 1743 145 l 1,66,67
EndSplineSet
Substitution2: "'fina' Terminal Forms in Arabic lookup 5 subtable" sadfinal
Substitution2: "'medi' Medial Forms in Arabic lookup 4 subtable" sadmedial
Substitution2: "'init' Initial Forms in Arabic lookup 3 subtable" sadinitial
Substitution2: "'isol' Isolated Forms in Arabic lookup 2 subtable" sadisolated
EndChar

StartChar: dad
Encoding: 1590 1590 28
Width: 2022
GlyphClass: 2
Flags: W
AnchorPoint: "ArabicBelow" 1011 -634 basechar 0
AnchorPoint: "ArabicAbove" 1011 1195 basechar 0
LayerCount: 2
Fore
SplineSet
1819 208 m 2,0,-1
 1822 210 l 2,1,2
 1820 208 1820 208 1819 208 c 2,0,-1
1512 858 m 1,3,-1
 1425 740 l 1,4,-1
 1303 827 l 1,5,-1
 1388 945 l 1,6,-1
 1512 858 l 1,3,-1
1819 208 m 2,7,-1
 1822 210 l 2,8,9
 1820 208 1820 208 1819 208 c 2,7,-1
986 124 m 1,10,11
 1060 126 1060 126 1307 313 c 128,-1,12
 1554 500 1554 500 1613.5 527 c 128,-1,13
 1673 554 1673 554 1700 554 c 0,14,15
 1771 554 1771 554 1895 460.5 c 128,-1,16
 2019 367 2019 367 1990 272 c 0,17,18
 1979 230 1979 230 1967 202 c 128,-1,19
 1955 174 1955 174 1942 139 c 0,20,21
 1932 119 1932 119 1921 98.5 c 128,-1,22
 1910 78 1910 78 1895.5 61.5 c 128,-1,23
 1881 45 1881 45 1862.5 34 c 128,-1,24
 1844 23 1844 23 1820 22 c 0,25,26
 1756 17 1756 17 1658 13 c 128,-1,27
 1560 9 1560 9 1441 7 c 2,28,-1
 1148 2 l 1,29,-1
 1117 0 l 1,30,-1
 870 0 l 1,31,-1
 870 -25 l 1,32,33
 860 -89 860 -89 834 -137.5 c 128,-1,34
 808 -186 808 -186 789.5 -216 c 128,-1,35
 771 -246 771 -246 752 -263 c 0,36,37
 699 -310 699 -310 566 -357 c 1,38,39
 453 -385 453 -385 379 -384 c 0,40,41
 232 -384 232 -384 139 -327 c 0,42,43
 36 -264 36 -264 36 -157 c 0,44,45
 36 -94 36 -94 48.5 -23.5 c 128,-1,46
 61 47 61 47 97 133 c 0,47,48
 163 293 163 293 193 293 c 1,49,-1
 110 72 l 2,50,51
 108 58 108 58 106.5 44.5 c 128,-1,52
 105 31 105 31 105 17 c 0,53,54
 105 -118 105 -118 236 -190 c 0,55,56
 258 -202 258 -202 279 -210 c 128,-1,57
 300 -218 300 -218 322 -223 c 2,58,-1
 368 -231 l 1,59,-1
 416 -234 l 1,60,-1
 459 -232 l 1,61,-1
 502 -224 l 1,62,-1
 558 -210 l 2,63,64
 575 -205 575 -205 592 -200.5 c 128,-1,65
 609 -196 609 -196 626 -188 c 0,66,67
 772 -141 772 -141 800 -91 c 1,68,-1
 802 -84 l 1,69,70
 802 -28 802 -28 789 46 c 128,-1,71
 776 120 776 120 699 211 c 1,72,-1
 779 365 l 1,73,-1
 848 221 l 1,74,75
 892 116 892 116 986 124 c 1,10,11
1743 145 m 1,76,77
 1875 140 1875 140 1861 250 c 0,78,79
 1856 286 1856 286 1775 346 c 1,80,-1
 1772 348 l 2,81,82
 1753 360 1753 360 1736 370 c 128,-1,83
 1719 380 1719 380 1695 388 c 0,84,85
 1671 397 1671 397 1661.5 398.5 c 128,-1,86
 1652 400 1652 400 1637 401 c 0,87,88
 1606 401 1606 401 1572.5 393 c 128,-1,89
 1539 385 1539 385 1507 368 c 2,90,-1
 1237 203 l 1,91,-1
 1146 145 l 1,92,-1
 1152 145 l 1,93,-1
 1743 145 l 1,76,77
EndSplineSet
Substitution2: "'fina' Terminal Forms in Arabic lookup 5 subtable" dadfinal
Substitution2: "'medi' Medial Forms in Arabic lookup 4 subtable" dadmedial
Substitution2: "'init' Initial Forms in Arabic lookup 3 subtable" dadinitial
Substitution2: "'isol' Isolated Forms in Arabic lookup 2 subtable" dadisolated
EndChar

StartChar: tah
Encoding: 1591 1591 29
Width: 1560
GlyphClass: 2
Flags: W
AnchorPoint: "ArabicBelow" 780 -250 basechar 0
AnchorPoint: "ArabicAbove" 780 1422 basechar 0
LayerCount: 2
Fore
SplineSet
118 211 m 0,0,1
 141 157 141 157 251 145 c 1,2,-1
 494 145 l 2,3,4
 519 145 519 145 548 164 c 0,5,6
 586 190 586 190 586 267 c 0,7,8
 586 299 586 299 521 913 c 1,9,10
 513 942 513 942 502.5 971 c 128,-1,11
 492 1000 492 1000 480 1030 c 1,12,13
 501 1073 501 1073 538 1172 c 1,14,15
 578 1130 578 1130 625.5 1089.5 c 128,-1,16
 673 1049 673 1049 728 1007 c 1,17,-1
 664 854 l 1,18,-1
 626 858 l 2,19,20
 626 856 626 856 639.5 648.5 c 128,-1,21
 653 441 653 441 652 409.5 c 128,-1,22
 651 378 651 378 628 249 c 1,23,-1
 635 230 l 1,24,-1
 636 231 l 1,25,26
 1045 503 1045 503 1099 528 c 256,27,28
 1153 553 1153 553 1180 553 c 0,29,30
 1251 553 1251 553 1375 460 c 0,31,32
 1499 366 1499 366 1470 271 c 0,33,34
 1459 229 1459 229 1447 201 c 128,-1,35
 1435 173 1435 173 1422 138 c 0,36,37
 1412 118 1412 118 1401 97.5 c 128,-1,38
 1390 77 1390 77 1375.5 60.5 c 128,-1,39
 1361 44 1361 44 1342.5 33 c 128,-1,40
 1324 22 1324 22 1300 21 c 0,41,42
 1236 16 1236 16 1138 12 c 128,-1,43
 1040 8 1040 8 921 6 c 2,44,-1
 620 1 l 1,45,-1
 563 1 l 1,46,-1
 251 0 l 1,47,-1
 245 0 l 2,48,49
 153 0 153 0 92 52 c 0,50,51
 29 104 29 104 29 186 c 0,52,53
 29 219 29 219 30 233 c 0,54,55
 32 247 32 247 33 258 c 0,56,57
 35 269 35 269 38 287 c 0,58,59
 42 306 42 306 48 325 c 2,60,-1
 64 369 l 2,61,62
 78 408 78 408 93 427 c 0,63,64
 108 447 108 447 122 449 c 1,65,-1
 118 427 l 1,66,67
 99 359 99 359 96 325 c 0,68,69
 96 266 96 266 118 211 c 0,0,1
1223 144 m 1,70,71
 1355 139 1355 139 1341 249 c 0,72,73
 1336 285 1336 285 1255 345 c 1,74,-1
 1252 347 l 2,75,76
 1233 359 1233 359 1216 369 c 256,77,78
 1199 379 1199 379 1175 387 c 0,79,80
 1151 396 1151 396 1142 398 c 0,81,82
 1132 399 1132 399 1117 400 c 0,83,84
 1086 400 1086 400 1053 392 c 0,85,86
 1019 384 1019 384 987 367 c 2,87,-1
 717 202 l 1,88,-1
 626 144 l 1,89,-1
 1223 144 l 1,70,71
EndSplineSet
Substitution2: "'fina' Terminal Forms in Arabic lookup 5 subtable" tahfinal
Substitution2: "'medi' Medial Forms in Arabic lookup 4 subtable" tahmedial
Substitution2: "'init' Initial Forms in Arabic lookup 3 subtable" tahinitial
Substitution2: "'isol' Isolated Forms in Arabic lookup 2 subtable" tahisolated
EndChar

StartChar: zah
Encoding: 1592 1592 30
Width: 1560
GlyphClass: 2
Flags: W
AnchorPoint: "ArabicBelow" 780 -250 basechar 0
AnchorPoint: "ArabicAbove" 780 1422 basechar 0
LayerCount: 2
Fore
SplineSet
1142 822 m 1,0,-1
 1052 701 l 1,1,-1
 928 790 l 1,2,-1
 1015 911 l 1,3,-1
 1142 822 l 1,0,-1
118 211 m 0,4,5
 141 157 141 157 251 145 c 1,6,-1
 494 145 l 2,7,8
 519 145 519 145 548 164 c 0,9,10
 586 190 586 190 586 267 c 0,11,12
 586 299 586 299 521 913 c 1,13,14
 513 942 513 942 502.5 971 c 128,-1,15
 492 1000 492 1000 480 1030 c 1,16,17
 501 1073 501 1073 538 1172 c 1,18,19
 578 1130 578 1130 625.5 1089.5 c 128,-1,20
 673 1049 673 1049 728 1007 c 1,21,-1
 664 854 l 1,22,-1
 626 858 l 2,23,24
 626 856 626 856 639.5 648.5 c 128,-1,25
 653 441 653 441 652 409.5 c 128,-1,26
 651 378 651 378 628 249 c 1,27,-1
 635 230 l 1,28,-1
 636 231 l 1,29,30
 1045 503 1045 503 1099 528 c 256,31,32
 1153 553 1153 553 1180 553 c 0,33,34
 1251 553 1251 553 1375 460 c 0,35,36
 1499 366 1499 366 1470 271 c 0,37,38
 1459 229 1459 229 1447 201 c 128,-1,39
 1435 173 1435 173 1422 138 c 0,40,41
 1412 118 1412 118 1401 97.5 c 128,-1,42
 1390 77 1390 77 1375.5 60.5 c 128,-1,43
 1361 44 1361 44 1342.5 33 c 128,-1,44
 1324 22 1324 22 1300 21 c 0,45,46
 1236 16 1236 16 1138 12 c 128,-1,47
 1040 8 1040 8 921 6 c 2,48,-1
 620 1 l 1,49,-1
 563 1 l 1,50,-1
 251 0 l 1,51,-1
 245 0 l 2,52,53
 153 0 153 0 92 52 c 0,54,55
 29 104 29 104 29 186 c 0,56,57
 29 219 29 219 30 233 c 0,58,59
 32 247 32 247 33 258 c 0,60,61
 35 269 35 269 38 287 c 0,62,63
 42 306 42 306 48 325 c 2,64,-1
 64 369 l 2,65,66
 78 408 78 408 93 427 c 0,67,68
 108 447 108 447 122 449 c 1,69,-1
 118 427 l 1,70,71
 99 359 99 359 96 325 c 0,72,73
 96 266 96 266 118 211 c 0,4,5
1223 144 m 1,74,75
 1355 139 1355 139 1341 249 c 0,76,77
 1336 285 1336 285 1255 345 c 1,78,-1
 1252 347 l 2,79,80
 1233 359 1233 359 1216 369 c 256,81,82
 1199 379 1199 379 1175 387 c 0,83,84
 1151 396 1151 396 1142 398 c 0,85,86
 1132 399 1132 399 1117 400 c 0,87,88
 1086 400 1086 400 1053 392 c 0,89,90
 1019 384 1019 384 987 367 c 2,91,-1
 717 202 l 1,92,-1
 626 144 l 1,93,-1
 1223 144 l 1,74,75
EndSplineSet
Substitution2: "'fina' Terminal Forms in Arabic lookup 5 subtable" zahfinal
Substitution2: "'medi' Medial Forms in Arabic lookup 4 subtable" zahmedial
Substitution2: "'init' Initial Forms in Arabic lookup 3 subtable" zahinitial
Substitution2: "'isol' Isolated Forms in Arabic lookup 2 subtable" zahisolated
EndChar

StartChar: ain
Encoding: 1593 1593 31
Width: 753
GlyphClass: 2
Flags: W
AnchorPoint: "ArabicBelow" 376 -924 basechar 0
AnchorPoint: "ArabicAbove" 376 911 basechar 0
LayerCount: 2
Fore
SplineSet
933 -547 m 1,0,1
 902 -574 902 -574 851.5 -595.5 c 128,-1,2
 801 -617 801 -617 734.5 -637 c 128,-1,3
 668 -657 668 -657 590.5 -665.5 c 128,-1,4
 513 -674 513 -674 462 -674 c 0,5,6
 246 -674 246 -674 146 -600 c 0,7,8
 53 -530 53 -530 53 -381 c 1,9,10
 49 -323 49 -323 60 -251 c 128,-1,11
 71 -179 71 -179 106 -100 c 0,12,13
 156 9 156 9 226 76 c 1,14,-1
 226 106 l 1,15,16
 202 119 202 119 189.5 125 c 128,-1,17
 177 131 177 131 167.5 137 c 128,-1,18
 158 143 158 143 147 152.5 c 128,-1,19
 136 162 136 162 115 182 c 0,20,21
 44 248 44 248 44 318 c 0,22,23
 44 373 44 373 124 495 c 0,24,25
 232 661 232 661 331 661 c 1,26,27
 436 641 436 641 488 588.5 c 128,-1,28
 540 536 540 536 541 521 c 1,29,-1
 487 530 l 1,30,-1
 436 534 l 1,31,-1
 400 534 l 2,32,33
 350 531 350 531 291 518 c 0,34,35
 230 504 230 504 193 485 c 0,36,37
 155 465 155 465 152 429 c 2,38,-1
 152 422 l 2,39,40
 152 390 152 390 164 362 c 0,41,42
 184 316 184 316 232.5 289 c 128,-1,43
 281 262 281 262 347 262 c 0,44,45
 376 262 376 262 407 268.5 c 128,-1,46
 438 275 438 275 483 291 c 2,47,-1
 635 347 l 1,48,-1
 693 364 l 1,49,-1
 640 231 l 1,50,51
 479 182 479 182 332 73 c 1,52,53
 127 -93 127 -93 127 -268 c 0,54,55
 127 -397 127 -397 251 -467 c 0,56,57
 392 -547 392 -547 753 -547 c 2,58,-1
 933 -547 l 1,0,1
EndSplineSet
Substitution2: "'fina' Terminal Forms in Arabic lookup 5 subtable" ainfinal
Substitution2: "'medi' Medial Forms in Arabic lookup 4 subtable" ainmedial
Substitution2: "'init' Initial Forms in Arabic lookup 3 subtable" aininitial
Substitution2: "'isol' Isolated Forms in Arabic lookup 2 subtable" ainisolated
EndChar

StartChar: ghain
Encoding: 1594 1594 32
Width: 753
GlyphClass: 2
Flags: W
AnchorPoint: "ArabicBelow" 376 -924 basechar 0
AnchorPoint: "ArabicAbove" 376 1264 basechar 0
LayerCount: 2
Fore
SplineSet
324 813 m 1,0,-1
 210 899 l 1,1,-1
 293 1014 l 1,2,-1
 411 928 l 1,3,-1
 324 813 l 1,0,-1
933 -547 m 1,4,5
 902 -574 902 -574 851.5 -595.5 c 128,-1,6
 801 -617 801 -617 734.5 -637 c 128,-1,7
 668 -657 668 -657 590.5 -665.5 c 128,-1,8
 513 -674 513 -674 462 -674 c 0,9,10
 246 -674 246 -674 146 -600 c 0,11,12
 53 -530 53 -530 53 -381 c 1,13,14
 49 -323 49 -323 60 -251 c 128,-1,15
 71 -179 71 -179 106 -100 c 0,16,17
 156 9 156 9 226 76 c 1,18,-1
 226 106 l 1,19,20
 202 119 202 119 189.5 125 c 128,-1,21
 177 131 177 131 167.5 137 c 128,-1,22
 158 143 158 143 147 152.5 c 128,-1,23
 136 162 136 162 115 182 c 0,24,25
 44 248 44 248 44 318 c 0,26,27
 44 373 44 373 124 495 c 0,28,29
 232 661 232 661 331 661 c 1,30,31
 436 641 436 641 488 588.5 c 128,-1,32
 540 536 540 536 541 521 c 1,33,-1
 487 530 l 1,34,-1
 436 534 l 1,35,-1
 400 534 l 2,36,37
 350 531 350 531 291 518 c 0,38,39
 230 504 230 504 193 485 c 0,40,41
 155 465 155 465 152 429 c 2,42,-1
 152 422 l 2,43,44
 152 390 152 390 164 362 c 0,45,46
 184 316 184 316 232.5 289 c 128,-1,47
 281 262 281 262 347 262 c 0,48,49
 376 262 376 262 407 268.5 c 128,-1,50
 438 275 438 275 483 291 c 2,51,-1
 635 347 l 1,52,-1
 693 364 l 1,53,-1
 640 231 l 1,54,55
 479 182 479 182 332 73 c 1,56,57
 127 -93 127 -93 127 -268 c 0,58,59
 127 -397 127 -397 251 -467 c 0,60,61
 392 -547 392 -547 753 -547 c 2,62,-1
 933 -547 l 1,4,5
EndSplineSet
Substitution2: "'fina' Terminal Forms in Arabic lookup 5 subtable" ghainfinal
Substitution2: "'medi' Medial Forms in Arabic lookup 4 subtable" ghainmedial
Substitution2: "'init' Initial Forms in Arabic lookup 3 subtable" ghaininitial
Substitution2: "'isol' Isolated Forms in Arabic lookup 2 subtable" ghainisolated
EndChar

StartChar: tatweel
Encoding: 1600 1600 33
Width: 193
GlyphClass: 2
Flags: W
LayerCount: 2
Fore
SplineSet
201 -2 m 1,0,-1
 -2 -2 l 1,1,-1
 -2 146 l 1,2,-1
 201 146 l 1,3,-1
 201 -2 l 1,0,-1
EndSplineSet
EndChar

StartChar: feh
Encoding: 1601 1601 34
Width: 1400
GlyphClass: 2
Flags: W
AnchorPoint: "ArabicBelow" 700 -250 basechar 0
AnchorPoint: "ArabicAbove" 700 1308 basechar 0
LayerCount: 2
Fore
SplineSet
92 524 m 2,0,-1
 91 522 l 2,1,2
 92 523 92 523 92 524 c 2,0,-1
105 241 m 1,3,4
 169 160 169 160 259 146 c 1,5,-1
 1260 146 l 1,6,-1
 1257 242 l 1,7,8
 1231 376 1231 376 1196 407 c 1,9,-1
 1182 415 l 1,10,-1
 1175 412 l 1,11,-1
 1100 334 l 1,12,13
 1053 307 1053 307 978 307 c 0,14,15
 915 307 915 307 854 348 c 0,16,17
 796 387 796 387 796 434 c 0,18,19
 796 509 796 509 890 626 c 1,20,21
 1008 756 1008 756 1116 756 c 0,22,23
 1185 756 1185 756 1264 593 c 0,24,25
 1347 422 1347 422 1349 277 c 1,26,-1
 1331 151 l 1,27,-1
 1306 0 l 1,28,-1
 251 0 l 2,29,30
 137 2 137 2 70 66 c 256,31,32
 3 130 3 130 3 237 c 2,33,-1
 3 278 l 1,34,-1
 20 376 l 1,35,36
 69 553 69 553 102 553 c 1,37,-1
 72 431 l 1,38,-1
 66 397 l 1,39,40
 66 319 66 319 105 241 c 1,3,4
1157 488 m 1,41,-1
 1143 507 l 2,42,43
 1124 538 1124 538 1104.5 559.5 c 128,-1,44
 1085 581 1085 581 1066 594 c 0,45,46
 1030 619 1030 619 999 623 c 0,47,48
 981 623 981 623 968.5 618 c 128,-1,49
 956 613 956 613 936 596 c 0,50,51
 893 552 893 552 892 539 c 2,52,-1
 892 533 l 2,53,54
 892 525 892 525 895 521 c 0,55,56
 899 516 899 516 940 488 c 0,57,58
 957 478 957 478 968.5 471.5 c 128,-1,59
 980 465 980 465 987 463 c 2,60,-1
 1015 457 l 1,61,-1
 1062 457 l 1,62,-1
 1147 469 l 1,63,-1
 1157 488 l 1,41,-1
898 847 m 1,64,-1
 781 948 l 1,65,-1
 894 1058 l 1,66,-1
 1014 951 l 1,67,-1
 898 847 l 1,64,-1
EndSplineSet
Substitution2: "'fina' Terminal Forms in Arabic lookup 5 subtable" fehfinal
Substitution2: "'medi' Medial Forms in Arabic lookup 4 subtable" fehmedial
Substitution2: "'init' Initial Forms in Arabic lookup 3 subtable" fehinitial
Substitution2: "'isol' Isolated Forms in Arabic lookup 2 subtable" fehisolated
EndChar

StartChar: qaf
Encoding: 1602 1602 35
Width: 1028
GlyphClass: 2
Flags: W
AnchorPoint: "ArabicBelow" 514 -612 basechar 0
AnchorPoint: "ArabicAbove" 514 1218 basechar 0
LayerCount: 2
Fore
SplineSet
614 862 m 1,0,-1
 527 744 l 1,1,-1
 405 831 l 1,2,-1
 490 949 l 1,3,-1
 614 862 l 1,0,-1
866 881 m 1,4,-1
 779 763 l 1,5,-1
 657 850 l 1,6,-1
 742 968 l 1,7,-1
 866 881 l 1,4,-1
811 285 m 1,8,9
 803 313 803 313 785 340 c 0,10,11
 768 368 768 368 751 385 c 0,12,13
 710 433 710 433 689 433 c 0,14,15
 664 433 664 433 634.5 407.5 c 128,-1,16
 605 382 605 382 596 339 c 1,17,18
 602 310 602 310 627.5 290 c 128,-1,19
 653 270 653 270 687.5 257.5 c 128,-1,20
 722 245 722 245 761.5 249.5 c 128,-1,21
 801 254 801 254 811 285 c 1,8,9
972 88 m 0,22,23
 969 -47 969 -47 905 -136 c 0,24,25
 831 -233 831 -233 673 -295 c 128,-1,26
 515 -357 515 -357 339 -362 c 1,27,28
 177 -362 177 -362 92 -284 c 0,29,30
 15 -216 15 -216 9 -110 c 0,31,32
 3 -61 3 -61 18 12 c 128,-1,33
 33 85 33 85 67 166 c 1,34,-1
 67 167 l 1,35,36
 125 321 125 321 154 323 c 1,37,38
 154 319 154 319 155 318 c 0,39,40
 155 310 155 310 146 285 c 2,41,-1
 86 110 l 1,42,-1
 87 108 l 1,43,44
 77 72 77 72 77 38 c 0,45,46
 77 -90 77 -90 187 -156 c 1,47,-1
 187 -157 l 1,48,49
 269 -202 269 -202 368 -202 c 0,50,51
 525 -202 525 -202 669 -159 c 0,52,53
 821 -112 821 -112 904 -33 c 1,54,55
 908 6 908 6 907 36 c 128,-1,56
 906 66 906 66 901.5 91 c 128,-1,57
 897 116 897 116 889 137.5 c 128,-1,58
 881 159 881 159 870 179 c 1,59,-1
 850 179 l 1,60,61
 824 155 824 155 807 141 c 0,62,63
 756 98 756 98 674 98 c 0,64,65
 618 98 618 98 564 137 c 0,66,67
 514 176 514 176 514 226 c 0,68,69
 512 249 512 249 527.5 304.5 c 128,-1,70
 543 360 543 360 582 432 c 0,71,72
 661 583 661 583 743 583 c 0,73,74
 769 583 769 583 791 569 c 0,75,76
 800 564 800 564 813 551 c 128,-1,77
 826 538 826 538 842 517 c 0,78,79
 896 443 896 443 941 283 c 0,80,81
 950 253 950 253 955.5 229 c 128,-1,82
 961 205 961 205 964.5 182.5 c 128,-1,83
 968 160 968 160 970 137 c 128,-1,84
 972 114 972 114 972 88 c 0,22,23
EndSplineSet
Substitution2: "'fina' Terminal Forms in Arabic lookup 5 subtable" qaffinal
Substitution2: "'medi' Medial Forms in Arabic lookup 4 subtable" qafmedial
Substitution2: "'init' Initial Forms in Arabic lookup 3 subtable" qafinitial
Substitution2: "'isol' Isolated Forms in Arabic lookup 2 subtable" qafisolated
EndChar

StartChar: arabickaf
Encoding: 1603 1603 36
Width: 1353
GlyphClass: 2
Flags: W
AnchorPoint: "ArabicBelow" 676 -250 basechar 0
AnchorPoint: "ArabicAbove" 676 1349 basechar 0
LayerCount: 2
Fore
SplineSet
144 209 m 0,0,1
 201 146 201 146 297 146 c 2,2,-1
 1060 146 l 1,3,4
 1082 159 1082 159 1086 210 c 1,5,6
 1082 284 1082 284 1055.5 524.5 c 128,-1,7
 1029 765 1029 765 1016 828.5 c 128,-1,8
 1003 892 1003 892 984 958 c 1,9,10
 996 980 996 980 1012.5 1015 c 128,-1,11
 1029 1050 1029 1050 1049 1099 c 1,12,13
 1125 1012 1125 1012 1232 925 c 1,14,-1
 1161 774 l 1,15,-1
 1123 780 l 1,16,17
 1131 742 1131 742 1136.5 705 c 128,-1,18
 1142 668 1142 668 1159.5 480 c 128,-1,19
 1177 292 1177 292 1180.5 238 c 128,-1,20
 1184 184 1184 184 1184 49 c 0,21,22
 1184 0 1184 0 1146 0 c 2,23,-1
 288 0 l 2,24,25
 194 0 194 0 131.5 36.5 c 128,-1,26
 69 73 69 73 42 137 c 0,27,28
 24 180 24 180 24 235 c 0,29,30
 24 273 24 273 30 314 c 0,31,32
 34 334 34 334 40 358.5 c 128,-1,33
 46 383 46 383 55 412 c 0,34,35
 85 512 85 512 119 512 c 1,36,-1
 94 410 l 1,37,-1
 89 376 l 1,38,-1
 86 342 l 1,39,40
 86 274 86 274 144 209 c 0,0,1
745 559 m 0,41,42
 745 498 745 498 699 445 c 0,43,44
 666 404 666 404 630 397 c 2,45,-1
 553 377 l 1,46,-1
 511 371 l 1,47,-1
 469 368 l 1,48,49
 469 376 469 376 575 422 c 256,50,51
 681 468 681 468 687 490 c 1,52,53
 687 508 687 508 607 508 c 0,54,55
 529 508 529 508 529 551 c 0,56,57
 529 601 529 601 610 705 c 0,58,59
 693 809 693 809 745 809 c 1,60,-1
 714 730 l 1,61,-1
 707 716 l 1,62,63
 692 712 692 712 679 702 c 2,64,-1
 660 690 l 1,65,-1
 646 678 l 2,66,67
 620 657 620 657 599 631 c 1,68,-1
 594 618 l 2,69,70
 594 607 594 607 669 594 c 1,71,72
 745 587 745 587 745 559 c 0,41,42
EndSplineSet
Substitution2: "'fina' Terminal Forms in Arabic lookup 5 subtable" arabickaffinal
Substitution2: "'medi' Medial Forms in Arabic lookup 4 subtable" kafmedial
Substitution2: "'init' Initial Forms in Arabic lookup 3 subtable" kafinitial
Substitution2: "'isol' Isolated Forms in Arabic lookup 2 subtable" kafisolated
EndChar

StartChar: lam
Encoding: 1604 1604 37
Width: 994
GlyphClass: 2
Flags: W
AnchorPoint: "ArabicBelow" 497 -569 basechar 0
AnchorPoint: "ArabicAbove" 497 1286 basechar 0
LayerCount: 2
Fore
SplineSet
773 709 m 1,0,1
 789 669 789 669 839 135 c 0,2,3
 839 121 839 121 809 33 c 1,4,-1
 776 -44 l 2,5,6
 768 -61 768 -61 761 -74 c 0,7,8
 754 -89 754 -89 724 -131 c 0,9,10
 708 -153 708 -153 673 -181 c 128,-1,11
 638 -209 638 -209 581 -243 c 0,12,13
 565 -251 565 -251 548.5 -259 c 128,-1,14
 532 -267 532 -267 515 -274 c 0,15,16
 484 -288 484 -288 445 -299 c 0,17,18
 411 -309 411 -309 377 -314 c 0,19,20
 363 -316 363 -316 345 -317.5 c 128,-1,21
 327 -319 327 -319 307 -319 c 0,22,23
 279 -319 279 -319 248 -315.5 c 128,-1,24
 217 -312 217 -312 186 -303 c 0,25,26
 133 -286 133 -286 96 -254 c 0,27,28
 22 -189 22 -189 22 -87 c 0,29,30
 22 -28 22 -28 40 41 c 0,31,32
 50 76 50 76 63.5 113 c 128,-1,33
 77 150 77 150 95 191 c 0,34,35
 164 348 164 348 183 348 c 1,36,-1
 177 303 l 1,37,38
 94 129 94 129 94 83 c 0,39,40
 94 -22 94 -22 179 -82 c 0,41,42
 256 -135 256 -135 358 -135 c 2,43,-1
 399 -135 l 1,44,-1
 408 -134 l 2,45,46
 431 -132 431 -132 449 -130.5 c 128,-1,47
 467 -129 467 -129 478 -127 c 0,48,49
 491 -125 491 -125 506.5 -121.5 c 128,-1,50
 522 -118 522 -118 540 -113 c 2,51,-1
 609 -91 l 2,52,53
 741 -49 741 -49 741 8 c 1,54,-1
 689 671 l 2,55,56
 689 680 689 680 680 712 c 0,57,58
 666 757 666 757 650.5 801 c 128,-1,59
 635 845 635 845 617 891 c 1,60,61
 638 934 638 934 675 1036 c 1,62,63
 715 993 715 993 762.5 951.5 c 128,-1,64
 810 910 810 910 865 868 c 1,65,66
 854 842 854 842 838 804 c 128,-1,67
 822 766 822 766 801 715 c 1,68,-1
 773 709 l 1,0,1
EndSplineSet
Substitution2: "'fina' Terminal Forms in Arabic lookup 5 subtable" lamfinal
Substitution2: "'medi' Medial Forms in Arabic lookup 4 subtable" lammedial
Substitution2: "'init' Initial Forms in Arabic lookup 3 subtable" laminitial
Substitution2: "'isol' Isolated Forms in Arabic lookup 2 subtable" lamisolated
EndChar

StartChar: meem
Encoding: 1605 1605 38
Width: 694
GlyphClass: 2
Flags: W
AnchorPoint: "ArabicBelow" 347 -807 basechar 0
AnchorPoint: "ArabicAbove" 347 832 basechar 0
LayerCount: 2
Fore
SplineSet
596 166 m 1,0,1
 537 174 537 174 490.5 176.5 c 128,-1,2
 444 179 444 179 409 177.5 c 128,-1,3
 374 176 374 176 323 165.5 c 128,-1,4
 272 155 272 155 212 133 c 128,-1,5
 152 111 152 111 109 95 c 1,6,-1
 98 89 l 1,7,8
 112 13 112 13 121 -54 c 2,9,-1
 139 -187 l 1,10,-1
 146 -292 l 2,11,12
 146 -318 146 -318 139 -356 c 0,13,14
 137 -367 137 -367 136.5 -373.5 c 128,-1,15
 136 -380 136 -380 135 -382 c 0,16,17
 135 -388 135 -388 132 -400 c 0,18,19
 130 -406 130 -406 126.5 -419.5 c 128,-1,20
 123 -433 123 -433 117 -455 c 0,21,22
 112 -477 112 -477 104.5 -502.5 c 128,-1,23
 97 -528 97 -528 89 -557 c 1,24,-1
 85 -505 l 1,25,-1
 5 68 l 2,26,27
 5 76 5 76 16.5 96.5 c 128,-1,28
 28 117 28 117 53 148 c 2,29,-1
 107 215 l 2,30,31
 113 226 113 226 205 264 c 0,32,33
 255 284 255 284 295 296.5 c 128,-1,34
 335 309 335 309 366 313 c 2,35,-1
 411 318 l 1,36,-1
 419 342 l 1,37,-1
 359 385 l 1,38,39
 285 432 285 432 227 432 c 0,40,41
 182 432 182 432 157 414 c 0,42,43
 144 406 144 406 127 391 c 128,-1,44
 110 376 110 376 89 356 c 1,45,-1
 99 387 l 1,46,47
 141 465 141 465 210 524.5 c 128,-1,48
 279 584 279 584 325 582 c 0,49,50
 337 582 337 582 373.5 562 c 128,-1,51
 410 542 410 542 462.5 492.5 c 128,-1,52
 515 443 515 443 576 383 c 2,53,-1
 659 294 l 1,54,-1
 596 166 l 1,0,1
EndSplineSet
Substitution2: "'fina' Terminal Forms in Arabic lookup 5 subtable" meemfinal
Substitution2: "'medi' Medial Forms in Arabic lookup 4 subtable" meemmedial
Substitution2: "'init' Initial Forms in Arabic lookup 3 subtable" meeminitial
Substitution2: "'isol' Isolated Forms in Arabic lookup 2 subtable" meemisolated
EndChar

StartChar: noon
Encoding: 1606 1606 39
Width: 934
GlyphClass: 2
Flags: W
AnchorPoint: "ArabicBelow" 467 -497 basechar 0
AnchorPoint: "ArabicAbove" 467 1129 basechar 0
LayerCount: 2
Fore
SplineSet
864 57 m 1,0,1
 822 -54 822 -54 794 -78 c 1,2,3
 751 -130 751 -130 612 -187 c 0,4,5
 558 -208 558 -208 506 -221.5 c 128,-1,6
 454 -235 454 -235 402 -243 c 1,7,-1
 334 -247 l 1,8,9
 202 -247 202 -247 123 -200 c 0,10,11
 24 -144 24 -144 20 -10 c 1,12,13
 20 138 20 138 72 249 c 1,14,15
 130 396 130 396 161 396 c 2,16,-1
 166 396 l 1,17,-1
 115 277 l 2,18,19
 90 213 90 213 89 171 c 0,20,21
 76 33 76 33 170 -28 c 0,22,23
 251 -81 251 -81 314.5 -86.5 c 128,-1,24
 378 -92 378 -92 421.5 -86 c 128,-1,25
 465 -80 465 -80 489 -75.5 c 128,-1,26
 513 -71 513 -71 543.5 -63.5 c 128,-1,27
 574 -56 574 -56 611 -45 c 128,-1,28
 648 -34 648 -34 688 -19 c 0,29,30
 770 10 770 10 789.5 39.5 c 128,-1,31
 809 69 809 69 811 88 c 0,32,33
 824 136 824 136 763 275 c 1,34,-1
 678 450 l 1,35,-1
 770 608 l 1,36,37
 805 536 805 536 825.5 491 c 128,-1,38
 846 446 846 446 853 428 c 0,39,40
 867 391 867 391 877 355 c 2,41,-1
 891 285 l 1,42,-1
 894 223 l 1,43,-1
 891 175 l 1,44,-1
 864 57 l 1,0,1
496 792 m 1,45,-1
 409 674 l 1,46,-1
 287 761 l 1,47,-1
 372 879 l 1,48,-1
 496 792 l 1,45,-1
EndSplineSet
Substitution2: "'fina' Terminal Forms in Arabic lookup 5 subtable" noonfinal
Substitution2: "'medi' Medial Forms in Arabic lookup 4 subtable" noonmedial
Substitution2: "'init' Initial Forms in Arabic lookup 3 subtable" nooninitial
Substitution2: "'isol' Isolated Forms in Arabic lookup 2 subtable" noonisolated
EndChar

StartChar: heh
Encoding: 1607 1607 40
Width: 582
GlyphClass: 2
Flags: W
AnchorPoint: "ArabicBelow" 291 -268 basechar 0
AnchorPoint: "ArabicAbove" 291 844 basechar 0
LayerCount: 2
Fore
SplineSet
436 179 m 1,0,1
 436 219 436 219 360 309 c 0,2,3
 281 399 281 399 263 399 c 1,4,-1
 201 318 l 1,5,6
 165 260 165 260 159 233 c 1,7,8
 159 187 159 187 190 165 c 0,9,10
 210 150 210 150 256 150 c 0,11,12
 291 150 291 150 318.5 152.5 c 128,-1,13
 346 155 346 155 369 159 c 2,14,-1
 428 169 l 1,15,-1
 436 179 l 1,0,1
482 134 m 1,16,17
 452 82 452 82 426 58 c 128,-1,18
 400 34 400 34 319.5 7 c 128,-1,19
 239 -20 239 -20 181.5 -18.5 c 128,-1,20
 124 -17 124 -17 77.5 -3 c 128,-1,21
 31 11 31 11 27.5 59 c 128,-1,22
 24 107 24 107 42 162.5 c 128,-1,23
 60 218 60 218 98 278 c 0,24,25
 217 471 217 471 249.5 516 c 128,-1,26
 282 561 282 561 300 594 c 1,27,-1
 478 447 l 1,28,-1
 499 417 l 1,29,-1
 519 380 l 1,30,31
 532 346 532 346 532 302 c 1,32,-1
 529 274 l 1,33,-1
 521 245 l 1,34,-1
 482 134 l 1,16,17
EndSplineSet
Substitution2: "'fina' Terminal Forms in Arabic lookup 5 subtable" hehfinal
Substitution2: "'medi' Medial Forms in Arabic lookup 4 subtable" hehmedial
Substitution2: "'init' Initial Forms in Arabic lookup 3 subtable" hehinitial
Substitution2: "'isol' Isolated Forms in Arabic lookup 2 subtable" hehisolated
EndChar

StartChar: waw
Encoding: 1608 1608 41
Width: 853
GlyphClass: 2
Flags: W
AnchorPoint: "ArabicBelow" 426 -667 basechar 0
AnchorPoint: "ArabicAbove" 426 815 basechar 0
LayerCount: 2
Fore
SplineSet
648 351 m 0,0,1
 607 390 607 390 566 390 c 0,2,3
 548 390 548 390 524 381 c 128,-1,4
 500 372 500 372 477 352 c 0,5,6
 432 314 432 314 432 282 c 0,7,8
 432 255 432 255 459 240 c 0,9,10
 486 226 486 226 511 218 c 0,11,12
 530 213 530 213 547.5 210.5 c 128,-1,13
 565 208 565 208 580 208 c 0,14,15
 591 208 591 208 596 209 c 0,16,17
 614 211 614 211 645 224 c 0,18,19
 662 231 662 231 671 236 c 128,-1,20
 680 241 680 241 682 243 c 0,21,22
 686 248 686 248 686 280 c 0,23,24
 686 310 686 310 648 351 c 0,0,1
826 208 m 0,25,26
 826 0 826 0 723 -202 c 1,27,28
 580 -417 580 -417 412 -417 c 0,29,30
 383 -417 383 -417 307 -407 c 0,31,32
 240 -397 240 -397 207 -386 c 0,33,34
 190 -381 190 -381 162 -373 c 128,-1,35
 134 -365 134 -365 93 -354 c 0,36,37
 13 -334 13 -334 7 -316 c 0,38,39
 7 -314 7 -314 23 -310 c 1,40,-1
 52 -315 l 1,41,-1
 133 -334 l 1,42,-1
 180 -342 l 1,43,-1
 229 -346 l 2,44,45
 258 -346 258 -346 278 -341 c 2,46,-1
 305 -334 l 1,47,-1
 326 -325 l 2,48,49
 407 -291 407 -291 478.5 -243.5 c 128,-1,50
 550 -196 550 -196 618 -130 c 0,51,52
 764 8 764 8 764 119 c 0,53,54
 764 141 764 141 755 177 c 0,55,56
 750 201 750 201 743 216 c 1,57,-1
 721 216 l 1,58,-1
 705 186 l 1,59,60
 667 125 667 125 652 107 c 0,61,62
 605 60 605 60 513 60 c 0,63,64
 429 60 429 60 396 133 c 0,65,66
 364 210 364 210 394.5 293 c 128,-1,67
 425 376 425 376 469 442 c 0,68,69
 559 575 559 575 635 565 c 1,70,71
 690 565 690 565 757 448 c 1,72,73
 826 340 826 340 826 208 c 0,25,26
EndSplineSet
Substitution2: "'fina' Terminal Forms in Arabic lookup 5 subtable" wawfinal
Substitution2: "'isol' Isolated Forms in Arabic lookup 2 subtable" wawisolated
EndChar

StartChar: alefmaksura
Encoding: 1609 1609 42
Width: 1144
GlyphClass: 2
Flags: W
AnchorPoint: "ArabicBelow" 572 -556 basechar 0
AnchorPoint: "ArabicAbove" 572 981 basechar 0
LayerCount: 2
Fore
SplineSet
1061 465 m 1,0,-1
 1055 494 l 2,1,2
 1037 566 1037 566 954 566 c 0,3,4
 864 566 864 566 752 482 c 0,5,6
 637 398 637 398 637 332 c 0,7,8
 633 250 633 250 838 226 c 1,9,10
 1024 210 1024 210 1024 138 c 0,11,12
 1021 106 1021 106 1014 78 c 128,-1,13
 1007 50 1007 50 998 27 c 2,14,-1
 952 -88 l 2,15,16
 939 -117 939 -117 855 -167 c 128,-1,17
 771 -217 771 -217 665 -256.5 c 128,-1,18
 559 -296 559 -296 396 -306 c 1,19,20
 22 -306 22 -306 22 -57 c 0,21,22
 22 24 22 24 36 105.5 c 128,-1,23
 50 187 50 187 79 268 c 1,24,25
 142 409 142 409 156 409 c 1,26,27
 155 409 155 409 155 387 c 0,28,29
 155 373 155 373 145.5 338.5 c 128,-1,30
 136 304 136 304 119 247 c 0,31,32
 100 187 100 187 90.5 145.5 c 128,-1,33
 81 104 81 104 81 76 c 0,34,35
 81 -31 81 -31 203 -96 c 1,36,37
 306 -140 306 -140 435 -140 c 0,38,39
 476 -137 476 -137 513 -132.5 c 128,-1,40
 550 -128 550 -128 584.5 -121 c 128,-1,41
 619 -114 619 -114 652.5 -106 c 128,-1,42
 686 -98 686 -98 721 -88 c 0,43,44
 790 -68 790 -68 839.5 -49.5 c 128,-1,45
 889 -31 889 -31 918 -9 c 1,46,-1
 923 1 l 1,47,48
 923 63 923 63 719 86 c 0,49,50
 538 107 538 107 538 177 c 0,51,52
 538 317 538 317 671 510 c 1,53,54
 830 731 830 731 1002 731 c 0,55,56
 1020 731 1020 731 1032 730 c 128,-1,57
 1044 729 1044 729 1052.5 727 c 128,-1,58
 1061 725 1061 725 1067.5 721.5 c 128,-1,59
 1074 718 1074 718 1082 713 c 0,60,61
 1106 699 1106 699 1106 662 c 1,62,-1
 1068 493 l 1,63,-1
 1061 465 l 1,0,-1
EndSplineSet
Substitution2: "'fina' Terminal Forms in Arabic lookup 5 subtable" alefmaksurafinal
Substitution2: "'isol' Isolated Forms in Arabic lookup 2 subtable" alefmaksuraisolated
EndChar

StartChar: yeh
Encoding: 1610 1610 43
Width: 1212
GlyphClass: 2
Flags: W
AnchorPoint: "ArabicBelow" 606 -850 basechar 0
AnchorPoint: "ArabicAbove" 606 981 basechar 0
LayerCount: 2
Fore
SplineSet
559 -496 m 1,0,-1
 482 -600 l 1,1,-1
 375 -524 l 1,2,-1
 450 -420 l 1,3,-1
 559 -496 l 1,0,-1
717 -496 m 1,4,-1
 641 -600 l 1,5,-1
 533 -524 l 1,6,-1
 608 -420 l 1,7,-1
 717 -496 l 1,4,-1
1061 465 m 1,8,-1
 1055 494 l 2,9,10
 1037 566 1037 566 954 566 c 0,11,12
 864 566 864 566 752 482 c 0,13,14
 637 398 637 398 637 332 c 0,15,16
 633 250 633 250 838 226 c 1,17,18
 1024 210 1024 210 1024 138 c 0,19,20
 1021 106 1021 106 1014 78 c 128,-1,21
 1007 50 1007 50 998 27 c 2,22,-1
 952 -88 l 2,23,24
 939 -117 939 -117 855 -167 c 128,-1,25
 771 -217 771 -217 665 -256.5 c 128,-1,26
 559 -296 559 -296 396 -306 c 1,27,28
 22 -306 22 -306 22 -57 c 0,29,30
 22 24 22 24 36 105.5 c 128,-1,31
 50 187 50 187 79 268 c 1,32,33
 142 409 142 409 156 409 c 1,34,35
 155 409 155 409 155 387 c 0,36,37
 155 373 155 373 145.5 338.5 c 128,-1,38
 136 304 136 304 119 247 c 0,39,40
 100 187 100 187 90.5 145.5 c 128,-1,41
 81 104 81 104 81 76 c 0,42,43
 81 -31 81 -31 203 -96 c 1,44,45
 306 -140 306 -140 435 -140 c 0,46,47
 476 -137 476 -137 513 -132.5 c 128,-1,48
 550 -128 550 -128 584.5 -121 c 128,-1,49
 619 -114 619 -114 652.5 -106 c 128,-1,50
 686 -98 686 -98 721 -88 c 0,51,52
 790 -68 790 -68 839.5 -49.5 c 128,-1,53
 889 -31 889 -31 918 -9 c 1,54,-1
 923 1 l 1,55,56
 923 63 923 63 719 86 c 0,57,58
 538 107 538 107 538 177 c 0,59,60
 538 317 538 317 671 510 c 1,61,62
 830 731 830 731 1002 731 c 0,63,64
 1020 731 1020 731 1032 730 c 128,-1,65
 1044 729 1044 729 1052.5 727 c 128,-1,66
 1061 725 1061 725 1067.5 721.5 c 128,-1,67
 1074 718 1074 718 1082 713 c 0,68,69
 1106 699 1106 699 1106 662 c 1,70,-1
 1068 493 l 1,71,-1
 1061 465 l 1,8,-1
EndSplineSet
Substitution2: "'fina' Terminal Forms in Arabic lookup 5 subtable" yehfinal
Substitution2: "'medi' Medial Forms in Arabic lookup 4 subtable" yehmedial
Substitution2: "'init' Initial Forms in Arabic lookup 3 subtable" yehinitial
Substitution2: "'isol' Isolated Forms in Arabic lookup 2 subtable" yehisolated
EndChar

StartChar: fathatan
Encoding: 1611 1611 44
Width: 0
GlyphClass: 4
Flags: W
AnchorPoint: "ArabicAboveLigature" 230 1275 mark 0
AnchorPoint: "ArabicAbove" 230 1275 mark 0
LayerCount: 2
Fore
SplineSet
398 2164 m 1,0,1
 398 2098 398 2098 363 2078 c 2,2,-1
 60 1906 l 1,3,4
 63 1944 63 1944 74 1965 c 0,5,6
 86 1985 86 1985 126 2007 c 2,7,-1
 398 2164 l 1,0,1
398 2018 m 1,8,9
 398 1952 398 1952 363 1932 c 2,10,-1
 60 1760 l 1,11,12
 63 1798 63 1798 74 1819 c 0,13,14
 86 1839 86 1839 126 1861 c 2,15,-1
 398 2018 l 1,8,9
EndSplineSet
EndChar

StartChar: dammatan
Encoding: 1612 1612 45
Width: 0
GlyphClass: 4
Flags: W
AnchorPoint: "ArabicAboveLigature" 230 1275 mark 0
AnchorPoint: "ArabicAbove" 230 1275 mark 0
LayerCount: 2
Fore
SplineSet
396 1582 m 0,0,1
 396 1565 396 1565 395.5 1550 c 128,-1,2
 395 1535 395 1535 394 1523 c 1,3,4
 374 1534 374 1534 351 1548.5 c 128,-1,5
 328 1563 328 1563 302 1582 c 1,6,7
 176 1453 176 1453 62 1437 c 1,8,9
 105 1526 105 1526 105 1566 c 0,10,11
 105 1621 105 1621 56 1621 c 0,12,13
 14 1621 14 1621 7 1545 c 1,14,15
 -3 1574 -3 1574 -3 1597 c 256,16,17
 -3 1620 -3 1620 3.5 1640 c 128,-1,18
 10 1660 10 1660 21.5 1675 c 128,-1,19
 33 1690 33 1690 48 1698.5 c 128,-1,20
 63 1707 63 1707 81 1707 c 0,21,22
 148 1707 148 1707 148 1607 c 1,23,-1
 142 1515 l 1,24,25
 207 1540 207 1540 266 1605 c 1,26,27
 200 1648 200 1648 200 1699 c 0,28,29
 200 1752 200 1752 240 1798 c 0,30,31
 280 1846 280 1846 322 1846 c 0,32,33
 344 1846 344 1846 367 1819 c 0,34,35
 390 1793 390 1793 390 1766 c 0,36,37
 390 1736 390 1736 379 1708 c 2,38,-1
 357 1652 l 1,39,40
 396 1622 396 1622 396 1582 c 0,0,1
320 1726 m 0,41,42
 320 1779 320 1779 279 1779 c 0,43,44
 253 1779 253 1779 253 1756 c 0,45,46
 253 1730 253 1730 316 1687 c 1,47,48
 320 1696 320 1696 320 1726 c 0,41,42
EndSplineSet
EndChar

StartChar: kasratan
Encoding: 1613 1613 46
Width: 0
GlyphClass: 4
Flags: W
AnchorPoint: "ArabicBelowLigature" 165 -500 mark 0
AnchorPoint: "ArabicBelow" 165 -500 mark 0
LayerCount: 2
Fore
SplineSet
339 -620 m 1,0,1
 339 -686 339 -686 304 -706 c 2,2,-1
 1 -878 l 1,3,4
 4 -840 4 -840 15 -818 c 0,5,6
 28 -800 28 -800 67 -777 c 2,7,-1
 339 -620 l 1,0,1
339 -767 m 1,8,9
 339 -833 339 -833 304 -853 c 2,10,-1
 1 -1025 l 1,11,12
 4 -987 4 -987 15 -965 c 0,13,14
 28 -947 28 -947 67 -924 c 2,15,-1
 339 -767 l 1,8,9
EndSplineSet
EndChar

StartChar: fatha
Encoding: 1614 1614 47
Width: 0
GlyphClass: 4
Flags: W
AnchorPoint: "ArabicAboveLigature" 230 1275 mark 0
AnchorPoint: "ArabicAbove" 230 1275 mark 0
LayerCount: 2
Fore
SplineSet
283 1910 m 1,0,1
 283 1856 283 1856 254 1839 c 2,2,-1
 5 1698 l 1,3,4
 7 1732 7 1732 16 1747 c 0,5,6
 26 1762 26 1762 59 1781 c 2,7,-1
 283 1910 l 1,0,1
EndSplineSet
EndChar

StartChar: damma
Encoding: 1615 1615 48
Width: 0
GlyphClass: 4
Flags: W
AnchorPoint: "ArabicAboveLigature" 230 1275 mark 0
AnchorPoint: "ArabicAbove" 230 1275 mark 0
LayerCount: 2
Fore
SplineSet
280 1883 m 1,0,-1
 273 1802 l 1,1,-1
 208 1845 l 1,2,3
 109 1727 109 1727 46 1727 c 0,4,5
 28 1727 28 1727 -2 1737 c 1,6,7
 40 1760 40 1760 83.5 1791.5 c 128,-1,8
 127 1823 127 1823 173 1865 c 1,9,10
 123 1903 123 1903 123 1938 c 0,11,12
 123 1988 123 1988 159 2041 c 0,13,14
 185 2076 185 2076 218 2076 c 0,15,16
 273 2076 273 2076 273 2004 c 0,17,18
 273 1962 273 1962 248 1908 c 1,19,20
 254 1904 254 1904 262 1897.5 c 128,-1,21
 270 1891 270 1891 280 1883 c 1,0,-1
223 1956 m 0,22,23
 223 1974 223 1974 209.5 1990 c 128,-1,24
 196 2006 196 2006 179 2006 c 0,25,26
 164 2006 164 2006 164 1989 c 0,27,28
 164 1964 164 1964 218 1928 c 1,29,30
 223 1948 223 1948 223 1956 c 0,22,23
EndSplineSet
EndChar

StartChar: kasra
Encoding: 1616 1616 49
Width: 0
GlyphClass: 4
Flags: W
AnchorPoint: "ArabicBelowLigature" 165 -500 mark 0
AnchorPoint: "ArabicBelow" 165 -500 mark 0
LayerCount: 2
Fore
SplineSet
351 -620 m 1,0,1
 351 -686 351 -686 316 -706 c 2,2,-1
 13 -878 l 1,3,4
 16 -840 16 -840 27 -818 c 0,5,6
 40 -800 40 -800 79 -777 c 2,7,-1
 351 -620 l 1,0,1
EndSplineSet
EndChar

StartChar: shadda
Encoding: 1617 1617 50
Width: 0
GlyphClass: 4
Flags: W
AnchorPoint: "ArabicAboveLigature" 300 1650 mark 0
AnchorPoint: "ArabicAbove" 300 1650 mark 0
LayerCount: 2
Fore
SplineSet
355 1683 m 0,0,1
 355 1515 355 1515 251 1515 c 0,2,3
 215 1515 215 1515 187 1536 c 1,4,5
 179 1501 179 1501 148 1476 c 0,6,7
 116 1450 116 1450 83 1450 c 0,8,9
 1 1450 1 1450 1 1558 c 0,10,11
 1 1583 1 1583 23 1659 c 1,12,-1
 46 1663 l 1,13,14
 46 1552 46 1552 85 1552 c 0,15,16
 149 1552 149 1552 175 1714 c 1,17,-1
 193 1720 l 1,18,19
 216 1622 216 1622 251 1622 c 0,20,21
 309 1622 309 1622 318 1769 c 1,22,-1
 341 1779 l 1,23,24
 355 1718 355 1718 355 1683 c 0,0,1
EndSplineSet
EndChar

StartChar: sukun
Encoding: 1618 1618 51
Width: 0
GlyphClass: 4
Flags: W
AnchorPoint: "ArabicAboveLigature" 230 1275 mark 0
AnchorPoint: "ArabicAbove" 230 1275 mark 0
LayerCount: 2
Fore
SplineSet
260 1614 m 0,0,1
 260 1549 260 1549 214 1500 c 0,2,3
 167 1450 167 1450 109 1450 c 0,4,5
 2 1450 2 1450 2 1571 c 0,6,7
 2 1655 2 1655 40 1708 c 0,8,9
 77 1762 77 1762 139 1762 c 0,10,11
 186 1762 186 1762 223 1716 c 0,12,13
 260 1673 260 1673 260 1614 c 0,0,1
205 1590 m 0,14,15
 205 1616 205 1616 162 1647 c 0,16,17
 121 1676 121 1676 94 1676 c 0,18,19
 35 1676 35 1676 35 1608 c 0,20,21
 35 1549 35 1549 127 1549 c 0,22,23
 205 1549 205 1549 205 1590 c 0,14,15
EndSplineSet
EndChar

StartChar: arabicindicdigitzero
Encoding: 1632 1632 52
Width: 466
GlyphClass: 2
Flags: W
LayerCount: 2
Fore
SplineSet
362 449 m 1,0,-1
 292 205 l 1,1,-1
 98 325 l 1,2,-1
 168 569 l 1,3,-1
 362 449 l 1,0,-1
EndSplineSet
EndChar

StartChar: arabicindicdigitone
Encoding: 1633 1633 53
Width: 502
GlyphClass: 2
Flags: W
LayerCount: 2
Fore
SplineSet
404 134 m 2,0,1
 404 83 404 83 401 46.5 c 128,-1,2
 398 10 398 10 393 -15 c 1,3,-1
 393 -16 l 1,4,5
 385 -66 385 -66 367 -66 c 0,6,7
 355 -66 355 -66 342 0 c 0,8,9
 319 147 319 147 302.5 235 c 128,-1,10
 286 323 286 323 272 359 c 0,11,12
 258 394 258 394 246 425 c 128,-1,13
 234 456 234 456 222 484 c 0,14,15
 211 510 211 510 199 533.5 c 128,-1,16
 187 557 187 557 174 581 c 2,17,-1
 104 701 l 1,18,19
 105 714 105 714 106 723 c 128,-1,20
 107 732 107 732 109 738 c 0,21,22
 113 750 113 750 119.5 770.5 c 128,-1,23
 126 791 126 791 138 827 c 0,24,25
 171 917 171 917 177 919 c 0,26,27
 191 914 191 914 236 847 c 0,28,29
 265 805 265 805 291.5 749 c 128,-1,30
 318 693 318 693 344 618 c 0,31,32
 357 573 357 573 367.5 526 c 128,-1,33
 378 479 378 479 387 428 c 0,34,35
 395 377 395 377 399 329 c 128,-1,36
 403 281 403 281 403 235 c 2,37,-1
 403 199 l 1,38,-1
 404 134 l 2,0,1
EndSplineSet
EndChar

StartChar: arabicindicdigittwo
Encoding: 1634 1634 54
Width: 724
GlyphClass: 2
Flags: W
LayerCount: 2
Fore
SplineSet
183 720 m 1,0,-1
 183 792 l 2,1,2
 185 812 185 812 189 834.5 c 128,-1,3
 193 857 193 857 204 875 c 0,4,5
 228 915 228 915 281.5 931 c 128,-1,6
 335 947 335 947 400 950 c 128,-1,7
 465 953 465 953 531 948 c 128,-1,8
 597 943 597 943 673 930 c 1,9,10
 654 809 654 809 648 782 c 1,11,12
 632 788 632 788 569 795.5 c 128,-1,13
 506 803 506 803 484 802 c 128,-1,14
 462 801 462 801 454 800 c 0,15,16
 401 795 401 795 373 777.5 c 128,-1,17
 345 760 345 760 335.5 734.5 c 128,-1,18
 326 709 326 709 330.5 676.5 c 128,-1,19
 335 644 335 644 347.5 609 c 128,-1,20
 360 574 360 574 375.5 538 c 128,-1,21
 391 502 391 502 404 470 c 0,22,23
 405 467 405 467 407 462.5 c 128,-1,24
 409 458 409 458 413 444.5 c 128,-1,25
 417 431 417 431 424.5 404.5 c 128,-1,26
 432 378 432 378 444 331 c 1,27,-1
 460 233 l 1,28,-1
 467 155 l 1,29,-1
 470 73 l 1,30,31
 470 -78 470 -78 440 -78 c 0,32,33
 420 -78 420 -78 402 19 c 0,34,35
 388 95 388 95 369 178 c 0,36,37
 362 211 362 211 348 248 c 2,38,-1
 329 311 l 1,39,40
 297 402 297 402 265.5 475 c 128,-1,41
 234 548 234 548 209 631 c 2,42,-1
 183 720 l 1,0,-1
EndSplineSet
EndChar

StartChar: arabicindicdigitthree
Encoding: 1635 1635 55
Width: 939
GlyphClass: 2
Flags: W
LayerCount: 2
Fore
SplineSet
765 964 m 2,0,1
 766 964 766 964 766.5 964.5 c 128,-1,2
 767 965 767 965 768 965 c 2,3,-1
 765 964 l 2,0,1
768 944 m 0,4,5
 771 944 771 944 776 940 c 2,6,-1
 779 927 l 1,7,-1
 781 898 l 2,8,9
 781 856 781 856 773 813 c 128,-1,10
 765 770 765 770 748 720 c 0,11,12
 714 618 714 618 669 602 c 1,13,-1
 668 601 l 1,14,15
 659 599 659 599 650 597.5 c 128,-1,16
 641 596 641 596 637 596 c 0,17,18
 601 596 601 596 568 613 c 1,19,-1
 567 613 l 1,20,-1
 530 630 l 1,21,-1
 510 640 l 1,22,-1
 496 651 l 1,23,-1
 483 649 l 1,24,25
 459 619 459 619 436 599.5 c 128,-1,26
 413 580 413 580 392 569 c 2,27,-1
 353 555 l 1,28,-1
 346 538 l 1,29,-1
 361 472 l 1,30,-1
 376 395 l 1,31,-1
 383 330 l 1,32,-1
 390 273 l 1,33,-1
 390 117 l 2,34,35
 390 61 390 61 389 22.5 c 128,-1,36
 388 -16 388 -16 384 -40.5 c 128,-1,37
 380 -65 380 -65 374 -75.5 c 128,-1,38
 368 -86 368 -86 358 -86 c 0,39,40
 340 -86 340 -86 325 66 c 0,41,42
 309 230 309 230 272 348 c 0,43,44
 259 394 259 394 246.5 434 c 128,-1,45
 234 474 234 474 221 508 c 0,46,47
 208 545 208 545 197.5 573.5 c 128,-1,48
 187 602 187 602 178 623 c 1,49,-1
 177 624 l 1,50,-1
 123 732 l 1,51,-1
 100 778 l 1,52,-1
 122 831 l 2,53,54
 137 862 137 862 152.5 887 c 128,-1,55
 168 912 168 912 184 933 c 1,56,-1
 242 858 l 2,57,58
 319 762 319 762 369 762 c 0,59,60
 384 762 384 762 401 772 c 0,61,62
 455 815 455 815 487 872 c 2,63,-1
 553 981 l 1,64,65
 563 981 563 981 563 950 c 2,66,-1
 563 923 l 1,67,-1
 565 896 l 1,68,-1
 565 894 l 1,69,70
 570 875 570 875 600 846 c 1,71,-1
 600 845 l 1,72,73
 616 833 616 833 633 826 c 128,-1,74
 650 819 650 819 669 819 c 0,75,76
 695 819 695 819 718 848 c 2,77,-1
 721 852 l 1,78,-1
 746 918 l 2,79,80
 754 936 754 936 768 944 c 0,4,5
EndSplineSet
EndChar

StartChar: arabicindicdigitfour
Encoding: 1636 1636 56
Width: 630
GlyphClass: 2
Flags: W
LayerCount: 2
Fore
SplineSet
462 -64 m 1,0,-1
 457 -64 l 2,1,2
 402 -64 402 -64 289 -24 c 1,3,4
 116 28 116 28 116 107 c 0,5,6
 116 125 116 125 128.5 154 c 128,-1,7
 141 183 141 183 164 218 c 2,8,-1
 286 386 l 1,9,-1
 288 396 l 2,10,11
 288 416 288 416 188 484 c 0,12,13
 165 498 165 498 145.5 515 c 128,-1,14
 126 532 126 532 112 547 c 1,15,16
 111 555 111 555 110.5 561 c 128,-1,17
 110 567 110 567 109 575 c 0,18,19
 109 598 109 598 115.5 622.5 c 128,-1,20
 122 647 122 647 134 675 c 1,21,-1
 134 674 l 1,22,23
 158 720 158 720 193.5 764.5 c 128,-1,24
 229 809 229 809 274 850 c 0,25,26
 312 882 312 882 344 904 c 128,-1,27
 376 926 376 926 396 933 c 1,28,29
 390 896 390 896 385.5 864 c 128,-1,30
 381 832 381 832 376 795 c 1,31,-1
 311 775 l 1,32,33
 237 740 237 740 226 703 c 1,34,35
 226 670 226 670 309 621 c 0,36,37
 343 605 343 605 374.5 589.5 c 128,-1,38
 406 574 406 574 439 559 c 1,39,-1
 440 551 l 2,40,41
 440 533 440 533 423 501.5 c 128,-1,42
 406 470 406 470 377 433 c 1,43,-1
 295 346 l 2,44,45
 273 324 273 324 251 286 c 0,46,47
 239 266 239 266 237 247.5 c 128,-1,48
 235 229 235 229 240 215 c 2,49,-1
 244 209 l 2,50,51
 251 204 251 204 267 195.5 c 128,-1,52
 283 187 283 187 311 176 c 2,53,-1
 426 134 l 2,54,55
 444 129 444 129 462 124.5 c 128,-1,56
 480 120 480 120 499 115 c 0,57,58
 505 113 505 113 510 111 c 128,-1,59
 515 109 515 109 521 107 c 1,60,-1
 462 -64 l 1,0,-1
EndSplineSet
EndChar

StartChar: arabicindicdigitfive
Encoding: 1637 1637 57
Width: 740
GlyphClass: 2
Flags: W
LayerCount: 2
Fore
SplineSet
555 359 m 1,0,1
 560 364 560 364 560.5 367 c 128,-1,2
 561 370 561 370 561 374 c 0,3,4
 561 390 561 390 542.5 420.5 c 128,-1,5
 524 451 524 451 487 502 c 1,6,-1
 486 502 l 1,7,8
 388 624 388 624 313 624 c 0,9,10
 288 624 288 624 244 547 c 0,11,12
 202 472 202 472 202 411 c 2,13,-1
 202 410 l 1,14,-1
 206 368 l 1,15,16
 213 346 213 346 261 319 c 1,17,-1
 263 319 l 1,18,-1
 282 312 l 1,19,-1
 283 311 l 1,20,-1
 314 304 l 1,21,-1
 316 304 l 1,22,-1
 374 300 l 1,23,-1
 396 300 l 1,24,-1
 421 301 l 1,25,-1
 422 301 l 2,26,27
 442 303 442 303 448 306 c 2,28,-1
 473 313 l 2,29,30
 500 320 500 320 520.5 332 c 128,-1,31
 541 344 541 344 556 359 c 1,32,-1
 555 359 l 1,0,1
640 494 m 2,33,34
 640 423 640 423 616 321 c 0,35,36
 593 225 593 225 563 198 c 0,37,38
 513 159 513 159 442 130 c 0,39,40
 425 124 425 124 408 119.5 c 128,-1,41
 391 115 391 115 372 110 c 2,42,-1
 338 105 l 1,43,-1
 305 103 l 2,44,45
 262 103 262 103 221 116.5 c 128,-1,46
 180 130 180 130 143 172 c 0,47,48
 103 215 103 215 103 305 c 0,49,50
 103 454 103 454 206 641 c 0,51,52
 307 823 307 823 390 823 c 0,53,54
 447 823 447 823 522 737 c 0,55,56
 596 651 596 651 635 542 c 1,57,-1
 639 516 l 1,58,-1
 640 494 l 2,33,34
EndSplineSet
EndChar

StartChar: arabicindicdigitsix
Encoding: 1638 1638 58
Width: 770
GlyphClass: 2
Flags: W
LayerCount: 2
Fore
SplineSet
634 -57 m 2,0,1
 632 -57 632 -57 632 -55 c 1,2,3
 635 -57 635 -57 636 -57 c 2,4,-1
 634 -57 l 2,0,1
675 150 m 2,5,6
 674 138 674 138 668 107 c 128,-1,7
 662 76 662 76 652 31 c 0,8,9
 630 -43 630 -43 632 -55 c 1,10,11
 621 -48 621 -48 602 -19.5 c 128,-1,12
 583 9 583 9 560 54 c 0,13,14
 522 129 522 129 502 210 c 128,-1,15
 482 291 482 291 482 375 c 2,16,-1
 482 474 l 2,17,18
 485 519 485 519 485.5 549 c 128,-1,19
 486 579 486 579 486 591 c 0,20,21
 487 603 487 603 489.5 625 c 128,-1,22
 492 647 492 647 495 673 c 1,23,-1
 471 698 l 1,24,25
 460 696 460 696 445.5 693 c 128,-1,26
 431 690 431 690 419 688 c 0,27,28
 415 687 415 687 410 687 c 0,29,30
 406 687 406 687 403 686 c 0,31,32
 371 681 371 681 351 678 c 128,-1,33
 331 675 331 675 312 675 c 0,34,35
 230 675 230 675 201 691 c 0,36,37
 145 714 145 714 115 766 c 2,38,-1
 117 763 l 2,39,40
 115 768 115 768 113 775.5 c 128,-1,41
 111 783 111 783 109 789 c 2,42,-1
 107 819 l 2,43,44
 107 859 107 859 133 965 c 1,45,-1
 191 928 l 1,46,47
 236 907 236 907 280.5 896 c 128,-1,48
 325 885 325 885 375 885 c 0,49,50
 406 885 406 885 450 893 c 128,-1,51
 494 901 494 901 546 915 c 1,52,-1
 548 915 l 1,53,-1
 542 885 l 1,54,-1
 542 886 l 1,55,-1
 528 808 l 2,56,57
 527 794 527 794 526 779 c 128,-1,58
 525 764 525 764 524 750 c 2,59,-1
 513 643 l 1,60,-1
 518 643 l 1,61,-1
 518 599 l 1,62,-1
 523 552 l 1,63,-1
 527 516 l 1,64,-1
 545 435 l 2,65,66
 557 388 557 388 574.5 341.5 c 128,-1,67
 592 295 592 295 615 251 c 0,68,69
 630 223 630 223 643 201.5 c 128,-1,70
 656 180 656 180 675 155 c 1,71,-1
 675 150 l 2,5,6
EndSplineSet
EndChar

StartChar: arabicindicdigitseven
Encoding: 1639 1639 59
Width: 919
GlyphClass: 2
Flags: W
LayerCount: 2
Fore
SplineSet
814 763 m 1,0,1
 800 749 800 749 776 715.5 c 128,-1,2
 752 682 752 682 720 628 c 0,3,4
 691 579 691 579 661.5 514.5 c 128,-1,5
 632 450 632 450 601 369 c 2,6,-1
 568 271 l 1,7,-1
 510 87 l 2,8,9
 478 -11 478 -11 466 -15 c 1,10,11
 453 -15 453 -15 428 73 c 0,12,13
 416 119 416 119 404 158.5 c 128,-1,14
 392 198 392 198 379 234 c 0,15,16
 368 267 368 267 355.5 297 c 128,-1,17
 343 327 343 327 329 355 c 2,18,-1
 289 442 l 2,19,20
 278 463 278 463 269 480.5 c 128,-1,21
 260 498 260 498 250 514 c 0,22,23
 232 546 232 546 212 576 c 128,-1,24
 192 606 192 606 170 634 c 1,25,-1
 170 635 l 1,26,-1
 119 692 l 1,27,-1
 100 710 l 1,28,-1
 126 784 l 2,29,30
 140 823 140 823 152 849.5 c 128,-1,31
 164 876 164 876 174 889 c 1,32,-1
 217 844 l 1,33,-1
 243 809 l 1,34,-1
 275 759 l 2,35,36
 286 742 286 742 296.5 721 c 128,-1,37
 307 700 307 700 320 674 c 2,38,-1
 418 438 l 1,39,-1
 479 279 l 1,40,-1
 501 279 l 1,41,-1
 544 409 l 1,42,-1
 569 484 l 1,43,-1
 598 562 l 1,44,-1
 626 633 l 1,45,-1
 655 698 l 2,46,47
 670 736 670 736 694.5 776 c 128,-1,48
 719 816 719 816 751 861 c 0,49,50
 770 887 770 887 780.5 901.5 c 128,-1,51
 791 916 791 916 796 921 c 1,52,53
 796 916 796 916 799 895 c 0,54,55
 802 875 802 875 814 763 c 1,0,1
EndSplineSet
EndChar

StartChar: arabicindicdigiteight
Encoding: 1640 1640 60
Width: 903
GlyphClass: 2
Flags: W
LayerCount: 2
Fore
SplineSet
793 104 m 2,0,1
 777 47 777 47 764 13.5 c 128,-1,2
 751 -20 751 -20 740 -34 c 1,3,-1
 697 13 l 2,4,5
 681 33 681 33 668 53.5 c 128,-1,6
 655 74 655 74 644 94 c 0,7,8
 637 105 637 105 625.5 127.5 c 128,-1,9
 614 150 614 150 597 186 c 2,10,-1
 558 273 l 1,11,-1
 501 417 l 1,12,-1
 441 573 l 1,13,-1
 419 573 l 1,14,-1
 394 500 l 1,15,-1
 350 382 l 1,16,-1
 315 293 l 1,17,-1
 263 171 l 2,18,19
 246 128 246 128 221.5 84 c 128,-1,20
 197 40 197 40 166 -5 c 0,21,22
 121 -70 121 -70 117 -71 c 0,23,24
 105 -62 105 -62 105 58 c 1,25,-1
 103 115 l 1,26,-1
 195 232 l 1,27,-1
 196 233 l 1,28,29
 223 281 223 281 252 343 c 128,-1,30
 281 405 281 405 313 486 c 1,31,-1
 386 703 l 2,32,33
 439 867 439 867 452 867 c 0,34,35
 469 867 469 867 495 780 c 1,36,37
 514 697 514 697 536 634 c 128,-1,38
 558 571 558 571 590 509 c 0,39,40
 625 431 625 431 655.5 372.5 c 128,-1,41
 686 314 686 314 712 276 c 2,42,-1
 806 152 l 1,43,-1
 793 104 l 2,0,1
EndSplineSet
EndChar

StartChar: arabicindicdigitnine
Encoding: 1641 1641 61
Width: 757
GlyphClass: 2
Flags: W
LayerCount: 2
Fore
SplineSet
420 579 m 1,0,1
 412 641 412 641 400 663 c 1,2,3
 374 739 374 739 321 752 c 1,4,-1
 317 752 l 2,5,6
 294 752 294 752 257 709 c 1,7,-1
 256 708 l 1,8,9
 225 665 225 665 225 642 c 1,10,11
 231 628 231 628 251.5 616.5 c 128,-1,12
 272 605 272 605 309 586 c 1,13,-1
 311 586 l 1,14,15
 380 562 380 562 398 562 c 2,16,-1
 400 562 l 1,17,-1
 410 564 l 1,18,-1
 420 579 l 1,0,1
660 111 m 2,19,20
 660 82 660 82 636 -5 c 0,21,22
 610 -95 610 -95 608 -97 c 0,23,24
 584 -92 584 -92 522 52 c 1,25,-1
 499 115 l 1,26,-1
 477 185 l 2,27,28
 469 217 469 217 461 258 c 128,-1,29
 453 299 453 299 445 350 c 1,30,-1
 434 360 l 1,31,-1
 419 363 l 1,32,-1
 370 369 l 1,33,34
 315 369 315 369 258 378 c 0,35,36
 201 388 201 388 154 434 c 1,37,-1
 153 434 l 1,38,39
 107 478 107 478 103 539 c 0,40,41
 103 593 103 593 126.5 657 c 128,-1,42
 150 721 150 721 198 794 c 0,43,44
 294 939 294 939 360 939 c 0,45,46
 427 939 427 939 476 842 c 0,47,48
 529 738 529 738 529 544 c 0,49,50
 529 450 529 450 544.5 368.5 c 128,-1,51
 560 287 560 287 595 217 c 0,52,53
 603 200 603 200 615 180.5 c 128,-1,54
 627 161 627 161 642 138 c 1,55,-1
 643 137 l 1,56,-1
 659 119 l 1,57,-1
 660 111 l 2,19,20
EndSplineSet
EndChar

StartChar: arabicpercentsign
Encoding: 1642 1642 62
Width: 567
GlyphClass: 2
Flags: W
LayerCount: 2
Fore
SplineSet
197 869 m 1,0,-1
 31 869 l 1,1,-1
 31 1049 l 1,2,-1
 197 1049 l 1,3,-1
 197 869 l 1,0,-1
520 1049 m 1,4,-1
 109 8 l 1,5,-1
 16 8 l 1,6,-1
 427 1049 l 1,7,-1
 520 1049 l 1,4,-1
508 -7 m 1,8,-1
 341 -7 l 1,9,-1
 341 172 l 1,10,-1
 508 172 l 1,11,-1
 508 -7 l 1,8,-1
EndSplineSet
EndChar

StartChar: arabicfivepointedstar
Encoding: 1645 1645 63
Width: 815
GlyphClass: 2
Flags: W
LayerCount: 2
Fore
SplineSet
765 1190 m 1,0,-1
 547 1029 l 1,1,-1
 629 770 l 1,2,-1
 408 928 l 1,3,-1
 187 770 l 1,4,-1
 269 1029 l 1,5,-1
 51 1190 l 1,6,-1
 322 1190 l 1,7,-1
 408 1450 l 1,8,-1
 494 1190 l 1,9,-1
 765 1190 l 1,0,-1
EndSplineSet
EndChar

StartChar: shaddawithdammatanisolated
Encoding: 64606 64606 65
Width: 482
GlyphClass: 3
Flags: W
LayerCount: 2
Fore
SplineSet
482 1788 m 0,0,1
 482 1779 482 1779 475 1769 c 1,2,3
 451 1775 451 1775 381 1800 c 1,4,5
 248 1730 248 1730 174 1730 c 0,6,7
 132 1730 132 1730 92 1743 c 1,8,9
 156 1777 156 1777 156 1818 c 0,10,11
 156 1872 156 1872 106 1872 c 1,12,13
 113 1872 113 1872 104 1870.5 c 128,-1,14
 95 1869 95 1869 70 1865 c 1,15,16
 94 1941 94 1941 141 1941 c 0,17,18
 166 1941 166 1941 184.5 1919 c 128,-1,19
 203 1897 203 1897 203 1865 c 0,20,21
 203 1841 203 1841 186 1792 c 1,22,23
 258 1800 258 1800 319 1837 c 1,24,25
 266 1873 266 1873 266 1915 c 0,26,27
 266 1951 266 1951 309 1988 c 0,28,29
 352 2027 352 2027 393 2027 c 0,30,31
 415 2027 415 2027 438 2003 c 0,32,33
 461 1977 461 1977 461 1953 c 0,34,35
 461 1925 461 1925 436 1874 c 1,36,37
 482 1846 482 1846 482 1788 c 0,0,1
455 1677 m 0,38,39
 455 1640 455 1640 447 1609 c 128,-1,40
 439 1578 439 1578 425 1556 c 128,-1,41
 411 1534 411 1534 391.5 1521.5 c 128,-1,42
 372 1509 372 1509 350 1509 c 0,43,44
 330 1509 330 1509 282 1532 c 2,45,-1
 278 1534 l 1,46,47
 233 1450 233 1450 174 1450 c 0,48,49
 94 1450 94 1450 94 1554 c 0,50,51
 94 1583 94 1583 117 1650 c 1,52,-1
 137 1652 l 1,53,54
 141 1552 141 1552 186 1552 c 0,55,56
 233 1552 233 1552 272 1687 c 1,57,-1
 291 1689 l 1,58,59
 307 1616 307 1616 356 1616 c 0,60,61
 407 1616 407 1616 430 1726 c 1,62,-1
 450 1726 l 1,63,64
 452 1715 452 1715 453.5 1703 c 128,-1,65
 455 1691 455 1691 455 1677 c 0,38,39
395 1941 m 0,66,67
 395 1982 395 1982 364 1982 c 0,68,69
 334 1982 334 1982 334 1958 c 256,70,71
 334 1934 334 1934 381 1902 c 1,72,73
 395 1928 395 1928 395 1941 c 0,66,67
EndSplineSet
Ligature2: "'liga' Standard Ligatures in Arabic lookup 7 subtable" space shadda dammatan
EndChar

StartChar: shaddawithkasratanisolated
Encoding: 64607 64607 66
Width: 420
GlyphClass: 3
Flags: W
LayerCount: 2
Fore
SplineSet
420 1940 m 0,0,1
 420 1772 420 1772 316 1772 c 0,2,3
 280 1772 280 1772 252 1793 c 1,4,5
 244 1758 244 1758 213 1733 c 0,6,7
 181 1707 181 1707 148 1707 c 0,8,9
 66 1707 66 1707 66 1815 c 0,10,11
 66 1840 66 1840 88 1916 c 1,12,-1
 111 1920 l 1,13,14
 111 1809 111 1809 150 1809 c 0,15,16
 214 1809 214 1809 240 1971 c 1,17,-1
 258 1977 l 1,18,19
 281 1879 281 1879 316 1879 c 0,20,21
 374 1879 374 1879 383 2026 c 1,22,-1
 406 2036 l 1,23,24
 420 1975 420 1975 420 1940 c 0,0,1
412 1773 m 1,25,26
 397 1707 397 1707 353 1687 c 2,27,-1
 70 1560 l 1,28,29
 98 1633 98 1633 156 1659 c 2,30,-1
 412 1773 l 1,25,26
412 1656 m 1,31,32
 397 1594 397 1594 346 1572 c 2,33,-1
 70 1450 l 1,34,35
 90 1520 90 1520 142 1542 c 2,36,-1
 412 1656 l 1,31,32
EndSplineSet
Ligature2: "'liga' Standard Ligatures in Arabic lookup 7 subtable" space shadda kasratan
EndChar

StartChar: shaddawithfathaisolated
Encoding: 64608 64608 67
Width: 414
GlyphClass: 3
Flags: W
LayerCount: 2
Fore
SplineSet
408 1845 m 1,0,1
 398 1784 398 1784 359 1769 c 2,2,-1
 64 1653 l 1,3,4
 91 1722 91 1722 150 1745 c 2,5,-1
 408 1845 l 1,0,1
414 1673 m 0,6,7
 414 1638 414 1638 406 1608.5 c 128,-1,8
 398 1579 398 1579 384 1557 c 128,-1,9
 370 1535 370 1535 350.5 1523 c 128,-1,10
 331 1511 331 1511 308 1511 c 0,11,12
 290 1511 290 1511 246 1534 c 2,13,-1
 242 1536 l 1,14,15
 204 1450 204 1450 138 1450 c 0,16,17
 60 1450 60 1450 60 1548 c 1,18,19
 60 1543 60 1543 66 1609 c 1,20,-1
 95 1628 l 1,21,22
 105 1550 105 1550 148 1550 c 0,23,24
 203 1550 203 1550 236 1683 c 1,25,-1
 258 1689 l 1,26,27
 283 1616 283 1616 316 1616 c 0,28,29
 373 1616 373 1616 381 1738 c 1,30,-1
 408 1747 l 1,31,32
 414 1714 414 1714 414 1673 c 0,6,7
EndSplineSet
Ligature2: "'liga' Standard Ligatures in Arabic lookup 7 subtable" space shadda fatha
EndChar

StartChar: shaddawithdammaisolated
Encoding: 64609 64609 68
Width: 424
GlyphClass: 3
Flags: W
LayerCount: 2
Fore
SplineSet
424 1763 m 1,0,1
 381 1769 381 1769 314 1792 c 1,2,3
 192 1694 192 1694 129 1694 c 0,4,5
 107 1694 107 1694 64 1714 c 1,6,7
 130 1736 130 1736 182.5 1760 c 128,-1,8
 235 1784 235 1784 273 1812 c 1,9,10
 224 1849 224 1849 224 1896 c 0,11,12
 224 1938 224 1938 262 1979 c 0,13,14
 301 2019 301 2019 344 2019 c 0,15,16
 366 2019 366 2019 392 1995 c 0,17,18
 418 1972 418 1972 418 1952 c 0,19,20
 418 1907 418 1907 382 1864 c 1,21,22
 390 1860 390 1860 399 1854.5 c 128,-1,23
 408 1849 408 1849 417 1842 c 0,24,25
 424 1835 424 1835 424 1800 c 2,26,-1
 424 1763 l 1,0,1
418 1720 m 1,27,28
 418 1505 418 1505 310 1505 c 0,29,30
 268 1505 268 1505 240 1530 c 1,31,32
 208 1450 208 1450 136 1450 c 0,33,34
 58 1450 58 1450 58 1548 c 0,35,36
 58 1592 58 1592 80 1632 c 1,37,-1
 101 1634 l 1,38,39
 107 1552 107 1552 148 1552 c 0,40,41
 194 1552 194 1552 236 1671 c 1,42,-1
 260 1677 l 1,43,44
 272 1610 272 1610 314 1610 c 0,45,46
 370 1610 370 1610 394 1714 c 1,47,-1
 418 1720 l 1,27,28
353 1927 m 0,48,49
 353 1976 353 1976 310 1976 c 0,50,51
 285 1976 285 1976 285 1946 c 0,52,53
 285 1922 285 1922 344 1884 c 1,54,55
 353 1908 353 1908 353 1927 c 0,48,49
EndSplineSet
Ligature2: "'liga' Standard Ligatures in Arabic lookup 7 subtable" space shadda damma
EndChar

StartChar: shaddawithkasraisolated
Encoding: 64610 64610 69
Width: 420
GlyphClass: 3
Flags: W
LayerCount: 2
Fore
SplineSet
420 1830 m 0,0,1
 420 1662 420 1662 316 1662 c 0,2,3
 280 1662 280 1662 252 1683 c 1,4,5
 244 1648 244 1648 213 1623 c 0,6,7
 181 1597 181 1597 148 1597 c 0,8,9
 66 1597 66 1597 66 1705 c 0,10,11
 66 1730 66 1730 88 1806 c 1,12,-1
 111 1810 l 1,13,14
 111 1699 111 1699 150 1699 c 0,15,16
 214 1699 214 1699 240 1861 c 1,17,-1
 258 1867 l 1,18,19
 281 1769 281 1769 316 1769 c 0,20,21
 374 1769 374 1769 383 1916 c 1,22,-1
 406 1926 l 1,23,24
 420 1865 420 1865 420 1830 c 0,0,1
412 1663 m 1,25,26
 397 1597 397 1597 353 1577 c 2,27,-1
 70 1450 l 1,28,29
 98 1523 98 1523 156 1549 c 2,30,-1
 412 1663 l 1,25,26
EndSplineSet
Ligature2: "'liga' Standard Ligatures in Arabic lookup 7 subtable" space shadda kasra
EndChar

StartChar: ornateleftparenthesis
Encoding: 64830 64830 70
Width: 750
GlyphClass: 2
Flags: W
LayerCount: 2
Fore
SplineSet
550 -200 m 1,0,-1
 200 -200 l 1,1,-1
 200 1750 l 1,2,-1
 550 1750 l 1,3,-1
 550 1600 l 1,4,-1
 350 1600 l 1,5,-1
 350 -50 l 1,6,-1
 550 -50 l 1,7,-1
 550 -200 l 1,0,-1
EndSplineSet
EndChar

StartChar: ornaterightparenthesis
Encoding: 64831 64831 71
Width: 750
GlyphClass: 2
Flags: W
LayerCount: 2
Fore
SplineSet
544 -200 m 1,0,-1
 194 -200 l 1,1,-1
 194 -50 l 1,2,-1
 394 -50 l 1,3,-1
 394 1600 l 1,4,-1
 194 1600 l 1,5,-1
 194 1750 l 1,6,-1
 544 1750 l 1,7,-1
 544 -200 l 1,0,-1
EndSplineSet
EndChar

StartChar: allahisolated
Encoding: 65010 65010 72
Width: 1557
GlyphClass: 3
Flags: W
LayerCount: 2
Fore
SplineSet
440 673 m 1,0,-1
 441 673 l 1,1,-1
 440 672 l 1,2,-1
 440 673 l 1,0,-1
439 672 m 1,3,-1
 440 672 l 1,4,-1
 439 672 l 1,3,-1
1030 1437 m 1,5,-1
 1029 1414 l 1,6,-1
 1029 1413 l 2,7,8
 1029 1400 1029 1400 1026 1390 c 2,9,-1
 1025 1387 l 1,10,11
 1022 1363 1022 1363 1017 1351 c 1,12,13
 1017 1366 1017 1366 1020 1374 c 2,14,-1
 1021 1379 l 1,15,16
 1021 1410 1021 1410 1012 1442 c 2,17,-1
 997 1502 l 1,18,-1
 1019 1535 l 1,19,-1
 1020 1536 l 1,20,21
 1020 1523 1020 1523 1025 1515 c 2,22,-1
 1028 1502 l 1,23,-1
 1032 1477 l 1,24,-1
 1030 1437 l 1,5,-1
1026 1128 m 1,25,-1
 1011 1123 l 1,26,-1
 1001 1107 l 2,27,28
 997 1100 997 1100 987 1091 c 0,29,30
 964 1076 964 1076 936 1076 c 0,31,32
 914 1076 914 1076 901 1092 c 1,33,34
 891 1111 891 1111 891 1143 c 2,35,-1
 891 1151 l 1,36,-1
 891 1163 l 2,37,38
 891 1167 891 1167 891.5 1170 c 128,-1,39
 892 1173 892 1173 893 1177 c 2,40,-1
 901 1210 l 2,41,42
 905 1222 905 1222 908.5 1229.5 c 128,-1,43
 912 1237 912 1237 914 1241 c 2,44,-1
 913 1219 l 1,45,-1
 906 1170 l 1,46,-1
 906 1168 l 2,47,48
 906 1141 906 1141 914 1133 c 0,49,50
 925 1116 925 1116 959 1116 c 2,51,-1
 961 1116 l 1,52,53
 985 1120 985 1120 992.5 1125.5 c 128,-1,54
 1000 1131 1000 1131 1010 1145 c 1,55,-1
 1012 1154 l 1,56,-1
 1006 1192 l 1,57,-1
 1002 1227 l 1,58,-1
 1005 1240 l 1,59,-1
 1014 1252 l 1,60,-1
 1014 1251 l 2,61,62
 1014 1220 1014 1220 1017 1208 c 2,63,-1
 1018 1206 l 1,64,-1
 1028 1185 l 1,65,-1
 1029 1183 l 1,66,67
 1051 1155 1051 1155 1097 1155 c 1,68,-1
 1110 1169 l 1,69,-1
 1107 1199 l 1,70,-1
 1092 1242 l 1,71,-1
 1111 1266 l 2,72,73
 1111 1261 1111 1261 1112 1260 c 2,74,-1
 1112 1259 l 1,75,-1
 1117 1235 l 1,76,-1
 1118 1214 l 1,77,-1
 1118 1205 l 1,78,-1
 1116 1190 l 1,79,-1
 1116 1189 l 1,80,-1
 1115 1169 l 1,81,-1
 1115 1168 l 2,82,83
 1115 1152 1115 1152 1100 1134 c 0,84,85
 1089 1117 1089 1117 1076 1117 c 2,86,-1
 1047 1120 l 1,87,-1
 1026 1128 l 1,25,-1
490 268 m 1,88,-1
 488 291 l 1,89,-1
 458 540 l 1,90,-1
 439 549 l 1,91,-1
 429 543 l 2,92,93
 418 536 418 536 404.5 516 c 128,-1,94
 391 496 391 496 372 464 c 2,95,-1
 361 444 l 1,96,-1
 355 436 l 1,97,98
 294 418 294 418 252 389 c 128,-1,99
 210 360 210 360 172 315 c 1,100,-1
 178 296 l 1,101,-1
 219 284 l 1,102,-1
 220 283 l 1,103,-1
 312 264 l 1,104,-1
 351 259 l 1,105,-1
 352 259 l 1,106,-1
 392 257 l 1,107,-1
 427 257 l 2,108,109
 439 257 439 257 446 256.5 c 128,-1,110
 453 256 453 256 455 256 c 2,111,-1
 459 255 l 1,112,-1
 478 255 l 1,113,-1
 490 268 l 1,88,-1
1488 327 m 1,114,115
 1488 268 1488 268 1455 163 c 0,116,117
 1438 109 1438 109 1420 74 c 128,-1,118
 1402 39 1402 39 1380 20 c 1,119,120
 1320 -8 1320 -8 1229 -8 c 0,121,122
 1177 -8 1177 -8 1128 6 c 128,-1,123
 1079 20 1079 20 1047 56 c 2,124,-1
 1029 78 l 1,125,-1
 1007 114 l 1,126,-1
 984 111 l 1,127,128
 974 67 974 67 917 33 c 0,129,130
 887 16 887 16 863.5 8 c 128,-1,131
 840 0 840 0 825 0 c 2,132,-1
 624 0 l 2,133,134
 570 0 570 0 533 75 c 0,135,136
 518 112 518 112 500 203 c 1,137,-1
 498 217 l 1,138,-1
 481 226 l 1,139,-1
 469 221 l 1,140,-1
 468 220 l 1,141,142
 444 207 444 207 413 157 c 0,143,144
 384 104 384 104 366 104 c 2,145,-1
 356 106 l 1,146,-1
 298 120 l 1,147,-1
 297 120 l 1,148,149
 209 140 209 140 210 140 c 2,150,-1
 207 141 l 1,151,-1
 110 159 l 1,152,-1
 41 171 l 1,153,154
 48 196 48 196 51.5 209 c 128,-1,155
 55 222 55 222 72 264 c 1,156,-1
 72 265 l 1,157,158
 94 322 94 322 113 357 c 128,-1,159
 132 392 132 392 148 407 c 0,160,161
 153 410 153 410 189.5 431 c 128,-1,162
 226 452 226 452 298 494 c 0,163,164
 418 560 418 560 434 573 c 1,165,-1
 438 582 l 1,166,-1
 437 614 l 2,167,168
 437 625 437 625 435 633 c 0,169,170
 435 644 435 644 430 654 c 1,171,-1
 430 655 l 1,172,-1
 433 661 l 1,173,-1
 441 673 l 1,174,-1
 459 697 l 1,175,-1
 485 727 l 1,176,-1
 486 728 l 1,177,-1
 525 784 l 1,178,-1
 549 594 l 1,179,180
 586 239 586 239 593 227 c 2,181,-1
 594 226 l 1,182,183
 610 198 610 198 631 190 c 1,184,-1
 632 189 l 1,185,186
 652 184 652 184 677 184 c 2,187,-1
 707 183 l 1,188,-1
 752 180 l 1,189,-1
 753 180 l 1,190,-1
 811 179 l 2,191,192
 843 179 843 179 875 186 c 128,-1,193
 907 193 907 193 936 207 c 2,194,-1
 938 208 l 1,195,-1
 976 237 l 2,196,197
 987 245 987 245 987 270 c 0,198,199
 987 303 987 303 980.5 357 c 128,-1,200
 974 411 974 411 961 486 c 2,201,-1
 931 658 l 1,202,-1
 916 740 l 1,203,-1
 907 794 l 2,204,205
 906 804 906 804 904 812 c 128,-1,206
 902 820 902 820 897 840 c 1,207,-1
 921 882 l 1,208,-1
 959 940 l 2,209,210
 1022 1037 1022 1037 1028 1039 c 1,211,-1
 1097 266 l 1,212,-1
 1100 259 l 1,213,214
 1133 225 1133 225 1183 198 c 1,215,-1
 1184 198 l 1,216,217
 1207 188 1207 188 1232 183.5 c 128,-1,218
 1257 179 1257 179 1281 179 c 2,219,-1
 1316 180 l 2,220,221
 1325 180 1325 180 1336.5 183 c 128,-1,222
 1348 186 1348 186 1359.5 193 c 128,-1,223
 1371 200 1371 200 1382 211.5 c 128,-1,224
 1393 223 1393 223 1400 239 c 1,225,-1
 1401 247 l 1,226,-1
 1274 686 l 1,227,-1
 1324 797 l 1,228,-1
 1357 860 l 2,229,230
 1377 894 1377 894 1381 898 c 1,231,-1
 1425 695 l 1,232,-1
 1465 492 l 1,233,-1
 1478 408 l 1,234,-1
 1488 327 l 1,114,115
EndSplineSet
Ligature2: "'liga' Standard Ligatures in Arabic lookup 6 subtable" laminitial lammedial hehfinal
EndChar

StartChar: fathatanisolated
Encoding: 65136 65136 73
Width: 408
GlyphClass: 2
Flags: W
LayerCount: 2
Fore
SplineSet
408 2054 m 1,0,1
 408 1988 408 1988 373 1968 c 2,2,-1
 70 1796 l 1,3,4
 73 1834 73 1834 84 1855 c 0,5,6
 96 1875 96 1875 136 1897 c 2,7,-1
 408 2054 l 1,0,1
408 1908 m 1,8,9
 408 1842 408 1842 373 1822 c 2,10,-1
 70 1650 l 1,11,12
 73 1688 73 1688 84 1709 c 0,13,14
 96 1729 96 1729 136 1751 c 2,15,-1
 408 1908 l 1,8,9
EndSplineSet
EndChar

StartChar: dammatanisolated
Encoding: 65138 65138 74
Width: 463
GlyphClass: 2
Flags: W
LayerCount: 2
Fore
SplineSet
463 1582 m 0,0,1
 463 1565 463 1565 462.5 1550 c 128,-1,2
 462 1535 462 1535 461 1523 c 1,3,4
 441 1534 441 1534 418 1548.5 c 128,-1,5
 395 1563 395 1563 369 1582 c 1,6,7
 243 1453 243 1453 129 1437 c 1,8,9
 172 1526 172 1526 172 1566 c 0,10,11
 172 1621 172 1621 123 1621 c 0,12,13
 81 1621 81 1621 74 1545 c 1,14,15
 64 1574 64 1574 64 1597 c 256,16,17
 64 1620 64 1620 70.5 1640 c 128,-1,18
 77 1660 77 1660 88.5 1675 c 128,-1,19
 100 1690 100 1690 115 1698.5 c 128,-1,20
 130 1707 130 1707 148 1707 c 0,21,22
 215 1707 215 1707 215 1607 c 1,23,-1
 209 1515 l 1,24,25
 274 1540 274 1540 333 1605 c 1,26,27
 267 1648 267 1648 267 1699 c 0,28,29
 267 1752 267 1752 307 1798 c 0,30,31
 347 1846 347 1846 389 1846 c 0,32,33
 411 1846 411 1846 434 1819 c 0,34,35
 457 1793 457 1793 457 1766 c 0,36,37
 457 1736 457 1736 446 1708 c 2,38,-1
 424 1652 l 1,39,40
 463 1622 463 1622 463 1582 c 0,0,1
387 1726 m 0,41,42
 387 1779 387 1779 346 1779 c 0,43,44
 320 1779 320 1779 320 1756 c 0,45,46
 320 1730 320 1730 383 1687 c 1,47,48
 387 1696 387 1696 387 1726 c 0,41,42
EndSplineSet
EndChar

StartChar: kasratanisolated
Encoding: 65140 65140 75
Width: 408
GlyphClass: 2
Flags: W
LayerCount: 2
Fore
SplineSet
408 -620 m 1,0,1
 408 -686 408 -686 373 -706 c 2,2,-1
 70 -878 l 1,3,4
 73 -840 73 -840 84 -818 c 0,5,6
 97 -800 97 -800 136 -777 c 2,7,-1
 408 -620 l 1,0,1
408 -767 m 1,8,9
 408 -833 408 -833 373 -853 c 2,10,-1
 70 -1025 l 1,11,12
 73 -987 73 -987 84 -965 c 0,13,14
 97 -947 97 -947 136 -924 c 2,15,-1
 408 -767 l 1,8,9
EndSplineSet
EndChar

StartChar: fathaisolated
Encoding: 65142 65142 76
Width: 408
GlyphClass: 2
Flags: W
LayerCount: 2
Fore
SplineSet
408 1708 m 1,0,1
 408 1642 408 1642 373 1622 c 2,2,-1
 70 1450 l 1,3,4
 73 1488 73 1488 84 1509 c 0,5,6
 96 1529 96 1529 136 1551 c 2,7,-1
 408 1708 l 1,0,1
EndSplineSet
EndChar

StartChar: dammaisolated
Encoding: 65144 65144 77
Width: 414
GlyphClass: 2
Flags: W
LayerCount: 2
Fore
SplineSet
414 1641 m 1,0,-1
 406 1542 l 1,1,-1
 326 1594 l 1,2,3
 206 1450 206 1450 129 1450 c 0,4,5
 110 1450 110 1450 70 1462 c 1,6,7
 172 1519 172 1519 283 1618 c 1,8,9
 222 1663 222 1663 222 1708 c 0,10,11
 222 1768 222 1768 267 1833 c 0,12,13
 297 1876 297 1876 338 1876 c 0,14,15
 406 1876 406 1876 406 1788 c 0,16,17
 406 1737 406 1737 375 1671 c 1,18,19
 388 1660 388 1660 414 1641 c 1,0,-1
344 1729 m 0,20,21
 344 1752 344 1752 328 1771 c 128,-1,22
 312 1790 312 1790 291 1790 c 0,23,24
 273 1790 273 1790 273 1770 c 0,25,26
 273 1739 273 1739 338 1695 c 1,27,28
 344 1714 344 1714 344 1729 c 0,20,21
EndSplineSet
EndChar

StartChar: kasraisolated
Encoding: 65146 65146 78
Width: 408
GlyphClass: 2
Flags: W
LayerCount: 2
Fore
SplineSet
408 -620 m 1,0,1
 408 -686 408 -686 373 -706 c 2,2,-1
 70 -878 l 1,3,4
 73 -840 73 -840 84 -818 c 0,5,6
 97 -800 97 -800 136 -777 c 2,7,-1
 408 -620 l 1,0,1
EndSplineSet
EndChar

StartChar: shaddaisolated
Encoding: 65148 65148 79
Width: 420
GlyphClass: 2
Flags: W
LayerCount: 2
Fore
SplineSet
420 1683 m 0,0,1
 420 1515 420 1515 316 1515 c 0,2,3
 280 1515 280 1515 252 1536 c 1,4,5
 244 1501 244 1501 213 1476 c 0,6,7
 181 1450 181 1450 148 1450 c 0,8,9
 66 1450 66 1450 66 1558 c 0,10,11
 66 1583 66 1583 88 1659 c 1,12,-1
 111 1663 l 1,13,14
 111 1552 111 1552 150 1552 c 0,15,16
 214 1552 214 1552 240 1714 c 1,17,-1
 258 1720 l 1,18,19
 281 1622 281 1622 316 1622 c 0,20,21
 374 1622 374 1622 383 1769 c 1,22,-1
 406 1779 l 1,23,24
 420 1718 420 1718 420 1683 c 0,0,1
EndSplineSet
EndChar

StartChar: sukunisolated
Encoding: 65150 65150 80
Width: 332
GlyphClass: 2
Flags: W
LayerCount: 2
Fore
SplineSet
332 1614 m 0,0,1
 332 1549 332 1549 286 1500 c 0,2,3
 239 1450 239 1450 181 1450 c 0,4,5
 74 1450 74 1450 74 1571 c 0,6,7
 74 1655 74 1655 112 1708 c 0,8,9
 149 1762 149 1762 211 1762 c 0,10,11
 258 1762 258 1762 295 1716 c 0,12,13
 332 1673 332 1673 332 1614 c 0,0,1
277 1590 m 0,14,15
 277 1616 277 1616 234 1647 c 0,16,17
 193 1676 193 1676 166 1676 c 0,18,19
 107 1676 107 1676 107 1608 c 0,20,21
 107 1549 107 1549 199 1549 c 0,22,23
 277 1549 277 1549 277 1590 c 0,14,15
EndSplineSet
EndChar

StartChar: hamzaisolated
Encoding: 65152 65152 81
Width: 625
GlyphClass: 2
Flags: W
AnchorPoint: "ArabicBelow" 312 -385 basechar 0
AnchorPoint: "ArabicAbove" 312 746 basechar 0
LayerCount: 2
Fore
SplineSet
513 40 m 1,0,1
 480 40 480 40 449.5 36.5 c 128,-1,2
 419 33 419 33 393 25 c 2,3,-1
 276 -4 l 2,4,5
 266 -6 266 -6 221.5 -32 c 128,-1,6
 177 -58 177 -58 96 -109 c 1,7,-1
 56 -127 l 1,8,-1
 43 -135 l 1,9,10
 43 -126 43 -126 87 -70 c 0,11,12
 108 -47 108 -47 136 -24.5 c 128,-1,13
 164 -2 164 -2 201 17 c 2,14,-1
 225 29 l 1,15,-1
 220 53 l 1,16,17
 109 67 109 67 97 72 c 1,18,-1
 96 73 l 1,19,20
 22 93 22 93 22 136 c 0,21,22
 22 249 22 249 112 362 c 0,23,24
 219 496 219 496 382 496 c 0,25,26
 417 496 417 496 452 469 c 1,27,28
 488 434 488 434 488 402 c 1,29,-1
 412 295 l 1,30,-1
 380 319 l 2,31,32
 351 338 351 338 319.5 348.5 c 128,-1,33
 288 359 288 359 272 359 c 0,34,35
 248 359 248 359 233 354.5 c 128,-1,36
 218 350 218 350 191 335 c 0,37,38
 135 309 135 309 135 267 c 0,39,40
 135 220 135 220 275 194 c 1,41,-1
 426 178 l 1,42,-1
 521 173 l 1,43,-1
 601 173 l 1,44,-1
 513 40 l 1,0,1
EndSplineSet
EndChar

StartChar: alefwithmaddaaboveisolated
Encoding: 65153 65153 82
Width: 455
GlyphClass: 2
Flags: W
AnchorPoint: "ArabicBelow" 227 -283 basechar 0
AnchorPoint: "ArabicAbove" 227 1468 basechar 0
LayerCount: 2
Fore
SplineSet
463 1215 m 2,0,1
 464 1216 464 1216 471 1218 c 1,2,-1
 435 1176 l 1,3,4
 352 1116 352 1116 303 1116 c 0,5,6
 253 1116 253 1116 216 1126 c 1,7,-1
 191 1136 l 1,8,-1
 154 1158 l 1,9,-1
 137 1153 l 1,10,11
 132 1143 132 1143 126 1132 c 128,-1,12
 120 1121 120 1121 110 1107 c 1,13,-1
 110 1106 l 1,14,15
 97 1088 97 1088 92 1083 c 2,16,-1
 136 1176 l 1,17,-1
 157 1213 l 1,18,19
 165 1208 165 1208 179.5 1201.5 c 128,-1,20
 194 1195 194 1195 211 1187 c 2,21,-1
 263 1169 l 2,22,23
 287 1163 287 1163 310 1163 c 0,24,25
 357 1163 357 1163 462 1215 c 1,26,-1
 463 1215 l 2,0,1
363 297 m 0,27,28
 363 231 363 231 354.5 174.5 c 128,-1,29
 346 118 346 118 329 67 c 1,30,31
 315 5 315 5 292 -33 c 1,32,-1
 204 883 l 2,33,34
 204 889 204 889 216.5 914.5 c 128,-1,35
 229 940 229 940 257 985 c 1,36,-1
 312 1094 l 1,37,-1
 332 932 l 2,38,39
 343 856 343 856 354 625 c 128,-1,40
 365 394 365 394 363 297 c 0,27,28
EndSplineSet
EndChar

StartChar: alefwithmaddaabovefinal
Encoding: 65154 65154 83
Width: 462
GlyphClass: 2
Flags: W
AnchorPoint: "ArabicBelow" 231 -250 basechar 0
AnchorPoint: "ArabicAbove" 231 1478 basechar 0
LayerCount: 2
Fore
SplineSet
439 1224 m 0,0,1
 442 1225 442 1225 444.5 1226 c 128,-1,2
 447 1227 447 1227 449 1228 c 2,3,-1
 406 1179 l 1,4,5
 318 1112 318 1112 263 1112 c 2,6,-1
 204 1112 l 1,7,-1
 163 1122 l 2,8,9
 152 1125 152 1125 136 1134.5 c 128,-1,10
 120 1144 120 1144 97 1160 c 1,11,-1
 80 1156 l 1,12,-1
 52 1109 l 2,13,14
 37 1087 37 1087 22 1072 c 1,15,16
 27 1083 27 1083 35 1100.5 c 128,-1,17
 43 1118 43 1118 55 1144 c 2,18,-1
 99 1223 l 1,19,-1
 186 1186 l 2,20,21
 231 1170 231 1170 271 1170 c 0,22,23
 296 1170 296 1170 337.5 1183 c 128,-1,24
 379 1196 379 1196 439 1224 c 0,0,1
178 0 m 1,25,-1
 109 962 l 1,26,-1
 215 1090 l 1,27,28
 215 996 215 996 248 565 c 1,29,30
 264 415 264 415 274 316 c 128,-1,31
 284 217 284 217 288 205 c 2,32,-1
 290 189 l 1,33,-1
 302 165 l 2,34,35
 310 157 310 157 335 149 c 1,36,-1
 369 146 l 1,37,-1
 429 146 l 1,38,-1
 429 0 l 1,39,-1
 178 0 l 1,25,-1
EndSplineSet
EndChar

StartChar: alefwithhamzaaboveisolated
Encoding: 65155 65155 84
Width: 426
GlyphClass: 2
Flags: W
AnchorPoint: "ArabicBelow" 213 -283 basechar 0
AnchorPoint: "ArabicAbove" 213 1555 basechar 0
LayerCount: 2
Fore
SplineSet
389 1120 m 1,0,-1
 339 1115 l 2,1,2
 301 1111 301 1111 239 1072 c 2,3,-1
 186 1037 l 2,4,5
 185 1039 185 1039 185 1043 c 0,6,7
 185 1062 185 1062 217 1088 c 2,8,-1
 256 1120 l 1,9,-1
 223 1123 l 1,10,-1
 207 1126 l 1,11,-1
 189 1132 l 2,12,13
 160 1140 160 1140 160 1155 c 0,14,15
 160 1196 160 1196 201 1247 c 0,16,17
 247 1305 247 1305 308 1305 c 0,18,19
 324 1305 324 1305 334 1295.5 c 128,-1,20
 344 1286 344 1286 348 1271 c 1,21,-1
 343 1257 l 2,22,23
 340 1248 340 1248 337 1245 c 0,24,25
 332 1234 332 1234 325 1226 c 1,26,27
 310 1256 310 1256 273 1256 c 0,28,29
 246 1256 246 1256 227 1246.5 c 128,-1,30
 208 1237 208 1237 199 1217 c 1,31,-1
 198 1209 l 2,32,33
 198 1193 198 1193 229 1186 c 2,34,-1
 274 1176 l 1,35,-1
 418 1176 l 1,36,-1
 389 1120 l 1,0,-1
363 297 m 0,37,38
 363 231 363 231 354.5 174.5 c 128,-1,39
 346 118 346 118 329 67 c 1,40,41
 315 5 315 5 292 -33 c 1,42,-1
 204 883 l 2,43,44
 204 889 204 889 216.5 914.5 c 128,-1,45
 229 940 229 940 257 985 c 1,46,-1
 312 1094 l 1,47,-1
 332 932 l 2,48,49
 343 856 343 856 354 625 c 128,-1,50
 365 394 365 394 363 297 c 0,37,38
EndSplineSet
EndChar

StartChar: alefwithhamzaabovefinal
Encoding: 65156 65156 85
Width: 420
GlyphClass: 2
Flags: W
AnchorPoint: "ArabicBelow" 210 -250 basechar 0
AnchorPoint: "ArabicAbove" 210 1592 basechar 0
LayerCount: 2
Fore
SplineSet
303 1140 m 1,0,-1
 249 1134 l 2,1,2
 206 1130 206 1130 139 1087 c 2,3,-1
 81 1049 l 2,4,5
 80 1051 80 1051 80 1055 c 0,6,7
 80 1073 80 1073 115 1105 c 2,8,-1
 158 1140 l 1,9,-1
 122 1143 l 1,10,-1
 104 1146 l 1,11,-1
 85 1153 l 2,12,13
 53 1161 53 1161 53 1178 c 0,14,15
 53 1220 53 1220 97 1279 c 0,16,17
 149 1342 149 1342 215 1342 c 0,18,19
 232 1342 232 1342 243 1331.5 c 128,-1,20
 254 1321 254 1321 258 1305 c 1,21,-1
 253 1290 l 2,22,23
 250 1280 250 1280 246 1276 c 0,24,25
 240 1263 240 1263 233 1256 c 1,26,27
 216 1288 216 1288 176 1288 c 0,28,29
 115 1288 115 1288 96 1246 c 1,30,-1
 94 1237 l 2,31,32
 94 1219 94 1219 128 1212 c 2,33,-1
 178 1201 l 1,34,-1
 335 1201 l 1,35,-1
 303 1140 l 1,0,-1
178 0 m 1,36,-1
 109 962 l 1,37,-1
 215 1090 l 1,38,39
 215 996 215 996 248 565 c 1,40,41
 264 415 264 415 274 316 c 128,-1,42
 284 217 284 217 288 205 c 2,43,-1
 290 189 l 1,44,-1
 302 165 l 2,45,46
 310 157 310 157 335 149 c 1,47,-1
 369 146 l 1,48,-1
 429 146 l 1,49,-1
 429 0 l 1,50,-1
 178 0 l 1,36,-1
EndSplineSet
EndChar

StartChar: wawwithhamzaaboveisolated
Encoding: 65157 65157 86
Width: 842
GlyphClass: 2
Flags: W
AnchorPoint: "ArabicBelow" 421 -667 basechar 0
AnchorPoint: "ArabicAbove" 421 1163 basechar 0
LayerCount: 2
Fore
SplineSet
604 711 m 1,0,-1
 550 705 l 2,1,2
 507 701 507 701 440 658 c 2,3,-1
 382 620 l 2,4,5
 381 622 381 622 381 626 c 0,6,7
 381 644 381 644 416 676 c 2,8,-1
 459 711 l 1,9,-1
 423 714 l 1,10,-1
 405 717 l 1,11,-1
 386 724 l 2,12,13
 354 732 354 732 354 749 c 0,14,15
 354 791 354 791 398 850 c 0,16,17
 450 913 450 913 516 913 c 0,18,19
 533 913 533 913 544 902.5 c 128,-1,20
 555 892 555 892 559 876 c 1,21,-1
 554 861 l 2,22,23
 551 851 551 851 547 847 c 0,24,25
 541 834 541 834 534 827 c 1,26,27
 517 859 517 859 477 859 c 0,28,29
 416 859 416 859 397 817 c 1,30,-1
 395 808 l 2,31,32
 395 790 395 790 429 783 c 2,33,-1
 479 772 l 1,34,-1
 636 772 l 1,35,-1
 604 711 l 1,0,-1
648 351 m 0,36,37
 607 390 607 390 566 390 c 0,38,39
 548 390 548 390 524 381 c 128,-1,40
 500 372 500 372 477 352 c 0,41,42
 432 314 432 314 432 282 c 0,43,44
 432 255 432 255 459 240 c 0,45,46
 486 226 486 226 511 218 c 0,47,48
 530 213 530 213 547.5 210.5 c 128,-1,49
 565 208 565 208 580 208 c 0,50,51
 591 208 591 208 596 209 c 0,52,53
 614 211 614 211 645 224 c 0,54,55
 662 231 662 231 671 236 c 128,-1,56
 680 241 680 241 682 243 c 0,57,58
 686 248 686 248 686 280 c 0,59,60
 686 310 686 310 648 351 c 0,36,37
826 208 m 0,61,62
 826 0 826 0 723 -202 c 1,63,64
 580 -417 580 -417 412 -417 c 0,65,66
 383 -417 383 -417 307 -407 c 0,67,68
 240 -397 240 -397 207 -386 c 0,69,70
 190 -381 190 -381 162 -373 c 128,-1,71
 134 -365 134 -365 93 -354 c 0,72,73
 13 -334 13 -334 7 -316 c 0,74,75
 7 -314 7 -314 23 -310 c 1,76,-1
 52 -315 l 1,77,-1
 133 -334 l 1,78,-1
 180 -342 l 1,79,-1
 229 -346 l 2,80,81
 258 -346 258 -346 278 -341 c 2,82,-1
 305 -334 l 1,83,-1
 326 -325 l 2,84,85
 407 -291 407 -291 478.5 -243.5 c 128,-1,86
 550 -196 550 -196 618 -130 c 0,87,88
 764 8 764 8 764 119 c 0,89,90
 764 141 764 141 755 177 c 0,91,92
 750 201 750 201 743 216 c 1,93,-1
 721 216 l 1,94,-1
 705 186 l 1,95,96
 667 125 667 125 652 107 c 0,97,98
 605 60 605 60 513 60 c 0,99,100
 429 60 429 60 396 133 c 0,101,102
 364 210 364 210 394.5 293 c 128,-1,103
 425 376 425 376 469 442 c 0,104,105
 559 575 559 575 635 565 c 1,106,107
 690 565 690 565 757 448 c 1,108,109
 826 340 826 340 826 208 c 0,61,62
EndSplineSet
EndChar

StartChar: wawwithhamzaabovefinal
Encoding: 65158 65158 87
Width: 842
GlyphClass: 2
Flags: W
AnchorPoint: "ArabicBelow" 421 -644 basechar 0
AnchorPoint: "ArabicAbove" 421 1192 basechar 0
LayerCount: 2
Fore
SplineSet
607 740 m 1,0,-1
 553 734 l 2,1,2
 510 730 510 730 443 687 c 2,3,-1
 385 649 l 2,4,5
 384 651 384 651 384 655 c 0,6,7
 384 673 384 673 419 705 c 2,8,-1
 462 740 l 1,9,-1
 426 743 l 1,10,-1
 408 746 l 1,11,-1
 389 753 l 2,12,13
 357 761 357 761 357 778 c 0,14,15
 357 820 357 820 401 879 c 0,16,17
 453 942 453 942 519 942 c 0,18,19
 536 942 536 942 547 931.5 c 128,-1,20
 558 921 558 921 562 905 c 1,21,-1
 557 890 l 2,22,23
 554 880 554 880 550 876 c 0,24,25
 544 863 544 863 537 856 c 1,26,27
 520 888 520 888 480 888 c 0,28,29
 419 888 419 888 400 846 c 1,30,-1
 398 837 l 2,31,32
 398 819 398 819 432 812 c 2,33,-1
 482 801 l 1,34,-1
 639 801 l 1,35,-1
 607 740 l 1,0,-1
628 300 m 2,36,37
 591 358 591 358 539 358 c 0,38,39
 495 358 495 358 472 331 c 0,40,41
 437 294 437 294 427 259 c 1,42,43
 427 210 427 210 483 171 c 0,44,45
 511 153 511 153 538 145.5 c 128,-1,46
 565 138 565 138 596 138 c 0,47,48
 656 138 656 138 677 175 c 1,49,-1
 678 186 l 1,50,51
 659 247 659 247 646 274 c 1,52,-1
 628 300 l 2,36,37
774 0 m 1,53,-1
 762 -9 l 1,54,55
 745 -75 745 -75 708.5 -135.5 c 128,-1,56
 672 -196 672 -196 614.5 -258 c 128,-1,57
 557 -320 557 -320 503 -357 c 128,-1,58
 449 -394 449 -394 404.5 -394 c 128,-1,59
 360 -394 360 -394 292 -375 c 128,-1,60
 224 -356 224 -356 119 -311 c 128,-1,61
 14 -266 14 -266 9 -245 c 0,62,63
 9 -243 9 -243 16 -242 c 2,64,-1
 155 -283 l 1,65,-1
 200 -288 l 1,66,67
 273 -288 273 -288 339 -270 c 0,68,69
 371 -261 371 -261 407 -242 c 128,-1,70
 443 -223 443 -223 483 -193 c 0,71,72
 521 -165 521 -165 553 -140 c 128,-1,73
 585 -115 585 -115 608 -92 c 0,74,75
 662 -45 662 -45 665 0 c 1,76,-1
 639 0 l 2,77,78
 525 0 525 0 444 23 c 1,79,-1
 444 24 l 1,80,81
 331 56 331 56 331 143 c 0,82,83
 331 177 331 177 351 232.5 c 128,-1,84
 371 288 371 288 404 353 c 1,85,86
 497 507 497 507 589 507 c 0,87,88
 660 507 660 507 730 379 c 1,89,90
 782 247 782 247 802 158 c 1,91,-1
 814 146 l 1,92,-1
 860 146 l 1,93,-1
 844 0 l 1,94,-1
 774 0 l 1,53,-1
EndSplineSet
EndChar

StartChar: alefwithhamzabelowisolated
Encoding: 65159 65159 88
Width: 402
GlyphClass: 2
Flags: W
AnchorPoint: "ArabicBelow" 201 -543 basechar 0
AnchorPoint: "ArabicAbove" 201 1344 basechar 0
LayerCount: 2
Fore
SplineSet
389 -170 m 1,0,-1
 262 -170 l 1,1,-1
 221 -161 l 2,2,3
 193 -154 193 -154 193 -140 c 2,4,-1
 195 -133 l 1,5,6
 211 -99 211 -99 260 -99 c 0,7,8
 292 -99 292 -99 306 -125 c 1,9,10
 313 -118 313 -118 317 -109 c 0,11,12
 321 -103 321 -103 322 -97 c 2,13,-1
 326 -85 l 1,14,15
 323 -72 323 -72 314 -63.5 c 128,-1,16
 305 -55 305 -55 292 -55 c 0,17,18
 238 -55 238 -55 196 -106 c 0,19,20
 160 -153 160 -153 160 -188 c 0,21,22
 160 -203 160 -203 186 -209 c 2,23,-1
 201 -214 l 1,24,-1
 216 -217 l 1,25,-1
 245 -219 l 1,26,-1
 210 -248 l 2,27,28
 182 -272 182 -272 182 -287 c 0,29,30
 182 -291 182 -291 183 -293 c 2,31,-1
 230 -262 l 2,32,33
 281 -229 281 -229 319 -224 c 2,34,-1
 363 -219 l 1,35,-1
 389 -170 l 1,0,-1
363 297 m 0,36,37
 363 231 363 231 354.5 174.5 c 128,-1,38
 346 118 346 118 329 67 c 1,39,40
 315 5 315 5 292 -33 c 1,41,-1
 204 883 l 2,42,43
 204 889 204 889 216.5 914.5 c 128,-1,44
 229 940 229 940 257 985 c 1,45,-1
 312 1094 l 1,46,-1
 332 932 l 2,47,48
 343 856 343 856 354 625 c 128,-1,49
 365 394 365 394 363 297 c 0,36,37
EndSplineSet
EndChar

StartChar: alefwithhamzabelowfinal
Encoding: 65160 65160 89
Width: 413
GlyphClass: 2
Flags: W
AnchorPoint: "ArabicBelow" 206 -513 basechar 0
AnchorPoint: "ArabicAbove" 206 1340 basechar 0
LayerCount: 2
Fore
SplineSet
334 -189 m 1,0,-1
 290 -194 l 2,1,2
 252 -199 252 -199 201 -232 c 2,3,-1
 154 -263 l 2,4,5
 153 -261 153 -261 153 -257 c 0,6,7
 153 -242 153 -242 181 -218 c 2,8,-1
 216 -189 l 1,9,-1
 187 -187 l 1,10,-1
 172 -184 l 1,11,-1
 157 -179 l 2,12,13
 131 -173 131 -173 131 -158 c 0,14,15
 131 -123 131 -123 167 -76 c 0,16,17
 209 -25 209 -25 263 -25 c 0,18,19
 276 -25 276 -25 285 -33.5 c 128,-1,20
 294 -42 294 -42 297 -55 c 1,21,-1
 293 -67 l 2,22,23
 292 -73 292 -73 288 -79 c 0,24,25
 284 -88 284 -88 277 -95 c 1,26,27
 263 -69 263 -69 231 -69 c 0,28,29
 182 -69 182 -69 166 -103 c 1,30,-1
 164 -110 l 2,31,32
 164 -124 164 -124 192 -131 c 2,33,-1
 233 -140 l 1,34,-1
 360 -140 l 1,35,-1
 334 -189 l 1,0,-1
178 0 m 1,36,-1
 109 962 l 1,37,-1
 215 1090 l 1,38,39
 215 996 215 996 248 565 c 1,40,41
 264 415 264 415 274 316 c 128,-1,42
 284 217 284 217 288 205 c 2,43,-1
 290 189 l 1,44,-1
 302 165 l 2,45,46
 310 157 310 157 335 149 c 1,47,-1
 369 146 l 1,48,-1
 429 146 l 1,49,-1
 429 0 l 1,50,-1
 178 0 l 1,36,-1
EndSplineSet
EndChar

StartChar: yehwithhamzaaboveisolated
Encoding: 65161 65161 90
Width: 1085
GlyphClass: 2
Flags: W
AnchorPoint: "ArabicBelow" 542 -556 basechar 0
AnchorPoint: "ArabicAbove" 542 1066 basechar 0
LayerCount: 2
Fore
SplineSet
294 696 m 0,0,1
 294 658 294 658 268.5 625 c 128,-1,2
 243 592 243 592 183 562 c 0,3,4
 172 556 172 556 161 551 c 0,5,6
 156 549 156 549 152 547 c 2,7,-1
 144 543 l 2,8,9
 92 517 92 517 60.5 500.5 c 128,-1,10
 29 484 29 484 17 472 c 1,11,-1
 0 468 l 1,12,-1
 -15 469 l 2,13,14
 -27 469 -27 469 -28 479 c 0,15,16
 -28 489 -28 489 5 525 c 1,17,-1
 53 566 l 1,18,-1
 -2 578 l 1,19,20
 -23 587 -23 587 -42 639 c 1,21,22
 -31 677 -31 677 -14 709.5 c 128,-1,23
 3 742 3 742 23 765.5 c 128,-1,24
 43 789 43 789 65.5 802.5 c 128,-1,25
 88 816 88 816 111 816 c 0,26,27
 129 816 129 816 147 806 c 128,-1,28
 165 796 165 796 165 772 c 2,29,-1
 160 727 l 1,30,-1
 157 715 l 1,31,-1
 142 698 l 1,32,-1
 124 693 l 1,33,-1
 101 695 l 1,34,-1
 96 708 l 1,35,36
 96 720 96 720 91 720 c 0,37,38
 50 715 50 715 37 707.5 c 128,-1,39
 24 700 24 700 24 683 c 1,40,41
 54 652 54 652 86 642 c 2,42,-1
 144 628 l 1,43,44
 164 636 164 636 182.5 645.5 c 128,-1,45
 201 655 201 655 218 666 c 2,46,-1
 279 707 l 2,47,48
 281 708 281 708 285 708 c 0,49,50
 294 708 294 708 294 696 c 0,0,1
1061 465 m 1,51,-1
 1055 494 l 2,52,53
 1037 566 1037 566 954 566 c 0,54,55
 864 566 864 566 752 482 c 0,56,57
 637 398 637 398 637 332 c 0,58,59
 633 250 633 250 838 226 c 1,60,61
 1024 210 1024 210 1024 138 c 0,62,63
 1021 106 1021 106 1014 78 c 128,-1,64
 1007 50 1007 50 998 27 c 2,65,-1
 952 -88 l 2,66,67
 939 -117 939 -117 855 -167 c 128,-1,68
 771 -217 771 -217 665 -256.5 c 128,-1,69
 559 -296 559 -296 396 -306 c 1,70,71
 22 -306 22 -306 22 -57 c 0,72,73
 22 24 22 24 36 105.5 c 128,-1,74
 50 187 50 187 79 268 c 1,75,76
 142 409 142 409 156 409 c 1,77,78
 155 409 155 409 155 387 c 0,79,80
 155 373 155 373 145.5 338.5 c 128,-1,81
 136 304 136 304 119 247 c 0,82,83
 100 187 100 187 90.5 145.5 c 128,-1,84
 81 104 81 104 81 76 c 0,85,86
 81 -31 81 -31 203 -96 c 1,87,88
 306 -140 306 -140 435 -140 c 0,89,90
 476 -137 476 -137 513 -132.5 c 128,-1,91
 550 -128 550 -128 584.5 -121 c 128,-1,92
 619 -114 619 -114 652.5 -106 c 128,-1,93
 686 -98 686 -98 721 -88 c 0,94,95
 790 -68 790 -68 839.5 -49.5 c 128,-1,96
 889 -31 889 -31 918 -9 c 1,97,-1
 923 1 l 1,98,99
 923 63 923 63 719 86 c 0,100,101
 538 107 538 107 538 177 c 0,102,103
 538 317 538 317 671 510 c 1,104,105
 830 731 830 731 1002 731 c 0,106,107
 1020 731 1020 731 1032 730 c 128,-1,108
 1044 729 1044 729 1052.5 727 c 128,-1,109
 1061 725 1061 725 1067.5 721.5 c 128,-1,110
 1074 718 1074 718 1082 713 c 0,111,112
 1106 699 1106 699 1106 662 c 1,113,-1
 1068 493 l 1,114,-1
 1061 465 l 1,51,-1
EndSplineSet
EndChar

StartChar: yehwithhamzaabovefinal
Encoding: 65162 65162 91
Width: 1046
GlyphClass: 2
Flags: W
AnchorPoint: "ArabicBelow" 523 -874 basechar 0
AnchorPoint: "ArabicAbove" 523 907 basechar 0
LayerCount: 2
Fore
SplineSet
343 537 m 0,0,1
 343 499 343 499 317.5 466 c 128,-1,2
 292 433 292 433 232 403 c 0,3,4
 221 397 221 397 210 392 c 0,5,6
 205 390 205 390 201 388 c 2,7,-1
 193 384 l 2,8,9
 141 358 141 358 109.5 341.5 c 128,-1,10
 78 325 78 325 66 313 c 1,11,-1
 49 309 l 1,12,-1
 34 310 l 2,13,14
 22 310 22 310 21 320 c 0,15,16
 21 330 21 330 54 366 c 1,17,-1
 102 407 l 1,18,-1
 47 419 l 1,19,20
 26 428 26 428 7 480 c 1,21,22
 18 518 18 518 35 550.5 c 128,-1,23
 52 583 52 583 72 606.5 c 128,-1,24
 92 630 92 630 114.5 643.5 c 128,-1,25
 137 657 137 657 160 657 c 0,26,27
 178 657 178 657 196 647 c 128,-1,28
 214 637 214 637 214 613 c 2,29,-1
 209 568 l 1,30,-1
 206 556 l 1,31,-1
 191 539 l 1,32,-1
 173 534 l 1,33,-1
 150 536 l 1,34,-1
 145 549 l 1,35,36
 145 561 145 561 140 561 c 0,37,38
 99 556 99 556 86 548.5 c 128,-1,39
 73 541 73 541 73 524 c 1,40,41
 103 493 103 493 135 483 c 2,42,-1
 193 469 l 1,43,44
 213 477 213 477 231.5 486.5 c 128,-1,45
 250 496 250 496 267 507 c 2,46,-1
 328 548 l 2,47,48
 330 549 330 549 334 549 c 0,49,50
 343 549 343 549 343 537 c 0,0,1
1047 -195 m 1,51,52
 1027 -296 1027 -296 908.5 -404.5 c 128,-1,53
 790 -513 790 -513 670.5 -565 c 128,-1,54
 551 -617 551 -617 439 -623 c 128,-1,55
 327 -629 327 -629 238 -608.5 c 128,-1,56
 149 -588 149 -588 92 -524.5 c 128,-1,57
 35 -461 35 -461 19 -413 c 0,58,59
 -1 -351 -1 -351 -1 -262 c 0,60,61
 -1 -246 -1 -246 0 -229 c 128,-1,62
 1 -212 1 -212 4 -194 c 2,63,-1
 12 -148 l 1,64,-1
 25 -102 l 2,65,66
 43 -41 43 -41 69.5 11.5 c 128,-1,67
 96 64 96 64 134 92 c 1,68,-1
 156 104 l 1,69,-1
 160 101 l 1,70,-1
 159 91 l 2,71,72
 159 81 159 81 151 66.5 c 128,-1,73
 143 52 143 52 132.5 32 c 128,-1,74
 122 12 122 12 111.5 -13.5 c 128,-1,75
 101 -39 101 -39 95 -71 c 2,76,-1
 81 -143 l 1,77,-1
 76 -201 l 1,78,79
 81 -362 81 -362 196 -425.5 c 128,-1,80
 311 -489 311 -489 417.5 -482 c 128,-1,81
 524 -475 524 -475 627.5 -449 c 128,-1,82
 731 -423 731 -423 813.5 -367 c 128,-1,83
 896 -311 896 -311 966 -216 c 1,84,85
 923 -181 923 -181 827 -157 c 128,-1,86
 731 -133 731 -133 681.5 -129.5 c 128,-1,87
 632 -126 632 -126 621.5 -101.5 c 128,-1,88
 611 -77 611 -77 662 20 c 1,89,90
 679 34 679 34 722 58.5 c 128,-1,91
 765 83 765 83 819.5 107 c 128,-1,92
 874 131 874 131 934.5 138.5 c 128,-1,93
 995 146 995 146 1048 145 c 1,94,-1
 1048 0 l 1,95,96
 904 11 904 11 838 -40 c 1,97,98
 1022 -67 1022 -67 1034.5 -111.5 c 128,-1,99
 1047 -156 1047 -156 1047 -195 c 1,51,52
EndSplineSet
EndChar

StartChar: yehwithhamzaaboveinitial
Encoding: 65163 65163 92
Width: 508
GlyphClass: 2
Flags: W
AnchorPoint: "ArabicBelow" 254 -250 basechar 0
AnchorPoint: "ArabicAbove" 254 1236 basechar 0
LayerCount: 2
Fore
SplineSet
444 784 m 1,0,-1
 390 778 l 2,1,2
 347 774 347 774 280 731 c 2,3,-1
 222 693 l 2,4,5
 221 695 221 695 221 699 c 0,6,7
 221 717 221 717 256 749 c 2,8,-1
 299 784 l 1,9,-1
 263 787 l 1,10,-1
 245 790 l 1,11,-1
 226 797 l 2,12,13
 194 805 194 805 194 822 c 0,14,15
 194 864 194 864 238 923 c 0,16,17
 290 986 290 986 356 986 c 0,18,19
 373 986 373 986 384 975.5 c 128,-1,20
 395 965 395 965 399 949 c 1,21,-1
 394 934 l 2,22,23
 391 924 391 924 387 920 c 0,24,25
 381 907 381 907 374 900 c 1,26,27
 357 932 357 932 317 932 c 0,28,29
 256 932 256 932 237 890 c 1,30,-1
 235 881 l 2,31,32
 235 863 235 863 269 856 c 2,33,-1
 319 845 l 1,34,-1
 476 845 l 1,35,-1
 444 784 l 1,0,-1
394 146 m 1,36,37
 403 196 403 196 403 206 c 0,38,39
 403 210 403 210 402 212 c 0,40,41
 399 223 399 223 379 269 c 0,42,43
 360 314 360 314 335.5 358 c 128,-1,44
 311 402 311 402 281 435 c 1,45,-1
 357 592 l 1,46,47
 397 538 397 538 422 498 c 128,-1,48
 447 458 447 458 467 397.5 c 128,-1,49
 487 337 487 337 487 290 c 0,50,51
 487 267 487 267 485.5 242.5 c 128,-1,52
 484 218 484 218 480 189 c 2,53,-1
 468 93 l 2,54,55
 457 12 457 12 453 0 c 1,56,-1
 -88 0 l 1,57,-1
 -88 146 l 1,58,-1
 394 146 l 1,36,37
EndSplineSet
EndChar

StartChar: yehwithhamzaabovemedial
Encoding: 65164 65164 93
Width: 549
GlyphClass: 2
Flags: W
AnchorPoint: "ArabicBelow" 274 -250 basechar 0
AnchorPoint: "ArabicAbove" 274 1081 basechar 0
LayerCount: 2
Fore
SplineSet
383 629 m 1,0,-1
 329 623 l 2,1,2
 286 619 286 619 219 576 c 2,3,-1
 161 538 l 2,4,5
 160 540 160 540 160 544 c 0,6,7
 160 562 160 562 195 594 c 2,8,-1
 238 629 l 1,9,-1
 202 632 l 1,10,-1
 184 635 l 1,11,-1
 165 642 l 2,12,13
 133 650 133 650 133 667 c 0,14,15
 133 709 133 709 177 768 c 0,16,17
 229 831 229 831 295 831 c 0,18,19
 312 831 312 831 323 820.5 c 128,-1,20
 334 810 334 810 338 794 c 1,21,-1
 333 779 l 2,22,23
 330 769 330 769 326 765 c 0,24,25
 320 752 320 752 313 745 c 1,26,27
 296 777 296 777 256 777 c 0,28,29
 195 777 195 777 176 735 c 1,30,-1
 174 726 l 2,31,32
 174 708 174 708 208 701 c 2,33,-1
 258 690 l 1,34,-1
 415 690 l 1,35,-1
 383 629 l 1,0,-1
316 146 m 1,36,-1
 339 254 l 1,37,-1
 345 391 l 1,38,-1
 445 510 l 1,39,-1
 428 303 l 2,40,41
 428 258 428 258 452.5 205.5 c 128,-1,42
 477 153 477 153 531 146 c 1,43,-1
 574 146 l 1,44,-1
 574 0 l 1,45,-1
 431 0 l 1,46,47
 345 114 345 114 333 114 c 0,48,49
 322 114 322 114 249 0 c 1,50,-1
 -101 0 l 1,51,-1
 -101 146 l 1,52,-1
 316 146 l 1,36,-1
EndSplineSet
EndChar

StartChar: alefisolated
Encoding: 65165 65165 94
Width: 415
GlyphClass: 2
Flags: W
AnchorPoint: "ArabicBelow" 207 -283 basechar 0
AnchorPoint: "ArabicAbove" 207 1344 basechar 0
LayerCount: 2
Fore
SplineSet
363 297 m 0,0,1
 363 231 363 231 354.5 174.5 c 128,-1,2
 346 118 346 118 329 67 c 1,3,4
 315 5 315 5 292 -33 c 1,5,-1
 204 883 l 2,6,7
 204 889 204 889 216.5 914.5 c 128,-1,8
 229 940 229 940 257 985 c 1,9,-1
 312 1094 l 1,10,-1
 332 932 l 2,11,12
 343 856 343 856 354 625 c 128,-1,13
 365 394 365 394 363 297 c 0,0,1
EndSplineSet
EndChar

StartChar: aleffinal
Encoding: 65166 65166 95
Width: 413
GlyphClass: 2
Flags: W
AnchorPoint: "ArabicBelow" 206 -250 basechar 0
AnchorPoint: "ArabicAbove" 206 1340 basechar 0
LayerCount: 2
Fore
SplineSet
178 0 m 1,0,-1
 109 962 l 1,1,-1
 215 1090 l 1,2,3
 215 996 215 996 248 565 c 1,4,5
 264 415 264 415 274 316 c 128,-1,6
 284 217 284 217 288 205 c 2,7,-1
 290 189 l 1,8,-1
 302 165 l 2,9,10
 310 157 310 157 335 149 c 1,11,-1
 369 146 l 1,12,-1
 429 146 l 1,13,-1
 429 0 l 1,14,-1
 178 0 l 1,0,-1
EndSplineSet
EndChar

StartChar: behisolated
Encoding: 65167 65167 96
Width: 1114
GlyphClass: 2
Flags: W
AnchorPoint: "ArabicBelow" 557 -699 basechar 0
AnchorPoint: "ArabicAbove" 557 830 basechar 0
LayerCount: 2
Fore
SplineSet
587 -226 m 1,0,-1
 495 -354 l 1,1,-1
 627 -449 l 1,2,-1
 722 -321 l 1,3,-1
 587 -226 l 1,0,-1
1054 131 m 0,4,5
 1012 13 1012 13 1000 0 c 1,6,7
 808 0 808 0 663 0 c 256,8,9
 518 0 518 0 416 0 c 0,10,11
 313 0 313 0 256 0 c 0,12,13
 200 0 200 0 187 1 c 0,14,15
 135 4 135 4 96 31 c 0,16,17
 76 45 76 45 60.5 59 c 128,-1,18
 45 73 45 73 32 87 c 0,19,20
 7 115 7 115 7 197 c 0,21,22
 7 220 7 220 9.5 247 c 128,-1,23
 12 274 12 274 17 303 c 0,24,25
 28 364 28 364 56 466 c 0,26,27
 85 570 85 570 105 570 c 0,28,29
 106 568 106 568 106 560 c 0,30,31
 106 537 106 537 97 476 c 0,32,33
 92 434 92 434 89 408 c 128,-1,34
 86 382 86 382 86 369 c 0,35,36
 86 344 86 344 92 281 c 0,37,38
 95 269 95 269 98.5 259 c 128,-1,39
 102 249 102 249 106 241 c 0,40,41
 112 228 112 228 150 186 c 0,42,43
 186 146 186 146 317 146 c 2,44,-1
 976 146 l 2,45,46
 983 149 983 149 992.5 156 c 128,-1,47
 1002 163 1002 163 1002 177 c 256,48,49
 1002 191 1002 191 996 271 c 0,50,51
 992 309 992 309 943 381 c 2,52,-1
 918 418 l 1,53,-1
 1011 580 l 1,54,-1
 1061 502 l 1,55,56
 1083 459 1083 459 1092 428 c 0,57,58
 1101 401 1101 401 1101 356 c 2,59,-1
 1101 343 l 2,60,61
 1100 317 1100 317 1097.5 292.5 c 128,-1,62
 1095 268 1095 268 1090 245 c 0,63,64
 1081 200 1081 200 1054 131 c 0,4,5
EndSplineSet
EndChar

StartChar: behfinal
Encoding: 65168 65168 97
Width: 1212
GlyphClass: 2
Flags: W
AnchorPoint: "ArabicBelow" 606 -719 basechar 0
AnchorPoint: "ArabicAbove" 606 801 basechar 0
LayerCount: 2
Fore
SplineSet
164 160 m 0,0,1
 186 147 186 147 251 146 c 2,2,-1
 958 146 l 1,3,-1
 981 254 l 1,4,-1
 987 391 l 1,5,-1
 1087 510 l 1,6,-1
 1070 303 l 2,7,8
 1070 258 1070 258 1094.5 205.5 c 128,-1,9
 1119 153 1119 153 1173 146 c 1,10,-1
 1216 146 l 1,11,-1
 1216 0 l 1,12,-1
 1073 0 l 1,13,14
 987 114 987 114 975 114 c 0,15,16
 964 114 964 114 891 0 c 1,17,-1
 189 0 l 2,18,19
 101 0 101 0 55 55 c 0,20,21
 7 112 7 112 7 196 c 0,22,23
 7 293 7 293 46 424 c 0,24,25
 85 551 85 551 100 551 c 1,26,-1
 94 501 l 1,27,28
 82 447 82 447 76.5 414 c 128,-1,29
 71 381 71 381 71 352 c 0,30,31
 71 324 71 324 77 291 c 0,32,33
 84 225 84 225 113 199 c 0,34,35
 143 173 143 173 164 160 c 0,0,1
712 -341 m 1,36,-1
 617 -469 l 1,37,-1
 485 -374 l 1,38,-1
 577 -246 l 1,39,-1
 712 -341 l 1,36,-1
EndSplineSet
EndChar

StartChar: behinitial
Encoding: 65169 65169 98
Width: 529
GlyphClass: 2
Flags: W
AnchorPoint: "ArabicBelow" 264 -719 basechar 0
AnchorPoint: "ArabicAbove" 264 842 basechar 0
LayerCount: 2
Fore
SplineSet
353 -341 m 1,0,-1
 258 -469 l 1,1,-1
 126 -374 l 1,2,-1
 218 -246 l 1,3,-1
 353 -341 l 1,0,-1
414 146 m 1,4,5
 423 196 423 196 423 206 c 0,6,7
 423 210 423 210 422 212 c 0,8,9
 419 223 419 223 399 269 c 0,10,11
 380 314 380 314 355.5 358 c 128,-1,12
 331 402 331 402 301 435 c 1,13,-1
 377 592 l 1,14,15
 417 538 417 538 442 498 c 128,-1,16
 467 458 467 458 487 397.5 c 128,-1,17
 507 337 507 337 507 290 c 0,18,19
 507 267 507 267 505.5 242.5 c 128,-1,20
 504 218 504 218 500 189 c 2,21,-1
 488 93 l 2,22,23
 477 12 477 12 473 0 c 1,24,-1
 -68 0 l 1,25,-1
 -68 146 l 1,26,-1
 414 146 l 1,4,5
EndSplineSet
EndChar

StartChar: behmedial
Encoding: 65170 65170 99
Width: 557
GlyphClass: 2
Flags: W
AnchorPoint: "ArabicBelow" 278 -689 basechar 0
AnchorPoint: "ArabicAbove" 278 760 basechar 0
LayerCount: 2
Fore
SplineSet
283 -216 m 1,0,-1
 191 -344 l 1,1,-1
 323 -439 l 1,2,-1
 418 -311 l 1,3,-1
 283 -216 l 1,0,-1
335 146 m 1,4,-1
 358 254 l 1,5,-1
 364 391 l 1,6,-1
 464 510 l 1,7,-1
 447 303 l 2,8,9
 447 258 447 258 471.5 205.5 c 128,-1,10
 496 153 496 153 550 146 c 1,11,-1
 593 146 l 1,12,-1
 593 0 l 1,13,-1
 450 0 l 1,14,15
 364 114 364 114 352 114 c 0,16,17
 341 114 341 114 268 0 c 1,18,-1
 -82 0 l 1,19,-1
 -82 146 l 1,20,-1
 335 146 l 1,4,-1
EndSplineSet
EndChar

StartChar: tehmarbutaisolated
Encoding: 65171 65171 100
Width: 561
GlyphClass: 2
Flags: W
AnchorPoint: "ArabicBelow" 280 -268 basechar 0
AnchorPoint: "ArabicAbove" 280 1221 basechar 0
LayerCount: 2
Fore
SplineSet
161 971 m 1,0,-1
 285 884 l 1,1,-1
 198 766 l 1,2,-1
 76 853 l 1,3,-1
 161 971 l 1,0,-1
341 971 m 1,4,-1
 465 884 l 1,5,-1
 378 766 l 1,6,-1
 256 853 l 1,7,-1
 341 971 l 1,4,-1
428 169 m 1,8,-1
 369 159 l 2,9,10
 346 155 346 155 318.5 152.5 c 128,-1,11
 291 150 291 150 256 150 c 0,12,13
 210 150 210 150 190 165 c 0,14,15
 159 187 159 187 159 233 c 1,16,17
 165 260 165 260 201 318 c 1,18,-1
 263 399 l 1,19,20
 281 399 281 399 360 309 c 0,21,22
 436 219 436 219 436 179 c 1,23,-1
 428 169 l 1,8,-1
521 245 m 1,24,-1
 529 274 l 1,25,-1
 532 302 l 1,26,27
 532 346 532 346 519 380 c 1,28,-1
 499 417 l 1,29,-1
 478 447 l 1,30,-1
 300 594 l 1,31,32
 282 561 282 561 249.5 516 c 128,-1,33
 217 471 217 471 98 278 c 0,34,35
 60 218 60 218 42 162.5 c 128,-1,36
 24 107 24 107 27.5 59 c 128,-1,37
 31 11 31 11 77.5 -3 c 128,-1,38
 124 -17 124 -17 181.5 -18.5 c 128,-1,39
 239 -20 239 -20 319.5 7 c 128,-1,40
 400 34 400 34 426 58 c 128,-1,41
 452 82 452 82 482 134 c 1,42,-1
 521 245 l 1,24,-1
EndSplineSet
EndChar

StartChar: tehmarbutafinal
Encoding: 65172 65172 101
Width: 689
GlyphClass: 2
Flags: W
AnchorPoint: "ArabicBelow" 344 -250 basechar 0
AnchorPoint: "ArabicAbove" 344 1259 basechar 0
LayerCount: 2
Fore
SplineSet
136 1009 m 1,0,-1
 260 922 l 1,1,-1
 173 804 l 1,2,-1
 51 891 l 1,3,-1
 136 1009 l 1,0,-1
316 1009 m 1,4,-1
 440 922 l 1,5,-1
 353 804 l 1,6,-1
 231 891 l 1,7,-1
 316 1009 l 1,4,-1
354 484 m 2,8,9
 362 500 362 500 373 512.5 c 128,-1,10
 384 525 384 525 391 529 c 0,11,12
 395 534 395 534 401 534 c 0,13,14
 406 534 406 534 410.5 527.5 c 128,-1,15
 415 521 415 521 421 504 c 0,16,17
 426 491 426 491 431 463.5 c 128,-1,18
 436 436 436 436 443 394 c 0,19,20
 447 357 447 357 450 334.5 c 128,-1,21
 453 312 453 312 453 303 c 2,22,-1
 453 300 l 2,23,24
 452 289 452 289 446.5 283.5 c 128,-1,25
 441 278 441 278 411 277 c 0,26,27
 361 277 361 277 281 291 c 0,28,29
 202 306 202 306 167 316 c 1,30,-1
 167 337 l 1,31,-1
 267 387 l 2,32,33
 290 398 290 398 306 410 c 128,-1,34
 322 422 322 422 330 435 c 2,35,-1
 354 484 l 2,8,9
684 0 m 1,36,-1
 684 146 l 1,37,-1
 618 146 l 2,38,39
 586 146 586 146 570 161 c 1,40,-1
 552 189 l 1,41,42
 541 251 541 251 457 797 c 1,43,-1
 370 652 l 1,44,45
 388 604 388 604 388 587 c 2,46,-1
 386 577 l 1,47,-1
 222 477 l 2,48,49
 153 435 153 435 131 414 c 0,50,51
 121 404 121 404 109.5 384.5 c 128,-1,52
 98 365 98 365 59.5 297.5 c 128,-1,53
 21 230 21 230 54 225 c 1,54,55
 130 201 130 201 223.5 179.5 c 128,-1,56
 317 158 317 158 330 156 c 0,57,58
 351 150 351 150 384 201 c 1,59,60
 419 242 419 242 441 232.5 c 128,-1,61
 463 223 463 223 468 207 c 0,62,63
 470 199 470 199 474 175 c 128,-1,64
 478 151 478 151 484 109 c 1,65,66
 511 0 511 0 568 0 c 2,67,-1
 684 0 l 1,36,-1
EndSplineSet
EndChar

StartChar: tehisolated
Encoding: 65173 65173 102
Width: 1109
GlyphClass: 2
Flags: W
AnchorPoint: "ArabicBelow" 554 -250 basechar 0
AnchorPoint: "ArabicAbove" 554 1160 basechar 0
LayerCount: 2
Fore
SplineSet
734 823 m 1,0,-1
 647 705 l 1,1,-1
 525 792 l 1,2,-1
 610 910 l 1,3,-1
 734 823 l 1,0,-1
554 823 m 1,4,-1
 467 705 l 1,5,-1
 345 792 l 1,6,-1
 430 910 l 1,7,-1
 554 823 l 1,4,-1
1054 131 m 0,8,9
 1012 13 1012 13 1000 0 c 1,10,11
 808 0 808 0 663 0 c 256,12,13
 518 0 518 0 416 0 c 0,14,15
 313 0 313 0 256 0 c 0,16,17
 200 0 200 0 187 1 c 0,18,19
 135 4 135 4 96 31 c 0,20,21
 76 45 76 45 60.5 59 c 128,-1,22
 45 73 45 73 32 87 c 0,23,24
 7 115 7 115 7 197 c 0,25,26
 7 220 7 220 9.5 247 c 128,-1,27
 12 274 12 274 17 303 c 0,28,29
 28 364 28 364 56 466 c 0,30,31
 85 570 85 570 105 570 c 0,32,33
 106 568 106 568 106 560 c 0,34,35
 106 537 106 537 97 476 c 0,36,37
 92 434 92 434 89 408 c 128,-1,38
 86 382 86 382 86 369 c 0,39,40
 86 344 86 344 92 281 c 0,41,42
 95 269 95 269 98.5 259 c 128,-1,43
 102 249 102 249 106 241 c 0,44,45
 112 228 112 228 150 186 c 0,46,47
 186 146 186 146 317 146 c 2,48,-1
 976 146 l 2,49,50
 983 149 983 149 992.5 156 c 128,-1,51
 1002 163 1002 163 1002 177 c 256,52,53
 1002 191 1002 191 996 271 c 0,54,55
 992 309 992 309 943 381 c 2,56,-1
 918 418 l 1,57,-1
 1011 580 l 1,58,-1
 1061 502 l 1,59,60
 1083 459 1083 459 1092 428 c 0,61,62
 1101 401 1101 401 1101 356 c 2,63,-1
 1101 343 l 2,64,65
 1100 317 1100 317 1097.5 292.5 c 128,-1,66
 1095 268 1095 268 1090 245 c 0,67,68
 1081 200 1081 200 1054 131 c 0,8,9
EndSplineSet
EndChar

StartChar: tehfinal
Encoding: 65174 65174 103
Width: 1199
GlyphClass: 2
Flags: W
AnchorPoint: "ArabicBelow" 599 -250 basechar 0
AnchorPoint: "ArabicAbove" 599 1090 basechar 0
LayerCount: 2
Fore
SplineSet
549 756 m 1,0,-1
 610 840 l 1,1,-1
 734 753 l 1,2,-1
 647 635 l 1,3,-1
 529 719 l 1,4,-1
 467 635 l 1,5,-1
 345 722 l 1,6,-1
 430 840 l 1,7,-1
 549 756 l 1,0,-1
164 160 m 0,8,9
 186 147 186 147 251 146 c 2,10,-1
 958 146 l 1,11,-1
 981 254 l 1,12,-1
 987 391 l 1,13,-1
 1087 510 l 1,14,-1
 1070 303 l 2,15,16
 1070 258 1070 258 1094.5 205.5 c 128,-1,17
 1119 153 1119 153 1173 146 c 1,18,-1
 1216 146 l 1,19,-1
 1216 0 l 1,20,-1
 1073 0 l 1,21,22
 987 114 987 114 975 114 c 0,23,24
 964 114 964 114 891 0 c 1,25,-1
 189 0 l 2,26,27
 101 0 101 0 55 55 c 0,28,29
 7 112 7 112 7 196 c 0,30,31
 7 293 7 293 46 424 c 0,32,33
 85 551 85 551 100 551 c 1,34,-1
 94 501 l 1,35,36
 82 447 82 447 76.5 414 c 128,-1,37
 71 381 71 381 71 352 c 0,38,39
 71 324 71 324 77 291 c 0,40,41
 84 225 84 225 113 199 c 0,42,43
 143 173 143 173 164 160 c 0,8,9
EndSplineSet
EndChar

StartChar: tehinitial
Encoding: 65175 65175 104
Width: 521
GlyphClass: 2
Flags: W
AnchorPoint: "ArabicBelow" 260 -250 basechar 0
AnchorPoint: "ArabicAbove" 260 1253 basechar 0
LayerCount: 2
Fore
SplineSet
465 910 m 1,0,-1
 372 785 l 1,1,-1
 243 878 l 1,2,-1
 333 1003 l 1,3,-1
 465 910 l 1,0,-1
273 910 m 1,4,-1
 181 785 l 1,5,-1
 51 878 l 1,6,-1
 141 1003 l 1,7,-1
 273 910 l 1,4,-1
418 146 m 1,8,9
 427 196 427 196 427 206 c 0,10,11
 427 210 427 210 426 212 c 0,12,13
 423 223 423 223 403 269 c 0,14,15
 384 314 384 314 359.5 358 c 128,-1,16
 335 402 335 402 305 435 c 1,17,-1
 381 592 l 1,18,19
 421 538 421 538 446 498 c 128,-1,20
 471 458 471 458 491 397.5 c 128,-1,21
 511 337 511 337 511 290 c 0,22,23
 511 267 511 267 509.5 242.5 c 128,-1,24
 508 218 508 218 504 189 c 2,25,-1
 492 93 l 2,26,27
 481 12 481 12 477 0 c 1,28,-1
 -64 0 l 1,29,-1
 -64 146 l 1,30,-1
 418 146 l 1,8,9
EndSplineSet
EndChar

StartChar: tehmedial
Encoding: 65176 65176 105
Width: 615
GlyphClass: 2
Flags: W
AnchorPoint: "ArabicBelow" 307 -250 basechar 0
AnchorPoint: "ArabicAbove" 307 1180 basechar 0
LayerCount: 2
Fore
SplineSet
366 146 m 1,0,-1
 389 254 l 1,1,-1
 395 391 l 1,2,-1
 495 510 l 1,3,-1
 478 303 l 2,4,5
 478 258 478 258 502.5 205.5 c 128,-1,6
 527 153 527 153 581 146 c 1,7,-1
 624 146 l 1,8,-1
 624 0 l 1,9,-1
 481 0 l 1,10,11
 395 114 395 114 383 114 c 0,12,13
 372 114 372 114 299 0 c 1,14,-1
 -51 0 l 1,15,-1
 -51 146 l 1,16,-1
 366 146 l 1,0,-1
421 843 m 1,17,-1
 334 725 l 1,18,-1
 212 812 l 1,19,-1
 297 930 l 1,20,-1
 421 843 l 1,17,-1
241 843 m 1,21,-1
 154 725 l 1,22,-1
 32 812 l 1,23,-1
 117 930 l 1,24,-1
 241 843 l 1,21,-1
EndSplineSet
EndChar

StartChar: thehisolated
Encoding: 65177 65177 106
Width: 1117
GlyphClass: 2
Flags: W
AnchorPoint: "ArabicBelow" 558 -250 basechar 0
AnchorPoint: "ArabicAbove" 558 1168 basechar 0
LayerCount: 2
Fore
SplineSet
1054 131 m 0,0,1
 1012 13 1012 13 1000 1 c 1,2,3
 808 0 808 0 663 0 c 256,4,5
 518 0 518 0 416 0 c 0,6,7
 313 0 313 0 256 0 c 0,8,9
 200 0 200 0 187 1 c 0,10,11
 135 4 135 4 96 31 c 0,12,13
 76 45 76 45 60.5 59 c 128,-1,14
 45 73 45 73 32 87 c 0,15,16
 7 115 7 115 7 197 c 0,17,18
 7 220 7 220 9.5 247 c 128,-1,19
 12 274 12 274 17 303 c 0,20,21
 28 364 28 364 56 466 c 0,22,23
 85 570 85 570 105 570 c 0,24,25
 106 568 106 568 106 560 c 0,26,27
 106 537 106 537 97 476 c 0,28,29
 92 434 92 434 89 408 c 128,-1,30
 86 382 86 382 86 369 c 0,31,32
 86 344 86 344 89 320 c 2,33,-1
 99 280 l 2,34,35
 112 228 112 228 150 186 c 0,36,37
 186 146 186 146 317 146 c 2,38,-1
 976 146 l 2,39,40
 983 149 983 149 992.5 156 c 128,-1,41
 1002 163 1002 163 1002 216 c 0,42,43
 1002 230 1002 230 996 271 c 0,44,45
 992 309 992 309 943 381 c 2,46,-1
 918 418 l 1,47,-1
 1011 580 l 1,48,-1
 1061 502 l 1,49,50
 1083 459 1083 459 1092 428 c 0,51,52
 1101 401 1101 401 1101 356 c 2,53,-1
 1101 343 l 2,54,55
 1100 317 1100 317 1097.5 292.5 c 128,-1,56
 1095 268 1095 268 1090 245 c 0,57,58
 1081 200 1081 200 1054 131 c 0,0,1
633 845 m 1,59,-1
 560 746 l 1,60,-1
 457 819 l 1,61,-1
 529 918 l 1,62,-1
 633 845 l 1,59,-1
572 636 m 1,63,-1
 485 518 l 1,64,-1
 363 605 l 1,65,-1
 448 723 l 1,66,-1
 572 636 l 1,63,-1
752 636 m 1,67,-1
 665 518 l 1,68,-1
 543 605 l 1,69,-1
 628 723 l 1,70,-1
 752 636 l 1,67,-1
EndSplineSet
EndChar

StartChar: thehfinal
Encoding: 65178 65178 107
Width: 1202
GlyphClass: 2
Flags: W
AnchorPoint: "ArabicBelow" 601 -250 basechar 0
AnchorPoint: "ArabicAbove" 601 1198 basechar 0
LayerCount: 2
Fore
SplineSet
673 875 m 1,0,-1
 600 776 l 1,1,-1
 497 849 l 1,2,-1
 569 948 l 1,3,-1
 673 875 l 1,0,-1
612 666 m 1,4,-1
 525 548 l 1,5,-1
 403 635 l 1,6,-1
 488 753 l 1,7,-1
 612 666 l 1,4,-1
792 666 m 1,8,-1
 705 548 l 1,9,-1
 583 635 l 1,10,-1
 668 753 l 1,11,-1
 792 666 l 1,8,-1
164 160 m 0,12,13
 186 147 186 147 251 146 c 2,14,-1
 958 146 l 1,15,-1
 981 254 l 1,16,-1
 987 391 l 1,17,-1
 1087 510 l 1,18,-1
 1070 303 l 2,19,20
 1070 258 1070 258 1094.5 205.5 c 128,-1,21
 1119 153 1119 153 1173 146 c 1,22,-1
 1216 146 l 1,23,-1
 1216 0 l 1,24,-1
 1073 0 l 1,25,26
 987 114 987 114 975 114 c 0,27,28
 964 114 964 114 891 0 c 1,29,-1
 189 0 l 2,30,31
 101 0 101 0 55 55 c 0,32,33
 7 112 7 112 7 196 c 0,34,35
 7 293 7 293 46 424 c 0,36,37
 85 551 85 551 100 551 c 1,38,-1
 94 501 l 1,39,40
 82 447 82 447 76.5 414 c 128,-1,41
 71 381 71 381 71 352 c 0,42,43
 71 324 71 324 77 291 c 0,44,45
 84 225 84 225 113 199 c 0,46,47
 143 173 143 173 164 160 c 0,12,13
EndSplineSet
EndChar

StartChar: thehinitial
Encoding: 65179 65179 108
Width: 558
GlyphClass: 2
Flags: W
AnchorPoint: "ArabicBelow" 279 -250 basechar 0
AnchorPoint: "ArabicAbove" 279 1298 basechar 0
LayerCount: 2
Fore
SplineSet
289 975 m 1,0,-1
 216 876 l 1,1,-1
 113 949 l 1,2,-1
 185 1048 l 1,3,-1
 289 975 l 1,0,-1
228 766 m 1,4,-1
 141 648 l 1,5,-1
 19 735 l 1,6,-1
 104 853 l 1,7,-1
 228 766 l 1,4,-1
408 766 m 1,8,-1
 321 648 l 1,9,-1
 199 735 l 1,10,-1
 284 853 l 1,11,-1
 408 766 l 1,8,-1
454 146 m 1,12,13
 463 196 463 196 463 206 c 0,14,15
 463 210 463 210 462 212 c 0,16,17
 459 223 459 223 439 269 c 0,18,19
 420 314 420 314 395.5 358 c 128,-1,20
 371 402 371 402 341 435 c 1,21,-1
 417 592 l 1,22,23
 457 538 457 538 482 498 c 128,-1,24
 507 458 507 458 527 397.5 c 128,-1,25
 547 337 547 337 547 290 c 0,26,27
 547 267 547 267 545.5 242.5 c 128,-1,28
 544 218 544 218 540 189 c 2,29,-1
 528 93 l 2,30,31
 517 12 517 12 513 0 c 1,32,-1
 -28 0 l 1,33,-1
 -28 146 l 1,34,-1
 454 146 l 1,12,13
EndSplineSet
EndChar

StartChar: thehmedial
Encoding: 65180 65180 109
Width: 585
GlyphClass: 2
Flags: W
AnchorPoint: "ArabicBelow" 292 -250 basechar 0
AnchorPoint: "ArabicAbove" 292 1291 basechar 0
LayerCount: 2
Fore
SplineSet
328 968 m 1,0,-1
 255 869 l 1,1,-1
 152 942 l 1,2,-1
 224 1041 l 1,3,-1
 328 968 l 1,0,-1
267 759 m 1,4,-1
 180 641 l 1,5,-1
 58 728 l 1,6,-1
 143 846 l 1,7,-1
 267 759 l 1,4,-1
447 759 m 1,8,-1
 360 641 l 1,9,-1
 238 728 l 1,10,-1
 323 846 l 1,11,-1
 447 759 l 1,8,-1
340 146 m 1,12,-1
 363 254 l 1,13,-1
 369 391 l 1,14,-1
 469 510 l 1,15,-1
 452 303 l 2,16,17
 452 258 452 258 476.5 205.5 c 128,-1,18
 501 153 501 153 555 146 c 1,19,-1
 598 146 l 1,20,-1
 598 0 l 1,21,-1
 455 0 l 1,22,23
 369 114 369 114 357 114 c 0,24,25
 346 114 346 114 273 0 c 1,26,-1
 -77 0 l 1,27,-1
 -77 146 l 1,28,-1
 340 146 l 1,12,-1
EndSplineSet
EndChar

StartChar: jeemisolated
Encoding: 65181 65181 110
Width: 901
GlyphClass: 2
Flags: W
AnchorPoint: "ArabicBelow" 450 -892 basechar 0
AnchorPoint: "ArabicAbove" 450 794 basechar 0
LayerCount: 2
Fore
SplineSet
651 -151 m 2,0,1
 652 -150 652 -150 652 -148 c 2,2,-1
 654 -154 l 1,3,-1
 651 -151 l 2,0,1
656 -149 m 1,4,-1
 561 -277 l 1,5,-1
 429 -182 l 1,6,-1
 521 -54 l 1,7,-1
 656 -149 l 1,4,-1
936 -535 m 1,8,9
 921 -552 921 -552 895 -570 c 128,-1,10
 869 -588 869 -588 830 -604 c 1,11,12
 703 -642 703 -642 521 -642 c 0,13,14
 313 -642 313 -642 189 -536 c 256,15,16
 65 -430 65 -430 65 -271 c 0,17,18
 65 -195 65 -195 83.5 -106.5 c 128,-1,19
 102 -18 102 -18 141 62 c 0,20,21
 207 198 207 198 348 325 c 1,22,-1
 348 346 l 1,23,24
 325 352 325 352 307.5 358 c 128,-1,25
 290 364 290 364 272 366 c 2,26,-1
 224 372 l 1,27,-1
 167 372 l 2,28,29
 121 372 121 372 78 340 c 0,30,31
 52 317 52 317 41 316 c 1,32,-1
 73 428 l 2,33,34
 100 536 100 536 197.5 543.5 c 128,-1,35
 295 551 295 551 424 506 c 1,36,37
 491 487 491 487 551.5 475 c 128,-1,38
 612 463 612 463 663.5 456.5 c 128,-1,39
 715 450 715 450 757 447 c 128,-1,40
 799 444 799 444 830 442 c 1,41,-1
 774 326 l 1,42,43
 747 325 747 325 715.5 321 c 128,-1,44
 684 317 684 317 631 306 c 0,45,46
 605 301 605 301 578 295 c 128,-1,47
 551 289 551 289 523 281 c 1,48,-1
 522 282 l 1,49,-1
 434 250 l 2,50,51
 373 226 373 226 321.5 184 c 128,-1,52
 270 142 270 142 224 73 c 0,53,54
 134 -61 134 -61 134 -171 c 0,55,56
 134 -303 134 -303 247 -395 c 0,57,58
 286 -429 286 -429 352 -456 c 0,59,60
 384 -470 384 -470 410.5 -479.5 c 128,-1,61
 437 -489 437 -489 457 -494 c 0,62,63
 478 -499 478 -499 511.5 -504.5 c 128,-1,64
 545 -510 545 -510 592 -516 c 0,65,66
 640 -522 640 -522 687.5 -526 c 128,-1,67
 735 -530 735 -530 785 -535 c 1,68,-1
 936 -535 l 1,8,9
EndSplineSet
EndChar

StartChar: jeemfinal
Encoding: 65182 65182 111
Width: 939
GlyphClass: 2
Flags: W
AnchorPoint: "ArabicBelow" 469 -892 basechar 0
AnchorPoint: "ArabicAbove" 469 794 basechar 0
LayerCount: 2
Fore
SplineSet
539 -164 m 1,0,-1
 444 -292 l 1,1,-1
 312 -197 l 1,2,-1
 404 -69 l 1,3,-1
 539 -164 l 1,0,-1
936 -535 m 1,4,5
 921 -552 921 -552 895 -570 c 128,-1,6
 869 -588 869 -588 830 -604 c 1,7,8
 703 -642 703 -642 521 -642 c 0,9,10
 313 -642 313 -642 189 -536 c 256,11,12
 65 -430 65 -430 65 -271 c 0,13,14
 65 -195 65 -195 83.5 -106.5 c 128,-1,15
 102 -18 102 -18 141 62 c 0,16,17
 207 198 207 198 348 325 c 1,18,-1
 348 346 l 1,19,20
 325 352 325 352 307.5 358 c 128,-1,21
 290 364 290 364 272 366 c 2,22,-1
 224 372 l 1,23,-1
 167 372 l 2,24,25
 121 372 121 372 78 340 c 0,26,27
 52 317 52 317 41 316 c 1,28,-1
 73 428 l 2,29,30
 100 536 100 536 197.5 543.5 c 128,-1,31
 295 551 295 551 424 506 c 1,32,33
 491 487 491 487 551.5 475 c 128,-1,34
 612 463 612 463 663.5 456.5 c 128,-1,35
 715 450 715 450 757 447 c 128,-1,36
 799 444 799 444 830 442 c 1,37,-1
 774 326 l 1,38,39
 747 325 747 325 715 321 c 0,40,41
 700 319 700 319 681 315 c 1,42,43
 676 302 676 302 671 279 c 0,44,45
 662 236 662 236 683.5 194 c 128,-1,46
 705 152 705 152 794 146 c 1,47,-1
 1049 146 l 1,48,-1
 1049 0 l 1,49,-1
 814 0 l 2,50,51
 738 1 738 1 705 12 c 0,52,53
 665 29 665 29 645.5 46 c 128,-1,54
 626 63 626 63 612 87 c 0,55,56
 601 109 601 109 601 143 c 0,57,58
 601 160 601 160 603.5 177.5 c 128,-1,59
 606 195 606 195 611 212 c 0,60,61
 617 233 617 233 621.5 246.5 c 128,-1,62
 626 260 626 260 628.5 270 c 128,-1,63
 631 280 631 280 632.5 288.5 c 128,-1,64
 634 297 634 297 634 306 c 1,65,66
 632 306 632 306 631 306 c 0,67,68
 605 301 605 301 578 295 c 128,-1,69
 551 289 551 289 523 281 c 1,70,-1
 522 282 l 1,71,-1
 434 250 l 2,72,73
 373 226 373 226 321.5 184 c 128,-1,74
 270 142 270 142 224 73 c 0,75,76
 134 -61 134 -61 134 -171 c 0,77,78
 134 -303 134 -303 247 -395 c 0,79,80
 286 -429 286 -429 352 -456 c 0,81,82
 384 -470 384 -470 410.5 -479.5 c 128,-1,83
 437 -489 437 -489 457 -494 c 0,84,85
 478 -499 478 -499 511.5 -504.5 c 128,-1,86
 545 -510 545 -510 592 -516 c 0,87,88
 640 -522 640 -522 687.5 -526 c 128,-1,89
 735 -530 735 -530 785 -535 c 1,90,-1
 936 -535 l 1,4,5
EndSplineSet
EndChar

StartChar: jeeminitial
Encoding: 65183 65183 112
Width: 1120
GlyphClass: 2
Flags: W
AnchorPoint: "ArabicBelow" 560 -641 basechar 0
AnchorPoint: "ArabicAbove" 560 783 basechar 0
LayerCount: 2
Fore
SplineSet
697 -258 m 1,0,-1
 598 -391 l 1,1,-1
 461 -292 l 1,2,-1
 557 -159 l 1,3,-1
 697 -258 l 1,0,-1
339 146 m 2,4,5
 386 149 386 149 441 179.5 c 128,-1,6
 496 210 496 210 554 235.5 c 128,-1,7
 612 261 612 261 613 281 c 1,8,-1
 453 346 l 1,9,10
 315 390 315 390 287 390 c 0,11,12
 212 390 212 390 177 371 c 1,13,-1
 154 355 l 1,14,15
 213 463 213 463 254.5 494.5 c 128,-1,16
 296 526 296 526 340 528 c 1,17,18
 448 551 448 551 578 470.5 c 128,-1,19
 708 390 708 390 833 324 c 128,-1,20
 958 258 958 258 1081 229 c 1,21,-1
 995 113 l 1,22,-1
 710 146 l 1,23,24
 658 146 658 146 613.5 133 c 128,-1,25
 569 120 569 120 500 78 c 0,26,27
 437 41 437 41 387 20.5 c 128,-1,28
 337 0 337 0 305 0 c 2,29,-1
 -93 0 l 1,30,-1
 -93 146 l 1,31,-1
 339 146 l 2,4,5
EndSplineSet
EndChar

StartChar: jeemmedial
Encoding: 65184 65184 113
Width: 1168
GlyphClass: 2
Flags: W
AnchorPoint: "ArabicBelow" 584 -696 basechar 0
AnchorPoint: "ArabicAbove" 584 787 basechar 0
LayerCount: 2
Fore
SplineSet
607 -318 m 1,0,-1
 512 -446 l 1,1,-1
 380 -351 l 1,2,-1
 472 -223 l 1,3,-1
 607 -318 l 1,0,-1
379 146 m 2,4,5
 426 149 426 149 481 176.5 c 128,-1,6
 536 204 536 204 594 232.5 c 128,-1,7
 652 261 652 261 653 281 c 1,8,-1
 493 346 l 1,9,10
 355 390 355 390 327 390 c 0,11,12
 252 390 252 390 217 371 c 1,13,-1
 194 355 l 1,14,15
 267 470 267 470 308.5 501.5 c 128,-1,16
 350 533 350 533 394 535 c 2,17,-1
 429 537 l 1,18,19
 513 537 513 537 654 452 c 128,-1,20
 795 367 795 367 897.5 314 c 128,-1,21
 1000 261 1000 261 1114 221 c 1,22,-1
 1072 146 l 1,23,-1
 1239 146 l 1,24,-1
 1239 0 l 1,25,-1
 985 0 l 1,26,-1
 965 114 l 1,27,28
 902 151 902 151 836.5 162.5 c 128,-1,29
 771 174 771 174 698 146 c 1,30,31
 609 120 609 120 540 78 c 0,32,33
 420 0 420 0 345 0 c 2,34,-1
 -53 0 l 1,35,-1
 -53 146 l 1,36,-1
 379 146 l 2,4,5
EndSplineSet
EndChar

StartChar: hahisolated
Encoding: 65185 65185 114
Width: 901
GlyphClass: 2
Flags: W
AnchorPoint: "ArabicBelow" 450 -892 basechar 0
AnchorPoint: "ArabicAbove" 450 794 basechar 0
LayerCount: 2
Fore
SplineSet
936 -535 m 1,0,1
 921 -552 921 -552 895 -570 c 128,-1,2
 869 -588 869 -588 830 -604 c 1,3,4
 703 -642 703 -642 521 -642 c 0,5,6
 313 -642 313 -642 189 -536 c 256,7,8
 65 -430 65 -430 65 -271 c 0,9,10
 65 -195 65 -195 83.5 -106.5 c 128,-1,11
 102 -18 102 -18 141 62 c 0,12,13
 207 198 207 198 348 325 c 1,14,-1
 348 346 l 1,15,16
 325 352 325 352 307.5 358 c 128,-1,17
 290 364 290 364 272 366 c 2,18,-1
 224 372 l 1,19,-1
 167 372 l 2,20,21
 121 372 121 372 78 340 c 0,22,23
 52 317 52 317 41 316 c 1,24,-1
 73 428 l 2,25,26
 100 536 100 536 197.5 543.5 c 128,-1,27
 295 551 295 551 424 506 c 1,28,29
 491 487 491 487 551.5 475 c 128,-1,30
 612 463 612 463 663.5 456.5 c 128,-1,31
 715 450 715 450 757 447 c 128,-1,32
 799 444 799 444 830 442 c 1,33,-1
 774 326 l 1,34,35
 747 325 747 325 715.5 321 c 128,-1,36
 684 317 684 317 631 306 c 0,37,38
 605 301 605 301 578 295 c 128,-1,39
 551 289 551 289 523 281 c 1,40,-1
 522 282 l 1,41,-1
 434 250 l 2,42,43
 373 226 373 226 321.5 184 c 128,-1,44
 270 142 270 142 224 73 c 0,45,46
 134 -61 134 -61 134 -171 c 0,47,48
 134 -303 134 -303 247 -395 c 0,49,50
 286 -429 286 -429 352 -456 c 0,51,52
 384 -470 384 -470 410.5 -479.5 c 128,-1,53
 437 -489 437 -489 457 -494 c 0,54,55
 478 -499 478 -499 511.5 -504.5 c 128,-1,56
 545 -510 545 -510 592 -516 c 0,57,58
 640 -522 640 -522 687.5 -526 c 128,-1,59
 735 -530 735 -530 785 -535 c 1,60,-1
 936 -535 l 1,0,1
EndSplineSet
EndChar

StartChar: hahfinal
Encoding: 65186 65186 115
Width: 941
GlyphClass: 2
Flags: W
AnchorPoint: "ArabicBelow" 470 -892 basechar 0
AnchorPoint: "ArabicAbove" 470 794 basechar 0
LayerCount: 2
Fore
SplineSet
936 -535 m 1,0,1
 921 -552 921 -552 895 -570 c 128,-1,2
 869 -588 869 -588 830 -604 c 1,3,4
 703 -642 703 -642 521 -642 c 0,5,6
 313 -642 313 -642 189 -536 c 256,7,8
 65 -430 65 -430 65 -271 c 0,9,10
 65 -195 65 -195 83.5 -106.5 c 128,-1,11
 102 -18 102 -18 141 62 c 0,12,13
 207 198 207 198 348 325 c 1,14,-1
 348 346 l 1,15,16
 325 352 325 352 307.5 358 c 128,-1,17
 290 364 290 364 272 366 c 2,18,-1
 224 372 l 1,19,-1
 167 372 l 2,20,21
 121 372 121 372 78 340 c 0,22,23
 52 317 52 317 41 316 c 1,24,-1
 73 428 l 2,25,26
 100 536 100 536 197.5 543.5 c 128,-1,27
 295 551 295 551 424 506 c 1,28,29
 491 487 491 487 551.5 475 c 128,-1,30
 612 463 612 463 663.5 456.5 c 128,-1,31
 715 450 715 450 757 447 c 128,-1,32
 799 444 799 444 830 442 c 1,33,-1
 774 326 l 1,34,35
 747 325 747 325 715 321 c 0,36,37
 700 319 700 319 681 315 c 1,38,39
 676 302 676 302 671 279 c 0,40,41
 662 236 662 236 683.5 194 c 128,-1,42
 705 152 705 152 794 146 c 1,43,-1
 1049 146 l 1,44,-1
 1049 0 l 1,45,-1
 814 0 l 2,46,47
 738 1 738 1 705 12 c 0,48,49
 665 29 665 29 645.5 46 c 128,-1,50
 626 63 626 63 612 87 c 0,51,52
 601 109 601 109 601 143 c 0,53,54
 601 160 601 160 603.5 177.5 c 128,-1,55
 606 195 606 195 611 212 c 0,56,57
 617 233 617 233 621.5 246.5 c 128,-1,58
 626 260 626 260 628.5 270 c 128,-1,59
 631 280 631 280 632.5 288.5 c 128,-1,60
 634 297 634 297 634 306 c 1,61,62
 632 306 632 306 631 306 c 0,63,64
 605 301 605 301 578 295 c 128,-1,65
 551 289 551 289 523 281 c 1,66,-1
 522 282 l 1,67,-1
 434 250 l 2,68,69
 373 226 373 226 321.5 184 c 128,-1,70
 270 142 270 142 224 73 c 0,71,72
 134 -61 134 -61 134 -171 c 0,73,74
 134 -303 134 -303 247 -395 c 0,75,76
 286 -429 286 -429 352 -456 c 0,77,78
 384 -470 384 -470 410.5 -479.5 c 128,-1,79
 437 -489 437 -489 457 -494 c 0,80,81
 478 -499 478 -499 511.5 -504.5 c 128,-1,82
 545 -510 545 -510 592 -516 c 0,83,84
 640 -522 640 -522 687.5 -526 c 128,-1,85
 735 -530 735 -530 785 -535 c 1,86,-1
 936 -535 l 1,0,1
EndSplineSet
EndChar

StartChar: hahinitial
Encoding: 65187 65187 116
Width: 1063
GlyphClass: 2
Flags: W
AnchorPoint: "ArabicBelow" 531 -250 basechar 0
AnchorPoint: "ArabicAbove" 531 783 basechar 0
LayerCount: 2
Fore
SplineSet
269 146 m 2,0,1
 316 149 316 149 371 179.5 c 128,-1,2
 426 210 426 210 484 235.5 c 128,-1,3
 542 261 542 261 543 281 c 1,4,-1
 383 346 l 1,5,6
 245 390 245 390 217 390 c 0,7,8
 142 390 142 390 107 371 c 1,9,-1
 84 355 l 1,10,11
 143 463 143 463 184.5 494.5 c 128,-1,12
 226 526 226 526 270 528 c 1,13,14
 378 551 378 551 508 470.5 c 128,-1,15
 638 390 638 390 763 324 c 128,-1,16
 888 258 888 258 1011 229 c 1,17,-1
 925 113 l 1,18,-1
 640 146 l 1,19,20
 588 146 588 146 543.5 133 c 128,-1,21
 499 120 499 120 430 78 c 0,22,23
 367 41 367 41 317 20.5 c 128,-1,24
 267 0 267 0 235 0 c 2,25,-1
 -163 0 l 1,26,-1
 -163 146 l 1,27,-1
 269 146 l 2,0,1
EndSplineSet
EndChar

StartChar: hahmedial
Encoding: 65188 65188 117
Width: 1159
GlyphClass: 2
Flags: W
AnchorPoint: "ArabicBelow" 579 -250 basechar 0
AnchorPoint: "ArabicAbove" 579 787 basechar 0
LayerCount: 2
Fore
SplineSet
379 146 m 2,0,1
 426 149 426 149 481 176.5 c 128,-1,2
 536 204 536 204 594 232.5 c 128,-1,3
 652 261 652 261 653 281 c 1,4,-1
 493 346 l 1,5,6
 355 390 355 390 327 390 c 0,7,8
 252 390 252 390 217 371 c 1,9,-1
 194 355 l 1,10,11
 267 470 267 470 308.5 501.5 c 128,-1,12
 350 533 350 533 394 535 c 2,13,-1
 429 537 l 1,14,15
 513 537 513 537 654 452 c 128,-1,16
 795 367 795 367 897.5 314 c 128,-1,17
 1000 261 1000 261 1114 221 c 1,18,-1
 1072 146 l 1,19,-1
 1239 146 l 1,20,-1
 1239 0 l 1,21,-1
 985 0 l 1,22,-1
 965 114 l 1,23,24
 902 151 902 151 836.5 162.5 c 128,-1,25
 771 174 771 174 698 146 c 1,26,27
 609 120 609 120 540 78 c 0,28,29
 420 0 420 0 345 0 c 2,30,-1
 -53 0 l 1,31,-1
 -53 146 l 1,32,-1
 379 146 l 2,0,1
EndSplineSet
EndChar

StartChar: khahisolated
Encoding: 65189 65189 118
Width: 877
GlyphClass: 2
Flags: W
AnchorPoint: "ArabicBelow" 438 -892 basechar 0
AnchorPoint: "ArabicAbove" 438 1207 basechar 0
LayerCount: 2
Fore
SplineSet
450 862 m 1,0,-1
 355 734 l 1,1,-1
 223 829 l 1,2,-1
 315 957 l 1,3,-1
 450 862 l 1,0,-1
936 -535 m 1,4,5
 921 -552 921 -552 895 -570 c 128,-1,6
 869 -588 869 -588 830 -604 c 1,7,8
 703 -642 703 -642 521 -642 c 0,9,10
 313 -642 313 -642 189 -536 c 256,11,12
 65 -430 65 -430 65 -271 c 0,13,14
 65 -195 65 -195 83.5 -106.5 c 128,-1,15
 102 -18 102 -18 141 62 c 0,16,17
 207 198 207 198 348 325 c 1,18,-1
 348 346 l 1,19,20
 325 352 325 352 307.5 358 c 128,-1,21
 290 364 290 364 272 366 c 2,22,-1
 224 372 l 1,23,-1
 167 372 l 2,24,25
 121 372 121 372 78 340 c 0,26,27
 52 317 52 317 41 316 c 1,28,-1
 73 428 l 2,29,30
 100 536 100 536 197.5 543.5 c 128,-1,31
 295 551 295 551 424 506 c 1,32,33
 491 487 491 487 551.5 475 c 128,-1,34
 612 463 612 463 663.5 456.5 c 128,-1,35
 715 450 715 450 757 447 c 128,-1,36
 799 444 799 444 830 442 c 1,37,-1
 774 326 l 1,38,39
 747 325 747 325 715.5 321 c 128,-1,40
 684 317 684 317 631 306 c 0,41,42
 605 301 605 301 578 295 c 128,-1,43
 551 289 551 289 523 281 c 1,44,-1
 522 282 l 1,45,-1
 434 250 l 2,46,47
 373 226 373 226 321.5 184 c 128,-1,48
 270 142 270 142 224 73 c 0,49,50
 134 -61 134 -61 134 -171 c 0,51,52
 134 -303 134 -303 247 -395 c 0,53,54
 286 -429 286 -429 352 -456 c 0,55,56
 384 -470 384 -470 410.5 -479.5 c 128,-1,57
 437 -489 437 -489 457 -494 c 0,58,59
 478 -499 478 -499 511.5 -504.5 c 128,-1,60
 545 -510 545 -510 592 -516 c 0,61,62
 640 -522 640 -522 687.5 -526 c 128,-1,63
 735 -530 735 -530 785 -535 c 1,64,-1
 936 -535 l 1,4,5
EndSplineSet
EndChar

StartChar: khahfinal
Encoding: 65190 65190 119
Width: 949
GlyphClass: 2
Flags: W
AnchorPoint: "ArabicBelow" 474 -892 basechar 0
AnchorPoint: "ArabicAbove" 474 1198 basechar 0
LayerCount: 2
Fore
SplineSet
936 -535 m 1,0,1
 921 -552 921 -552 895 -570 c 128,-1,2
 869 -588 869 -588 830 -604 c 1,3,4
 703 -642 703 -642 521 -642 c 0,5,6
 313 -642 313 -642 189 -536 c 256,7,8
 65 -430 65 -430 65 -271 c 0,9,10
 65 -195 65 -195 83.5 -106.5 c 128,-1,11
 102 -18 102 -18 141 62 c 0,12,13
 207 198 207 198 348 325 c 1,14,-1
 348 346 l 1,15,16
 325 352 325 352 307.5 358 c 128,-1,17
 290 364 290 364 272 366 c 2,18,-1
 224 372 l 1,19,-1
 167 372 l 2,20,21
 121 372 121 372 78 340 c 0,22,23
 52 317 52 317 41 316 c 1,24,-1
 73 428 l 2,25,26
 100 536 100 536 197.5 543.5 c 128,-1,27
 295 551 295 551 424 506 c 1,28,29
 491 487 491 487 551.5 475 c 128,-1,30
 612 463 612 463 663.5 456.5 c 128,-1,31
 715 450 715 450 757 447 c 128,-1,32
 799 444 799 444 830 442 c 1,33,-1
 774 326 l 1,34,35
 747 325 747 325 715 321 c 0,36,37
 700 319 700 319 681 315 c 1,38,39
 676 302 676 302 671 279 c 0,40,41
 662 236 662 236 683.5 194 c 128,-1,42
 705 152 705 152 794 146 c 1,43,-1
 1049 146 l 1,44,-1
 1049 0 l 1,45,-1
 814 0 l 2,46,47
 738 1 738 1 705 12 c 0,48,49
 665 29 665 29 645.5 46 c 128,-1,50
 626 63 626 63 612 87 c 0,51,52
 601 109 601 109 601 143 c 0,53,54
 601 160 601 160 603.5 177.5 c 128,-1,55
 606 195 606 195 611 212 c 0,56,57
 617 233 617 233 621.5 246.5 c 128,-1,58
 626 260 626 260 628.5 270 c 128,-1,59
 631 280 631 280 632.5 288.5 c 128,-1,60
 634 297 634 297 634 306 c 1,61,62
 632 306 632 306 631 306 c 0,63,64
 605 301 605 301 578 295 c 128,-1,65
 551 289 551 289 523 281 c 1,66,-1
 522 282 l 1,67,-1
 434 250 l 2,68,69
 373 226 373 226 321.5 184 c 128,-1,70
 270 142 270 142 224 73 c 0,71,72
 134 -61 134 -61 134 -171 c 0,73,74
 134 -303 134 -303 247 -395 c 0,75,76
 286 -429 286 -429 352 -456 c 0,77,78
 384 -470 384 -470 410.5 -479.5 c 128,-1,79
 437 -489 437 -489 457 -494 c 0,80,81
 478 -499 478 -499 511.5 -504.5 c 128,-1,82
 545 -510 545 -510 592 -516 c 0,83,84
 640 -522 640 -522 687.5 -526 c 128,-1,85
 735 -530 735 -530 785 -535 c 1,86,-1
 936 -535 l 1,0,1
448 853 m 1,87,-1
 353 725 l 1,88,-1
 221 820 l 1,89,-1
 313 948 l 1,90,-1
 448 853 l 1,87,-1
EndSplineSet
EndChar

StartChar: khahinitial
Encoding: 65191 65191 120
Width: 1122
GlyphClass: 2
Flags: W
AnchorPoint: "ArabicBelow" 561 -250 basechar 0
AnchorPoint: "ArabicAbove" 561 1185 basechar 0
LayerCount: 2
Fore
SplineSet
552 840 m 1,0,-1
 457 712 l 1,1,-1
 325 807 l 1,2,-1
 417 935 l 1,3,-1
 552 840 l 1,0,-1
349 146 m 2,4,5
 396 149 396 149 451 179.5 c 128,-1,6
 506 210 506 210 564 235.5 c 128,-1,7
 622 261 622 261 623 281 c 1,8,-1
 463 346 l 1,9,10
 325 390 325 390 297 390 c 0,11,12
 222 390 222 390 187 371 c 1,13,-1
 164 355 l 1,14,15
 223 463 223 463 264.5 494.5 c 128,-1,16
 306 526 306 526 350 528 c 1,17,18
 458 551 458 551 588 470.5 c 128,-1,19
 718 390 718 390 843 324 c 128,-1,20
 968 258 968 258 1091 229 c 1,21,-1
 1005 113 l 1,22,-1
 720 146 l 1,23,24
 668 146 668 146 623.5 133 c 128,-1,25
 579 120 579 120 510 78 c 0,26,27
 447 41 447 41 397 20.5 c 128,-1,28
 347 0 347 0 315 0 c 2,29,-1
 -83 0 l 1,30,-1
 -83 146 l 1,31,-1
 349 146 l 2,4,5
EndSplineSet
EndChar

StartChar: khahmedial
Encoding: 65192 65192 121
Width: 1175
GlyphClass: 2
Flags: W
AnchorPoint: "ArabicBelow" 587 -250 basechar 0
AnchorPoint: "ArabicAbove" 587 1181 basechar 0
LayerCount: 2
Fore
SplineSet
530 836 m 1,0,-1
 435 708 l 1,1,-1
 303 803 l 1,2,-1
 395 931 l 1,3,-1
 530 836 l 1,0,-1
379 146 m 2,4,5
 426 149 426 149 481 176.5 c 128,-1,6
 536 204 536 204 594 232.5 c 128,-1,7
 652 261 652 261 653 281 c 1,8,-1
 493 346 l 1,9,10
 355 390 355 390 327 390 c 0,11,12
 252 390 252 390 217 371 c 1,13,-1
 194 355 l 1,14,15
 267 470 267 470 308.5 501.5 c 128,-1,16
 350 533 350 533 394 535 c 2,17,-1
 429 537 l 1,18,19
 513 537 513 537 654 452 c 128,-1,20
 795 367 795 367 897.5 314 c 128,-1,21
 1000 261 1000 261 1114 221 c 1,22,-1
 1072 146 l 1,23,-1
 1239 146 l 1,24,-1
 1239 0 l 1,25,-1
 985 0 l 1,26,-1
 965 114 l 1,27,28
 902 151 902 151 836.5 162.5 c 128,-1,29
 771 174 771 174 698 146 c 1,30,31
 609 120 609 120 540 78 c 0,32,33
 420 0 420 0 345 0 c 2,34,-1
 -53 0 l 1,35,-1
 -53 146 l 1,36,-1
 379 146 l 2,4,5
EndSplineSet
EndChar

StartChar: dalisolated
Encoding: 65193 65193 122
Width: 562
GlyphClass: 2
Flags: W
AnchorPoint: "ArabicBelow" 281 -265 basechar 0
AnchorPoint: "ArabicAbove" 281 917 basechar 0
LayerCount: 2
Fore
SplineSet
50 149 m 1,0,1
 159 141 159 141 258.5 138 c 128,-1,2
 358 135 358 135 461 146 c 1,3,4
 463 226 463 226 423 298 c 0,5,6
 356 426 356 426 231 492 c 1,7,-1
 258 667 l 1,8,9
 415 590 415 590 477 457 c 128,-1,10
 539 324 539 324 546 242.5 c 128,-1,11
 553 161 553 161 539 80 c 0,12,13
 524 0 524 0 491 0 c 0,14,15
 437 -6 437 -6 377 -10 c 128,-1,16
 317 -14 317 -14 255 -15 c 128,-1,17
 193 -16 193 -16 131.5 -12.5 c 128,-1,18
 70 -9 70 -9 14 0 c 1,19,-1
 50 149 l 1,0,1
EndSplineSet
EndChar

StartChar: dalfinal
Encoding: 65194 65194 123
Width: 805
GlyphClass: 2
Flags: W
AnchorPoint: "ArabicBelow" 402 -281 basechar 0
AnchorPoint: "ArabicAbove" 402 975 basechar 0
LayerCount: 2
Fore
SplineSet
809 0 m 1,0,-1
 708 0 l 2,1,2
 699 -1 699 -1 692.5 9.5 c 128,-1,3
 686 20 686 20 679.5 33.5 c 128,-1,4
 673 47 673 47 665 58 c 128,-1,5
 657 69 657 69 644 69 c 0,6,7
 633 68 633 68 617 55.5 c 128,-1,8
 601 43 601 43 580 27.5 c 128,-1,9
 559 12 559 12 534.5 -1.5 c 128,-1,10
 510 -15 510 -15 483 -18 c 0,11,12
 137 -45 137 -45 83.5 -19 c 128,-1,13
 30 7 30 7 27 46 c 128,-1,14
 24 85 24 85 38.5 148.5 c 128,-1,15
 53 212 53 212 68 258 c 128,-1,16
 83 304 83 304 85 306 c 1,17,18
 78 189 78 189 99 173 c 1,19,20
 112 145 112 145 148 130.5 c 128,-1,21
 184 116 184 116 231.5 111.5 c 128,-1,22
 279 107 279 107 333.5 111 c 128,-1,23
 388 115 388 115 436.5 124.5 c 128,-1,24
 485 134 485 134 523 147 c 128,-1,25
 561 160 561 160 577 174 c 1,26,27
 601 212 601 212 594 257 c 0,28,29
 573 388 573 388 516 555 c 1,30,-1
 599 725 l 1,31,-1
 727 208 l 1,32,33
 737 141 737 141 785 147 c 1,34,-1
 809 147 l 1,35,-1
 809 0 l 1,0,-1
EndSplineSet
EndChar

StartChar: thalisolated
Encoding: 65195 65195 124
Width: 577
GlyphClass: 2
Flags: W
AnchorPoint: "ArabicBelow" 288 -265 basechar 0
AnchorPoint: "ArabicAbove" 288 1249 basechar 0
LayerCount: 2
Fore
SplineSet
249 912 m 1,0,-1
 162 794 l 1,1,-1
 40 881 l 1,2,-1
 125 999 l 1,3,-1
 249 912 l 1,0,-1
50 149 m 1,4,5
 159 141 159 141 258.5 138 c 128,-1,6
 358 135 358 135 461 146 c 1,7,8
 463 226 463 226 423 298 c 0,9,10
 356 426 356 426 231 492 c 1,11,-1
 258 667 l 1,12,13
 415 590 415 590 477 457 c 128,-1,14
 539 324 539 324 546 242.5 c 128,-1,15
 553 161 553 161 539 80 c 0,16,17
 524 0 524 0 491 0 c 0,18,19
 437 -6 437 -6 377 -10 c 128,-1,20
 317 -14 317 -14 255 -15 c 128,-1,21
 193 -16 193 -16 131.5 -12.5 c 128,-1,22
 70 -9 70 -9 14 0 c 1,23,-1
 50 149 l 1,4,5
EndSplineSet
EndChar

StartChar: thalfinal
Encoding: 65196 65196 125
Width: 802
GlyphClass: 2
Flags: W
AnchorPoint: "ArabicBelow" 401 -281 basechar 0
AnchorPoint: "ArabicAbove" 401 1203 basechar 0
LayerCount: 2
Fore
SplineSet
424 953 m 1,0,-1
 548 866 l 1,1,-1
 461 748 l 1,2,-1
 339 835 l 1,3,-1
 424 953 l 1,0,-1
809 0 m 1,4,-1
 708 0 l 2,5,6
 699 -1 699 -1 692.5 9.5 c 128,-1,7
 686 20 686 20 679.5 33.5 c 128,-1,8
 673 47 673 47 665 58 c 128,-1,9
 657 69 657 69 644 69 c 0,10,11
 633 68 633 68 617 55.5 c 128,-1,12
 601 43 601 43 580 27.5 c 128,-1,13
 559 12 559 12 534.5 -1.5 c 128,-1,14
 510 -15 510 -15 483 -18 c 0,15,16
 137 -45 137 -45 83.5 -19 c 128,-1,17
 30 7 30 7 27 46 c 128,-1,18
 24 85 24 85 38.5 148.5 c 128,-1,19
 53 212 53 212 68 258 c 128,-1,20
 83 304 83 304 85 306 c 1,21,22
 78 189 78 189 99 173 c 1,23,24
 112 145 112 145 148 130.5 c 128,-1,25
 184 116 184 116 231.5 111.5 c 128,-1,26
 279 107 279 107 333.5 111 c 128,-1,27
 388 115 388 115 436.5 124.5 c 128,-1,28
 485 134 485 134 523 147 c 128,-1,29
 561 160 561 160 577 174 c 1,30,31
 601 212 601 212 594 257 c 0,32,33
 573 388 573 388 516 555 c 1,34,-1
 599 725 l 1,35,-1
 727 208 l 1,36,37
 737 141 737 141 785 147 c 1,38,-1
 809 147 l 1,39,-1
 809 0 l 1,4,-1
EndSplineSet
EndChar

StartChar: rehisolated
Encoding: 65197 65197 126
Width: 806
GlyphClass: 2
Flags: W
AnchorPoint: "ArabicBelow" 403 -646 basechar 0
AnchorPoint: "ArabicAbove" 403 755 basechar 0
LayerCount: 2
Fore
SplineSet
779 3 m 1,0,1
 745 -101 745 -101 634.5 -248.5 c 128,-1,2
 524 -396 524 -396 400 -396 c 0,3,4
 333 -396 333 -396 161 -332 c 1,5,6
 18 -284 18 -284 18 -258 c 1,7,-1
 152 -298 l 2,8,9
 227 -318 227 -318 264 -318 c 0,10,11
 367 -318 367 -318 545 -164 c 0,12,13
 722 -11 722 -11 725 88 c 0,14,15
 729 157 729 157 652 236 c 0,16,17
 625 262 625 262 598.5 287 c 128,-1,18
 572 312 572 312 548 332 c 1,19,-1
 588 505 l 1,20,21
 646 474 646 474 707 391 c 0,22,23
 793 269 793 269 793 124 c 0,24,25
 793 99 793 99 789.5 69 c 128,-1,26
 786 39 786 39 779 3 c 1,0,1
EndSplineSet
EndChar

StartChar: rehfinal
Encoding: 65198 65198 127
Width: 924
GlyphClass: 2
Flags: W
AnchorPoint: "ArabicBelow" 462 -643 basechar 0
AnchorPoint: "ArabicAbove" 462 668 basechar 0
LayerCount: 2
Fore
SplineSet
852 0 m 2,0,1
 837 0 837 0 827 2 c 128,-1,2
 817 4 817 4 808.5 8.5 c 128,-1,3
 800 13 800 13 792.5 21 c 128,-1,4
 785 29 785 29 775 41 c 1,5,-1
 749 41 l 1,6,7
 726 -85 726 -85 614 -239 c 0,8,9
 560 -308 560 -308 500.5 -350.5 c 128,-1,10
 441 -393 441 -393 384 -393 c 0,11,12
 321 -393 321 -393 176 -343 c 1,13,14
 5 -268 5 -268 7 -248 c 1,15,16
 208 -312 208 -312 252 -308.5 c 128,-1,17
 296 -305 296 -305 324 -290 c 128,-1,18
 352 -275 352 -275 428.5 -224.5 c 128,-1,19
 505 -174 505 -174 604 -68 c 1,20,21
 672 22 672 22 672 75 c 0,22,23
 672 90 672 90 657 121 c 0,24,25
 652 137 652 137 629 182.5 c 128,-1,26
 606 228 606 228 567 280 c 1,27,-1
 664 418 l 1,28,-1
 706 334 l 1,29,-1
 750 256 l 1,30,31
 799 185 799 185 832 156 c 1,32,33
 857 146 857 146 896 146 c 2,34,-1
 940 146 l 1,35,-1
 940 0 l 1,36,-1
 852 0 l 2,0,1
EndSplineSet
EndChar

StartChar: zainisolated
Encoding: 65199 65199 128
Width: 806
GlyphClass: 2
Flags: W
AnchorPoint: "ArabicBelow" 403 -646 basechar 0
AnchorPoint: "ArabicAbove" 403 1149 basechar 0
LayerCount: 2
Fore
SplineSet
613 812 m 1,0,-1
 526 694 l 1,1,-1
 404 781 l 1,2,-1
 489 899 l 1,3,-1
 613 812 l 1,0,-1
779 3 m 1,4,5
 745 -101 745 -101 634.5 -248.5 c 128,-1,6
 524 -396 524 -396 400 -396 c 0,7,8
 333 -396 333 -396 161 -332 c 1,9,10
 18 -284 18 -284 18 -258 c 1,11,-1
 152 -298 l 2,12,13
 227 -318 227 -318 264 -318 c 0,14,15
 367 -318 367 -318 545 -164 c 0,16,17
 722 -11 722 -11 725 88 c 0,18,19
 729 157 729 157 652 236 c 0,20,21
 625 262 625 262 598.5 287 c 128,-1,22
 572 312 572 312 548 332 c 1,23,-1
 588 505 l 1,24,25
 646 474 646 474 707 391 c 0,26,27
 793 269 793 269 793 124 c 0,28,29
 793 99 793 99 789.5 69 c 128,-1,30
 786 39 786 39 779 3 c 1,4,5
EndSplineSet
EndChar

StartChar: zainfinal
Encoding: 65200 65200 129
Width: 957
GlyphClass: 2
Flags: W
AnchorPoint: "ArabicBelow" 478 -643 basechar 0
AnchorPoint: "ArabicAbove" 478 1149 basechar 0
LayerCount: 2
Fore
SplineSet
707 812 m 1,0,-1
 620 694 l 1,1,-1
 498 781 l 1,2,-1
 583 899 l 1,3,-1
 707 812 l 1,0,-1
852 0 m 2,4,5
 837 0 837 0 827 2 c 128,-1,6
 817 4 817 4 808.5 8.5 c 128,-1,7
 800 13 800 13 792.5 21 c 128,-1,8
 785 29 785 29 775 41 c 1,9,-1
 749 41 l 1,10,11
 726 -85 726 -85 614 -239 c 0,12,13
 560 -308 560 -308 500.5 -350.5 c 128,-1,14
 441 -393 441 -393 384 -393 c 0,15,16
 321 -393 321 -393 176 -343 c 1,17,18
 5 -268 5 -268 7 -248 c 1,19,20
 208 -312 208 -312 252 -308.5 c 128,-1,21
 296 -305 296 -305 324 -290 c 128,-1,22
 352 -275 352 -275 428.5 -224.5 c 128,-1,23
 505 -174 505 -174 604 -68 c 1,24,25
 672 22 672 22 672 75 c 0,26,27
 672 90 672 90 657 121 c 0,28,29
 652 137 652 137 629 182.5 c 128,-1,30
 606 228 606 228 567 280 c 1,31,-1
 664 418 l 1,32,-1
 706 334 l 1,33,-1
 750 256 l 1,34,35
 799 185 799 185 832 156 c 1,36,37
 857 146 857 146 896 146 c 2,38,-1
 940 146 l 1,39,-1
 940 0 l 1,40,-1
 852 0 l 2,4,5
EndSplineSet
EndChar

StartChar: seenisolated
Encoding: 65201 65201 130
Width: 1630
GlyphClass: 2
Flags: W
AnchorPoint: "ArabicBelow" 815 -634 basechar 0
AnchorPoint: "ArabicAbove" 815 682 basechar 0
LayerCount: 2
Fore
SplineSet
1217 41 m 1,0,-1
 1163 0 l 1,1,-1
 864 0 l 1,2,-1
 864 -25 l 1,3,4
 854 -89 854 -89 828 -137.5 c 128,-1,5
 802 -186 802 -186 783.5 -216 c 128,-1,6
 765 -246 765 -246 746 -263 c 0,7,8
 693 -310 693 -310 560 -357 c 1,9,10
 447 -385 447 -385 373 -384 c 0,11,12
 226 -384 226 -384 133 -327 c 0,13,14
 30 -264 30 -264 30 -157 c 0,15,16
 30 -94 30 -94 42.5 -23.5 c 128,-1,17
 55 47 55 47 91 133 c 0,18,19
 157 293 157 293 187 293 c 1,20,-1
 104 72 l 2,21,22
 102 58 102 58 100.5 44.5 c 128,-1,23
 99 31 99 31 99 17 c 0,24,25
 99 -118 99 -118 230 -190 c 0,26,27
 252 -202 252 -202 273 -210 c 128,-1,28
 294 -218 294 -218 316 -223 c 2,29,-1
 362 -231 l 1,30,-1
 410 -234 l 1,31,-1
 453 -232 l 1,32,-1
 496 -224 l 1,33,-1
 552 -210 l 2,34,35
 569 -205 569 -205 586 -200.5 c 128,-1,36
 603 -196 603 -196 620 -188 c 0,37,38
 766 -141 766 -141 794 -91 c 1,39,-1
 796 -84 l 1,40,41
 796 -28 796 -28 783 46 c 128,-1,42
 770 120 770 120 693 211 c 1,43,-1
 773 365 l 1,44,-1
 842 221 l 2,45,46
 876 156 876 156 940 146 c 1,47,-1
 1215 146 l 1,48,-1
 1228 158 l 1,49,-1
 1238 289 l 1,50,-1
 1334 391 l 1,51,-1
 1322 345 l 1,52,53
 1298 211 1298 211 1298 177 c 1,54,-1
 1301 155 l 1,55,-1
 1313 146 l 1,56,-1
 1514 146 l 1,57,-1
 1527 158 l 1,58,-1
 1527 175 l 1,59,-1
 1523 212 l 1,60,-1
 1501 297 l 1,61,-1
 1602 432 l 1,62,-1
 1602 238 l 2,63,64
 1603 229 1603 229 1603 220 c 0,65,66
 1604 211 1604 211 1604 202 c 0,67,68
 1604 169 1604 169 1580 110 c 0,69,70
 1557 52 1557 52 1530 0 c 1,71,-1
 1258 0 l 1,72,-1
 1217 41 l 1,0,-1
EndSplineSet
EndChar

StartChar: seenfinal
Encoding: 65202 65202 131
Width: 1688
GlyphClass: 2
Flags: W
AnchorPoint: "ArabicBelow" 844 -634 basechar 0
AnchorPoint: "ArabicAbove" 844 682 basechar 0
LayerCount: 2
Fore
SplineSet
1694 0 m 1,0,-1
 1616 0 l 1,1,-1
 1549 58 l 1,2,-1
 1528 0 l 1,3,-1
 1256 0 l 1,4,-1
 1215 41 l 1,5,-1
 1161 0 l 1,6,-1
 860 0 l 1,7,-1
 860 -25 l 1,8,9
 850 -89 850 -89 824 -137.5 c 128,-1,10
 798 -186 798 -186 780 -216 c 0,11,12
 761 -246 761 -246 742 -263 c 0,13,14
 689 -310 689 -310 556 -357 c 1,15,16
 443 -385 443 -385 369 -384 c 0,17,18
 222 -384 222 -384 129 -327 c 0,19,20
 26 -264 26 -264 26 -157 c 0,21,22
 26 -94 26 -94 39 -23 c 0,23,24
 51 47 51 47 87 133 c 0,25,26
 153 293 153 293 183 293 c 1,27,-1
 100 72 l 2,28,29
 98 58 98 58 97 44 c 0,30,31
 95 31 95 31 95 17 c 0,32,33
 95 -118 95 -118 226 -190 c 0,34,35
 248 -202 248 -202 269 -210 c 256,36,37
 290 -218 290 -218 312 -223 c 2,38,-1
 358 -231 l 1,39,-1
 406 -234 l 1,40,-1
 449 -232 l 1,41,-1
 492 -224 l 1,42,-1
 548 -210 l 1,43,-1
 582 -200 l 2,44,45
 599 -196 599 -196 616 -188 c 0,46,47
 762 -141 762 -141 790 -91 c 1,48,-1
 792 -84 l 1,49,50
 792 -28 792 -28 779 46 c 256,51,52
 766 120 766 120 689 211 c 1,53,-1
 769 365 l 1,54,-1
 838 221 l 2,55,56
 872 156 872 156 936 146 c 1,57,-1
 1213 146 l 1,58,-1
 1226 158 l 1,59,-1
 1236 289 l 1,60,-1
 1332 391 l 1,61,-1
 1320 345 l 1,62,63
 1296 211 1296 211 1296 177 c 1,64,-1
 1299 155 l 1,65,-1
 1311 146 l 1,66,-1
 1512 146 l 1,67,-1
 1525 158 l 1,68,-1
 1525 175 l 1,69,-1
 1521 212 l 2,70,71
 1517 242 1517 242 1511.5 263 c 128,-1,72
 1506 284 1506 284 1499 297 c 1,73,-1
 1600 432 l 1,74,-1
 1600 238 l 1,75,-1
 1608 204 l 2,76,77
 1615 179 1615 179 1648 155 c 1,78,-1
 1666 147 l 1,79,-1
 1694 146 l 1,80,-1
 1694 0 l 1,0,-1
EndSplineSet
EndChar

StartChar: seeninitial
Encoding: 65203 65203 132
Width: 1027
GlyphClass: 2
Flags: W
AnchorPoint: "ArabicBelow" 513 -250 basechar 0
AnchorPoint: "ArabicAbove" 513 691 basechar 0
LayerCount: 2
Fore
SplineSet
-77 146 m 1,0,-1
 238 146 l 1,1,-1
 249 161 l 1,2,-1
 260 284 l 1,3,-1
 372 399 l 1,4,-1
 358 315 l 1,5,-1
 345 257 l 1,6,-1
 331 146 l 1,7,-1
 606 146 l 1,8,-1
 617 161 l 1,9,-1
 628 284 l 1,10,-1
 740 399 l 1,11,-1
 726 315 l 1,12,-1
 713 257 l 1,13,-1
 699 146 l 1,14,-1
 899 146 l 1,15,-1
 911 161 l 1,16,-1
 884 298 l 1,17,-1
 1005 441 l 1,18,-1
 1005 226 l 2,19,20
 1005 193 1005 193 1002 165 c 0,21,22
 1000 149 1000 149 987 123 c 2,23,-1
 932 0 l 1,24,-1
 666 0 l 1,25,-1
 610 51 l 1,26,-1
 579 0 l 1,27,-1
 292 0 l 1,28,-1
 236 38 l 1,29,-1
 182 0 l 1,30,-1
 -77 0 l 1,31,-1
 -77 146 l 1,0,-1
EndSplineSet
EndChar

StartChar: seenmedial
Encoding: 65204 65204 133
Width: 1056
GlyphClass: 2
Flags: W
AnchorPoint: "ArabicBelow" 528 -250 basechar 0
AnchorPoint: "ArabicAbove" 528 691 basechar 0
LayerCount: 2
Fore
SplineSet
-104 146 m 1,0,-1
 211 146 l 1,1,-1
 222 161 l 1,2,-1
 233 284 l 1,3,-1
 345 399 l 1,4,-1
 331 315 l 1,5,-1
 318 257 l 1,6,-1
 304 146 l 1,7,-1
 579 146 l 1,8,-1
 590 161 l 1,9,-1
 601 284 l 1,10,-1
 713 399 l 1,11,-1
 699 315 l 1,12,-1
 686 257 l 1,13,-1
 672 146 l 1,14,-1
 872 146 l 1,15,-1
 874 161 l 1,16,-1
 857 298 l 1,17,-1
 978 441 l 1,18,-1
 978 226 l 1,19,-1
 965 146 l 1,20,-1
 1067 146 l 1,21,-1
 1067 0 l 1,22,-1
 967 0 l 1,23,-1
 926 50 l 1,24,-1
 905 0 l 1,25,-1
 639 0 l 1,26,-1
 593 51 l 1,27,-1
 552 0 l 1,28,-1
 265 0 l 1,29,-1
 209 38 l 1,30,-1
 155 0 l 1,31,-1
 -104 0 l 1,32,-1
 -104 146 l 1,0,-1
EndSplineSet
EndChar

StartChar: sheenisolated
Encoding: 65205 65205 134
Width: 1630
GlyphClass: 2
Flags: W
AnchorPoint: "ArabicBelow" 815 -634 basechar 0
AnchorPoint: "ArabicAbove" 815 1232 basechar 0
LayerCount: 2
Fore
SplineSet
1298 907 m 1,0,-1
 1223 807 l 1,1,-1
 1119 882 l 1,2,-1
 1192 982 l 1,3,-1
 1298 907 l 1,0,-1
1234 697 m 1,4,-1
 1147 579 l 1,5,-1
 1025 666 l 1,6,-1
 1110 784 l 1,7,-1
 1234 697 l 1,4,-1
1414 697 m 1,8,-1
 1327 579 l 1,9,-1
 1205 666 l 1,10,-1
 1290 784 l 1,11,-1
 1414 697 l 1,8,-1
1258 0 m 1,12,-1
 1530 0 l 1,13,14
 1557 52 1557 52 1580 110 c 0,15,16
 1604 169 1604 169 1604 202 c 0,17,18
 1604 211 1604 211 1603 220 c 0,19,20
 1603 229 1603 229 1602 238 c 2,21,-1
 1602 432 l 1,22,-1
 1501 297 l 1,23,-1
 1523 212 l 1,24,-1
 1527 175 l 1,25,-1
 1527 158 l 1,26,-1
 1514 146 l 1,27,-1
 1313 146 l 1,28,-1
 1301 155 l 1,29,-1
 1298 177 l 1,30,31
 1298 211 1298 211 1322 345 c 1,32,-1
 1334 391 l 1,33,-1
 1238 289 l 1,34,-1
 1228 158 l 1,35,-1
 1215 146 l 1,36,-1
 940 146 l 1,37,38
 876 156 876 156 842 221 c 2,39,-1
 773 365 l 1,40,-1
 693 211 l 1,41,42
 770 120 770 120 783 46 c 128,-1,43
 796 -28 796 -28 796 -84 c 1,44,-1
 794 -91 l 1,45,46
 766 -141 766 -141 620 -188 c 0,47,48
 603 -196 603 -196 586 -200.5 c 128,-1,49
 569 -205 569 -205 552 -210 c 2,50,-1
 496 -224 l 1,51,-1
 453 -232 l 1,52,-1
 410 -234 l 1,53,-1
 362 -231 l 1,54,-1
 316 -223 l 2,55,56
 294 -218 294 -218 273 -210 c 128,-1,57
 252 -202 252 -202 230 -190 c 0,58,59
 99 -118 99 -118 99 17 c 0,60,61
 99 31 99 31 100.5 44.5 c 128,-1,62
 102 58 102 58 104 72 c 2,63,-1
 187 293 l 1,64,65
 157 293 157 293 91 133 c 0,66,67
 55 47 55 47 42.5 -23.5 c 128,-1,68
 30 -94 30 -94 30 -157 c 0,69,70
 30 -264 30 -264 133 -327 c 0,71,72
 226 -384 226 -384 373 -384 c 0,73,74
 447 -385 447 -385 560 -357 c 1,75,76
 693 -310 693 -310 746 -263 c 0,77,78
 765 -246 765 -246 783.5 -216 c 128,-1,79
 802 -186 802 -186 828 -137.5 c 128,-1,80
 854 -89 854 -89 864 -25 c 1,81,-1
 864 0 l 1,82,-1
 1163 0 l 1,83,-1
 1217 41 l 1,84,-1
 1258 0 l 1,12,-1
EndSplineSet
EndChar

StartChar: sheenfinal
Encoding: 65206 65206 135
Width: 1688
GlyphClass: 2
Flags: W
AnchorPoint: "ArabicBelow" 844 -634 basechar 0
AnchorPoint: "ArabicAbove" 844 1223 basechar 0
LayerCount: 2
Fore
SplineSet
1191 973 m 1,0,-1
 1295 900 l 1,1,-1
 1222 801 l 1,2,-1
 1119 874 l 1,3,-1
 1191 973 l 1,0,-1
1110 778 m 1,4,-1
 1234 691 l 1,5,-1
 1147 573 l 1,6,-1
 1025 660 l 1,7,-1
 1110 778 l 1,4,-1
1290 778 m 1,8,-1
 1414 691 l 1,9,-1
 1327 573 l 1,10,-1
 1205 660 l 1,11,-1
 1290 778 l 1,8,-1
1694 146 m 1,12,-1
 1666 147 l 1,13,-1
 1648 155 l 1,14,15
 1615 179 1615 179 1608 204 c 2,16,-1
 1600 238 l 1,17,-1
 1600 432 l 1,18,-1
 1499 297 l 1,19,20
 1506 284 1506 284 1511.5 263 c 128,-1,21
 1517 242 1517 242 1521 212 c 2,22,-1
 1525 175 l 1,23,-1
 1525 158 l 1,24,-1
 1512 146 l 1,25,-1
 1311 146 l 1,26,-1
 1299 155 l 1,27,-1
 1296 177 l 1,28,29
 1296 211 1296 211 1320 345 c 1,30,-1
 1332 391 l 1,31,-1
 1236 289 l 1,32,-1
 1226 158 l 1,33,-1
 1213 146 l 1,34,-1
 936 146 l 1,35,36
 872 156 872 156 838 221 c 2,37,-1
 769 365 l 1,38,-1
 689 211 l 1,39,40
 766 120 766 120 779 46 c 256,41,42
 792 -28 792 -28 792 -84 c 1,43,-1
 790 -91 l 1,44,45
 762 -141 762 -141 616 -188 c 0,46,47
 599 -196 599 -196 582 -200 c 2,48,-1
 548 -210 l 1,49,-1
 492 -224 l 1,50,-1
 449 -232 l 1,51,-1
 406 -234 l 1,52,-1
 358 -231 l 1,53,-1
 312 -223 l 2,54,55
 290 -218 290 -218 269 -210 c 256,56,57
 248 -202 248 -202 226 -190 c 0,58,59
 95 -118 95 -118 95 17 c 0,60,61
 95 31 95 31 97 44 c 0,62,63
 98 58 98 58 100 72 c 2,64,-1
 183 293 l 1,65,66
 153 293 153 293 87 133 c 0,67,68
 51 47 51 47 39 -23 c 0,69,70
 26 -94 26 -94 26 -157 c 0,71,72
 26 -264 26 -264 129 -327 c 0,73,74
 222 -384 222 -384 369 -384 c 0,75,76
 443 -385 443 -385 556 -357 c 1,77,78
 689 -310 689 -310 742 -263 c 0,79,80
 761 -246 761 -246 780 -216 c 0,81,82
 798 -186 798 -186 824 -137.5 c 128,-1,83
 850 -89 850 -89 860 -25 c 1,84,-1
 860 0 l 1,85,-1
 1161 0 l 1,86,-1
 1215 41 l 1,87,-1
 1256 0 l 1,88,-1
 1528 0 l 1,89,-1
 1549 58 l 1,90,-1
 1616 0 l 1,91,-1
 1694 0 l 1,92,-1
 1694 146 l 1,12,-1
EndSplineSet
EndChar

StartChar: sheeninitial
Encoding: 65207 65207 136
Width: 1044
GlyphClass: 2
Flags: W
AnchorPoint: "ArabicBelow" 522 -250 basechar 0
AnchorPoint: "ArabicAbove" 522 1257 basechar 0
LayerCount: 2
Fore
SplineSet
-72 146 m 1,0,-1
 243 146 l 1,1,-1
 254 161 l 1,2,-1
 265 284 l 1,3,-1
 377 399 l 1,4,-1
 363 315 l 1,5,-1
 350 257 l 1,6,-1
 336 146 l 1,7,-1
 611 146 l 1,8,-1
 622 161 l 1,9,-1
 633 284 l 1,10,-1
 745 399 l 1,11,-1
 731 315 l 1,12,-1
 718 257 l 1,13,-1
 704 146 l 1,14,-1
 904 146 l 1,15,-1
 916 161 l 1,16,-1
 889 298 l 1,17,-1
 1010 441 l 1,18,-1
 1010 226 l 2,19,20
 1010 193 1010 193 1007 165 c 0,21,22
 1003 146 1003 146 992 123 c 2,23,-1
 937 0 l 1,24,-1
 671 0 l 1,25,-1
 615 51 l 1,26,-1
 584 0 l 1,27,-1
 297 0 l 1,28,-1
 241 38 l 1,29,-1
 187 0 l 1,30,-1
 -72 0 l 1,31,-1
 -72 146 l 1,0,-1
769 934 m 1,32,-1
 696 835 l 1,33,-1
 593 908 l 1,34,-1
 665 1007 l 1,35,-1
 769 934 l 1,32,-1
708 725 m 1,36,-1
 621 607 l 1,37,-1
 499 694 l 1,38,-1
 584 812 l 1,39,-1
 708 725 l 1,36,-1
888 725 m 1,40,-1
 801 607 l 1,41,-1
 679 694 l 1,42,-1
 764 812 l 1,43,-1
 888 725 l 1,40,-1
EndSplineSet
EndChar

StartChar: sheenmedial
Encoding: 65208 65208 137
Width: 1073
GlyphClass: 2
Flags: W
AnchorPoint: "ArabicBelow" 536 -250 basechar 0
AnchorPoint: "ArabicAbove" 536 1257 basechar 0
LayerCount: 2
Fore
SplineSet
-89 146 m 1,0,-1
 226 146 l 1,1,-1
 237 161 l 1,2,-1
 248 284 l 1,3,-1
 360 399 l 1,4,-1
 346 315 l 1,5,-1
 333 257 l 1,6,-1
 319 146 l 1,7,-1
 594 146 l 1,8,-1
 605 161 l 1,9,-1
 616 284 l 1,10,-1
 728 399 l 1,11,-1
 714 315 l 1,12,-1
 701 257 l 1,13,-1
 687 146 l 1,14,-1
 887 146 l 1,15,-1
 889 161 l 1,16,-1
 872 298 l 1,17,-1
 993 441 l 1,18,-1
 993 226 l 1,19,-1
 980 146 l 1,20,-1
 1082 146 l 1,21,-1
 1082 0 l 1,22,-1
 982 0 l 1,23,-1
 941 50 l 1,24,-1
 920 0 l 1,25,-1
 654 0 l 1,26,-1
 608 51 l 1,27,-1
 567 0 l 1,28,-1
 280 0 l 1,29,-1
 224 38 l 1,30,-1
 170 0 l 1,31,-1
 -89 0 l 1,32,-1
 -89 146 l 1,0,-1
774 934 m 1,33,-1
 701 835 l 1,34,-1
 598 908 l 1,35,-1
 670 1007 l 1,36,-1
 774 934 l 1,33,-1
713 725 m 1,37,-1
 626 607 l 1,38,-1
 504 694 l 1,39,-1
 589 812 l 1,40,-1
 713 725 l 1,37,-1
893 725 m 1,41,-1
 806 607 l 1,42,-1
 684 694 l 1,43,-1
 769 812 l 1,44,-1
 893 725 l 1,41,-1
EndSplineSet
EndChar

StartChar: sadisolated
Encoding: 65209 65209 138
Width: 2022
GlyphClass: 2
Flags: W
AnchorPoint: "ArabicBelow" 1011 -634 basechar 0
AnchorPoint: "ArabicAbove" 1011 804 basechar 0
LayerCount: 2
Fore
SplineSet
986 124 m 1,0,1
 1060 126 1060 126 1307 313 c 128,-1,2
 1554 500 1554 500 1613.5 527 c 128,-1,3
 1673 554 1673 554 1700 554 c 0,4,5
 1771 554 1771 554 1895 460.5 c 128,-1,6
 2019 367 2019 367 1990 272 c 0,7,8
 1979 230 1979 230 1967 202 c 128,-1,9
 1955 174 1955 174 1942 139 c 0,10,11
 1932 119 1932 119 1921 98.5 c 128,-1,12
 1910 78 1910 78 1895.5 61.5 c 128,-1,13
 1881 45 1881 45 1862.5 34 c 128,-1,14
 1844 23 1844 23 1820 22 c 0,15,16
 1756 17 1756 17 1658 13 c 128,-1,17
 1560 9 1560 9 1441 7 c 2,18,-1
 1148 2 l 1,19,-1
 1117 0 l 1,20,-1
 870 0 l 1,21,-1
 870 -25 l 1,22,23
 860 -89 860 -89 834 -137.5 c 128,-1,24
 808 -186 808 -186 789.5 -216 c 128,-1,25
 771 -246 771 -246 752 -263 c 0,26,27
 699 -310 699 -310 566 -357 c 1,28,29
 453 -385 453 -385 379 -384 c 0,30,31
 232 -384 232 -384 139 -327 c 0,32,33
 36 -264 36 -264 36 -157 c 0,34,35
 36 -94 36 -94 48.5 -23.5 c 128,-1,36
 61 47 61 47 97 133 c 0,37,38
 163 293 163 293 193 293 c 1,39,-1
 110 72 l 2,40,41
 108 58 108 58 106.5 44.5 c 128,-1,42
 105 31 105 31 105 17 c 0,43,44
 105 -118 105 -118 236 -190 c 0,45,46
 258 -202 258 -202 279 -210 c 128,-1,47
 300 -218 300 -218 322 -223 c 2,48,-1
 368 -231 l 1,49,-1
 416 -234 l 1,50,-1
 459 -232 l 1,51,-1
 502 -224 l 1,52,-1
 558 -210 l 2,53,54
 575 -205 575 -205 592 -200.5 c 128,-1,55
 609 -196 609 -196 626 -188 c 0,56,57
 772 -141 772 -141 800 -91 c 1,58,-1
 802 -84 l 1,59,60
 802 -28 802 -28 789 46 c 128,-1,61
 776 120 776 120 699 211 c 1,62,-1
 779 365 l 1,63,-1
 848 221 l 1,64,65
 892 116 892 116 986 124 c 1,0,1
1743 145 m 1,66,67
 1875 140 1875 140 1861 250 c 0,68,69
 1856 286 1856 286 1775 346 c 1,70,-1
 1772 348 l 2,71,72
 1753 360 1753 360 1736 370 c 128,-1,73
 1719 380 1719 380 1695 388 c 0,74,75
 1671 397 1671 397 1661.5 398.5 c 128,-1,76
 1652 400 1652 400 1637 401 c 0,77,78
 1606 401 1606 401 1572.5 393 c 128,-1,79
 1539 385 1539 385 1507 368 c 2,80,-1
 1237 203 l 1,81,-1
 1146 145 l 1,82,-1
 1152 145 l 1,83,-1
 1743 145 l 1,66,67
EndSplineSet
EndChar

StartChar: sadfinal
Encoding: 65210 65210 139
Width: 2027
GlyphClass: 2
Flags: W
AnchorPoint: "ArabicBelow" 1013 -634 basechar 0
AnchorPoint: "ArabicAbove" 1013 804 basechar 0
LayerCount: 2
Fore
SplineSet
988 124 m 1,0,1
 1062 126 1062 126 1309 313 c 128,-1,2
 1556 500 1556 500 1616 527 c 0,3,4
 1675 554 1675 554 1702 554 c 0,5,6
 1773 554 1773 554 1897 460 c 0,7,8
 2021 367 2021 367 1992 272 c 0,9,10
 1987 252 1987 252 1981.5 235.5 c 128,-1,11
 1976 219 1976 219 1970 204 c 2,12,-1
 1958 176 l 2,13,14
 1952 161 1952 161 1946 145 c 1,15,-1
 2053 145 l 1,16,-1
 2053 0 l 1,17,-1
 1728 0 l 1,18,-1
 1729 1 l 1,19,-1
 872 0 l 1,20,-1
 872 -25 l 1,21,22
 862 -89 862 -89 836 -137.5 c 128,-1,23
 810 -186 810 -186 792 -216 c 0,24,25
 773 -246 773 -246 754 -263 c 0,26,27
 701 -310 701 -310 568 -357 c 1,28,29
 455 -385 455 -385 381 -384 c 0,30,31
 234 -384 234 -384 141 -327 c 0,32,33
 38 -264 38 -264 38 -157 c 0,34,35
 38 -94 38 -94 51 -23 c 0,36,37
 63 47 63 47 99 133 c 0,38,39
 165 293 165 293 195 293 c 1,40,-1
 112 72 l 2,41,42
 110 58 110 58 109 44 c 0,43,44
 107 31 107 31 107 17 c 0,45,46
 107 -118 107 -118 238 -190 c 0,47,48
 260 -202 260 -202 281 -210 c 256,49,50
 302 -218 302 -218 324 -223 c 2,51,-1
 370 -231 l 1,52,-1
 418 -234 l 1,53,-1
 461 -232 l 1,54,-1
 504 -224 l 1,55,-1
 560 -210 l 1,56,-1
 594 -200 l 2,57,58
 611 -196 611 -196 628 -188 c 0,59,60
 774 -141 774 -141 802 -91 c 1,61,-1
 804 -84 l 1,62,63
 804 -28 804 -28 791 46 c 256,64,65
 778 120 778 120 701 211 c 1,66,-1
 781 365 l 1,67,-1
 850 221 l 1,68,69
 894 116 894 116 988 124 c 1,0,1
1745 145 m 1,70,71
 1877 140 1877 140 1863 250 c 0,72,73
 1858 286 1858 286 1777 346 c 1,74,-1
 1774 348 l 2,75,76
 1755 360 1755 360 1738 370 c 256,77,78
 1721 380 1721 380 1697 388 c 0,79,80
 1673 397 1673 397 1664 398 c 0,81,82
 1654 400 1654 400 1639 401 c 0,83,84
 1608 401 1608 401 1575 393 c 0,85,86
 1541 385 1541 385 1509 368 c 2,87,-1
 1239 203 l 1,88,-1
 1148 145 l 1,89,-1
 1745 145 l 1,70,71
EndSplineSet
EndChar

StartChar: sadinitial
Encoding: 65211 65211 140
Width: 1458
GlyphClass: 2
Flags: W
AnchorPoint: "ArabicBelow" 729 -250 basechar 0
AnchorPoint: "ArabicAbove" 729 804 basechar 0
LayerCount: 2
Fore
SplineSet
1189 145 m 1,0,1
 1321 140 1321 140 1307 250 c 0,2,3
 1302 286 1302 286 1221 346 c 1,4,-1
 1218 348 l 2,5,6
 1199 360 1199 360 1182 370 c 128,-1,7
 1165 380 1165 380 1141 388 c 0,8,9
 1117 397 1117 397 1107.5 398.5 c 128,-1,10
 1098 400 1098 400 1083 401 c 0,11,12
 1052 401 1052 401 1018.5 393 c 128,-1,13
 985 385 985 385 953 368 c 2,14,-1
 683 203 l 1,15,-1
 592 145 l 1,16,-1
 1189 145 l 1,0,1
248 145 m 1,17,-1
 219 342 l 1,18,-1
 336 495 l 1,19,-1
 349 237 l 2,20,21
 350 165 350 165 414 150.5 c 128,-1,22
 478 136 478 136 602 232 c 1,23,24
 1011 504 1011 504 1065 529 c 128,-1,25
 1119 554 1119 554 1146 554 c 0,26,27
 1217 554 1217 554 1341 460.5 c 128,-1,28
 1465 367 1465 367 1436 272 c 0,29,30
 1425 230 1425 230 1413 202 c 128,-1,31
 1401 174 1401 174 1388 139 c 0,32,33
 1378 119 1378 119 1367 98.5 c 128,-1,34
 1356 78 1356 78 1341.5 61.5 c 128,-1,35
 1327 45 1327 45 1308.5 34 c 128,-1,36
 1290 23 1290 23 1266 22 c 0,37,38
 1202 17 1202 17 1104 13 c 128,-1,39
 1006 9 1006 9 887 7 c 2,40,-1
 586 2 l 1,41,-1
 275 0 l 1,42,-1
 240 72 l 1,43,-1
 154 0 l 1,44,-1
 -46 0 l 1,45,-1
 -46 145 l 1,46,-1
 248 145 l 1,17,-1
EndSplineSet
EndChar

StartChar: sadmedial
Encoding: 65212 65212 141
Width: 1479
GlyphClass: 2
Flags: W
AnchorPoint: "ArabicBelow" 739 -251 basechar 0
AnchorPoint: "ArabicAbove" 739 804 basechar 0
LayerCount: 2
Fore
SplineSet
1191 -1 m 1,0,-1
 1193 1 l 1,1,-1
 278 0 l 1,2,-1
 243 72 l 1,3,-1
 157 0 l 1,4,-1
 -43 0 l 1,5,-1
 -43 145 l 1,6,-1
 251 145 l 1,7,-1
 222 342 l 1,8,-1
 339 495 l 1,9,-1
 352 237 l 2,10,11
 353 165 353 165 417 150 c 0,12,13
 481 136 481 136 605 232 c 1,14,15
 1014 504 1014 504 1068 529 c 256,16,17
 1122 554 1122 554 1149 554 c 0,18,19
 1220 554 1220 554 1344 460 c 0,20,21
 1468 367 1468 367 1439 272 c 0,22,23
 1434 252 1434 252 1428.5 235.5 c 128,-1,24
 1423 219 1423 219 1417 204 c 2,25,-1
 1405 176 l 2,26,27
 1399 161 1399 161 1393 145 c 1,28,-1
 1499 145 l 1,29,-1
 1498 0 l 1,30,-1
 1191 -1 l 1,0,-1
1192 145 m 1,31,32
 1324 140 1324 140 1310 250 c 0,33,34
 1305 286 1305 286 1224 346 c 1,35,-1
 1221 348 l 2,36,37
 1202 360 1202 360 1185 370 c 256,38,39
 1168 380 1168 380 1144 388 c 0,40,41
 1120 397 1120 397 1111 398 c 0,42,43
 1101 400 1101 400 1086 401 c 0,44,45
 1055 401 1055 401 1022 393 c 0,46,47
 988 385 988 385 956 368 c 2,48,-1
 686 203 l 1,49,-1
 595 145 l 1,50,-1
 1192 145 l 1,31,32
EndSplineSet
EndChar

StartChar: dadisolated
Encoding: 65213 65213 142
Width: 2022
GlyphClass: 2
Flags: W
AnchorPoint: "ArabicBelow" 1011 -634 basechar 0
AnchorPoint: "ArabicAbove" 1011 1195 basechar 0
LayerCount: 2
Fore
SplineSet
1819 208 m 2,0,-1
 1822 210 l 2,1,2
 1820 208 1820 208 1819 208 c 2,0,-1
1512 858 m 1,3,-1
 1425 740 l 1,4,-1
 1303 827 l 1,5,-1
 1388 945 l 1,6,-1
 1512 858 l 1,3,-1
986 124 m 1,7,8
 1060 126 1060 126 1307 313 c 128,-1,9
 1554 500 1554 500 1613.5 527 c 128,-1,10
 1673 554 1673 554 1700 554 c 0,11,12
 1771 554 1771 554 1895 460.5 c 128,-1,13
 2019 367 2019 367 1990 272 c 0,14,15
 1979 230 1979 230 1967 202 c 128,-1,16
 1955 174 1955 174 1942 139 c 0,17,18
 1932 119 1932 119 1921 98.5 c 128,-1,19
 1910 78 1910 78 1895.5 61.5 c 128,-1,20
 1881 45 1881 45 1862.5 34 c 128,-1,21
 1844 23 1844 23 1820 22 c 0,22,23
 1756 17 1756 17 1658 13 c 128,-1,24
 1560 9 1560 9 1441 7 c 2,25,-1
 1148 2 l 1,26,-1
 1117 0 l 1,27,-1
 870 0 l 1,28,-1
 870 -25 l 1,29,30
 860 -89 860 -89 834 -137.5 c 128,-1,31
 808 -186 808 -186 789.5 -216 c 128,-1,32
 771 -246 771 -246 752 -263 c 0,33,34
 699 -310 699 -310 566 -357 c 1,35,36
 453 -385 453 -385 379 -384 c 0,37,38
 232 -384 232 -384 139 -327 c 0,39,40
 36 -264 36 -264 36 -157 c 0,41,42
 36 -94 36 -94 48.5 -23.5 c 128,-1,43
 61 47 61 47 97 133 c 0,44,45
 163 293 163 293 193 293 c 1,46,-1
 110 72 l 2,47,48
 108 58 108 58 106.5 44.5 c 128,-1,49
 105 31 105 31 105 17 c 0,50,51
 105 -118 105 -118 236 -190 c 0,52,53
 258 -202 258 -202 279 -210 c 128,-1,54
 300 -218 300 -218 322 -223 c 2,55,-1
 368 -231 l 1,56,-1
 416 -234 l 1,57,-1
 459 -232 l 1,58,-1
 502 -224 l 1,59,-1
 558 -210 l 2,60,61
 575 -205 575 -205 592 -200.5 c 128,-1,62
 609 -196 609 -196 626 -188 c 0,63,64
 772 -141 772 -141 800 -91 c 1,65,-1
 802 -84 l 1,66,67
 802 -28 802 -28 789 46 c 128,-1,68
 776 120 776 120 699 211 c 1,69,-1
 779 365 l 1,70,-1
 848 221 l 1,71,72
 892 116 892 116 986 124 c 1,7,8
1743 145 m 1,73,74
 1875 140 1875 140 1861 250 c 0,75,76
 1856 286 1856 286 1775 346 c 1,77,-1
 1772 348 l 2,78,79
 1753 360 1753 360 1736 370 c 128,-1,80
 1719 380 1719 380 1695 388 c 0,81,82
 1671 397 1671 397 1661.5 398.5 c 128,-1,83
 1652 400 1652 400 1637 401 c 0,84,85
 1606 401 1606 401 1572.5 393 c 128,-1,86
 1539 385 1539 385 1507 368 c 2,87,-1
 1237 203 l 1,88,-1
 1146 145 l 1,89,-1
 1152 145 l 1,90,-1
 1743 145 l 1,73,74
EndSplineSet
EndChar

StartChar: dadfinal
Encoding: 65214 65214 143
Width: 2025
GlyphClass: 2
Flags: W
AnchorPoint: "ArabicBelow" 1012 -634 basechar 0
AnchorPoint: "ArabicAbove" 1012 1195 basechar 0
LayerCount: 2
Fore
SplineSet
1482 858 m 1,0,-1
 1395 740 l 1,1,-1
 1273 827 l 1,2,-1
 1358 945 l 1,3,-1
 1482 858 l 1,0,-1
988 124 m 1,4,5
 1062 126 1062 126 1309 313 c 128,-1,6
 1556 500 1556 500 1616 527 c 0,7,8
 1675 554 1675 554 1702 554 c 0,9,10
 1773 554 1773 554 1897 460 c 0,11,12
 2021 367 2021 367 1992 272 c 0,13,14
 1987 252 1987 252 1981.5 235.5 c 128,-1,15
 1976 219 1976 219 1970 204 c 2,16,-1
 1958 176 l 2,17,18
 1952 161 1952 161 1946 145 c 1,19,-1
 2053 145 l 1,20,-1
 2053 0 l 1,21,-1
 1728 0 l 1,22,-1
 1729 1 l 1,23,-1
 872 0 l 1,24,-1
 872 -25 l 1,25,26
 862 -89 862 -89 836 -137.5 c 128,-1,27
 810 -186 810 -186 792 -216 c 0,28,29
 773 -246 773 -246 754 -263 c 0,30,31
 701 -310 701 -310 568 -357 c 1,32,33
 455 -385 455 -385 381 -384 c 0,34,35
 234 -384 234 -384 141 -327 c 0,36,37
 38 -264 38 -264 38 -157 c 0,38,39
 38 -94 38 -94 51 -23 c 0,40,41
 63 47 63 47 99 133 c 0,42,43
 165 293 165 293 195 293 c 1,44,-1
 112 72 l 2,45,46
 110 58 110 58 109 44 c 0,47,48
 107 31 107 31 107 17 c 0,49,50
 107 -118 107 -118 238 -190 c 0,51,52
 260 -202 260 -202 281 -210 c 256,53,54
 302 -218 302 -218 324 -223 c 2,55,-1
 370 -231 l 1,56,-1
 418 -234 l 1,57,-1
 461 -232 l 1,58,-1
 504 -224 l 1,59,-1
 560 -210 l 1,60,-1
 594 -200 l 2,61,62
 611 -196 611 -196 628 -188 c 0,63,64
 774 -141 774 -141 802 -91 c 1,65,-1
 804 -84 l 1,66,67
 804 -28 804 -28 791 46 c 256,68,69
 778 120 778 120 701 211 c 1,70,-1
 781 365 l 1,71,-1
 850 221 l 1,72,73
 894 116 894 116 988 124 c 1,4,5
1745 145 m 1,74,75
 1877 140 1877 140 1863 250 c 0,76,77
 1858 286 1858 286 1777 346 c 1,78,-1
 1774 348 l 2,79,80
 1755 360 1755 360 1738 370 c 256,81,82
 1721 380 1721 380 1697 388 c 0,83,84
 1673 397 1673 397 1664 398 c 0,85,86
 1654 400 1654 400 1639 401 c 0,87,88
 1608 401 1608 401 1575 393 c 0,89,90
 1541 385 1541 385 1509 368 c 2,91,-1
 1239 203 l 1,92,-1
 1148 145 l 1,93,-1
 1745 145 l 1,74,75
EndSplineSet
EndChar

StartChar: dadinitial
Encoding: 65215 65215 144
Width: 1458
GlyphClass: 2
Flags: W
AnchorPoint: "ArabicBelow" 729 -250 basechar 0
AnchorPoint: "ArabicAbove" 729 1202 basechar 0
LayerCount: 2
Fore
SplineSet
881 865 m 1,0,-1
 794 747 l 1,1,-1
 672 834 l 1,2,-1
 757 952 l 1,3,-1
 881 865 l 1,0,-1
1159 145 m 1,4,5
 1291 140 1291 140 1277 250 c 0,6,7
 1272 286 1272 286 1191 346 c 1,8,-1
 1188 348 l 2,9,10
 1169 360 1169 360 1152 370 c 128,-1,11
 1135 380 1135 380 1111 388 c 0,12,13
 1087 397 1087 397 1077.5 398.5 c 128,-1,14
 1068 400 1068 400 1053 401 c 0,15,16
 1022 401 1022 401 988.5 393 c 128,-1,17
 955 385 955 385 923 368 c 2,18,-1
 653 203 l 1,19,-1
 562 145 l 1,20,-1
 1159 145 l 1,4,5
218 145 m 1,21,-1
 189 342 l 1,22,-1
 306 495 l 1,23,-1
 319 237 l 2,24,25
 320 165 320 165 384 150.5 c 128,-1,26
 448 136 448 136 572 232 c 1,27,28
 981 504 981 504 1035 529 c 128,-1,29
 1089 554 1089 554 1116 554 c 0,30,31
 1187 554 1187 554 1311 460.5 c 128,-1,32
 1435 367 1435 367 1406 272 c 0,33,34
 1395 230 1395 230 1383 202 c 128,-1,35
 1371 174 1371 174 1358 139 c 0,36,37
 1348 119 1348 119 1337 98.5 c 128,-1,38
 1326 78 1326 78 1311.5 61.5 c 128,-1,39
 1297 45 1297 45 1278.5 34 c 128,-1,40
 1260 23 1260 23 1236 22 c 0,41,42
 1172 17 1172 17 1074 13 c 128,-1,43
 976 9 976 9 857 7 c 2,44,-1
 556 2 l 1,45,-1
 245 0 l 1,46,-1
 210 72 l 1,47,-1
 124 0 l 1,48,-1
 -76 0 l 1,49,-1
 -76 145 l 1,50,-1
 218 145 l 1,21,-1
EndSplineSet
EndChar

StartChar: dadmedial
Encoding: 65216 65216 145
Width: 1463
GlyphClass: 2
Flags: W
AnchorPoint: "ArabicBelow" 731 -251 basechar 0
AnchorPoint: "ArabicAbove" 731 1136 basechar 0
LayerCount: 2
Fore
SplineSet
900 799 m 1,0,-1
 813 681 l 1,1,-1
 691 768 l 1,2,-1
 776 886 l 1,3,-1
 900 799 l 1,0,-1
1191 -1 m 1,4,-1
 1193 1 l 1,5,-1
 278 0 l 1,6,-1
 243 72 l 1,7,-1
 157 0 l 1,8,-1
 -43 0 l 1,9,-1
 -43 145 l 1,10,-1
 251 145 l 1,11,-1
 222 342 l 1,12,-1
 339 495 l 1,13,-1
 352 237 l 2,14,15
 353 165 353 165 417 150 c 0,16,17
 481 136 481 136 605 232 c 1,18,19
 1014 504 1014 504 1068 529 c 256,20,21
 1122 554 1122 554 1149 554 c 0,22,23
 1220 554 1220 554 1344 460 c 0,24,25
 1468 367 1468 367 1439 272 c 0,26,27
 1434 252 1434 252 1428.5 235.5 c 128,-1,28
 1423 219 1423 219 1417 204 c 2,29,-1
 1405 176 l 2,30,31
 1399 161 1399 161 1393 145 c 1,32,-1
 1499 145 l 1,33,-1
 1498 0 l 1,34,-1
 1191 -1 l 1,4,-1
1192 145 m 1,35,36
 1324 140 1324 140 1310 250 c 0,37,38
 1305 286 1305 286 1224 346 c 1,39,-1
 1221 348 l 2,40,41
 1202 360 1202 360 1185 370 c 256,42,43
 1168 380 1168 380 1144 388 c 0,44,45
 1120 397 1120 397 1111 398 c 0,46,47
 1101 400 1101 400 1086 401 c 0,48,49
 1055 401 1055 401 1022 393 c 0,50,51
 988 385 988 385 956 368 c 2,52,-1
 686 203 l 1,53,-1
 595 145 l 1,54,-1
 1192 145 l 1,35,36
EndSplineSet
EndChar

